<?xml version="1.0" standalone="no"?>
<!DOCTYPE svg PUBLIC "-//W3C//DTD SVG 1.1//EN" "http://www.w3.org/Graphics/SVG/1.1/DTD/svg11.dtd" >
<svg xmlns="http://www.w3.org/2000/svg" xmlns:xlink="http://www.w3.org/1999/xlink" version="1.1">
<metadata>
Created by FontForge 20190801 at Sun Apr  5 06:04:33 2020
 By Unknown
Copyright (c) 2020 by Hendra Pratama - Mikrojihad Studio. All rights reserved.
</metadata>
<defs>
<font id="BismillahScript" horiz-adv-x="2314" >
  <font-face 
    font-family="Bismillah Script"
    font-weight="400"
    font-stretch="normal"
    units-per-em="1000"
    panose-1="0 0 0 0 0 0 0 0 0 0"
    ascent="750"
    descent="-250"
    x-height="361"
    cap-height="750"
    bbox="-205.222 -383 2799.22 784"
    underline-thickness="50"
    underline-position="-100"
    unicode-range="U+0020-FB00"
  />
<missing-glyph horiz-adv-x="148" 
 />
    <glyph glyph-name="e_e" unicode="ee" horiz-adv-x="554" 
d="M15 260q0 24 8.5 44t22.5 34t32 21.5t38 7.5q47 0 76 -33q14 -17 20.5 -38.5t6.5 -45.5v-68q0 -13 -8.5 -21.5t-21.5 -8.5h-114v-34q0 -22 10.5 -40t33.5 -18h201v-60h-201q-25 0 -44.5 10t-32.5 26.5t-20 37.5t-7 43v143zM159 212v38q0 25 -9.5 41t-33.5 16
q-14 0 -27.5 -11t-13.5 -36v-48h84zM292 260q0 24 8.5 44t22.5 34t32 21.5t38 7.5q47 0 76 -33q14 -17 20.5 -38.5t6.5 -45.5v-68q0 -13 -8.5 -21.5t-21.5 -8.5h-114v-34q0 -22 10.5 -40t33.5 -18h201v-60h-201q-25 0 -44.5 10t-32.5 26.5t-20 37.5t-7 43v143zM307 458
l46 47l45 -46l45 46l47 -47l-47 -46l-45 44l-45 -44zM436 212v38q0 25 -9.5 41t-33.5 16q-14 0 -27.5 -11t-13.5 -36v-48h84z" />
    <glyph glyph-name="f_f" unicode="ff" horiz-adv-x="305" 
d="M168 -152v473h-93v-473h-60v473h-39v60h39v59q0 24 7 45t20.5 37.5t33 26t43.5 9.5h51l-32 -60h-19q-12 0 -20.5 -5.5t-14 -14t-7.5 -19t-2 -20.5v-58h93v59q0 24 7 45t20.5 37.5t33 26t43.5 9.5h71l-30 -60h-41q-12 0 -20.5 -5.5t-14 -14t-7.5 -19t-2 -20.5v-58h81
l-20 -60h-61v-473h-60z" />
    <glyph glyph-name="f_t" unicode="ft" horiz-adv-x="303" 
d="M158 321h-83v-473h-60v473h-39v60h39v59q0 24 7 45t20.5 37.5t33 26t43.5 9.5h99v-177h81l-20 -60h-61v-202q0 -22 10 -40.5t34 -18.5h78v-60h-78q-26 0 -45 10t-32.5 26.5t-20 38t-6.5 43.5v203zM75 381h83v117h-39q-12 0 -20.5 -5.5t-14 -14t-7.5 -19t-2 -20.5v-58z
" />
    <glyph glyph-name="g_g" unicode="gg" horiz-adv-x="573" 
d="M15 194q0 53 24.5 89.5t55.5 61.5q29 24 60 48t45 49l44 -31q-12 -22 -29 -40.5t-37 -34.5h47v-276h121v-60h-121v-86q0 -56 -18.5 -100t-50.5 -74t-74 -44.5t-89 -11.5q-38 3 -74.5 17.5t-65 41.5t-44.5 66.5t-14 91.5l60 -2q-2 -37 9.5 -65.5t31.5 -48t46 -30.5t54 -12
q29 -2 59 8t54.5 31t40 54t15.5 78v93q-21 -9 -48 -9q-20 0 -38 7.5t-32.5 21.5t-23 33.5t-8.5 44.5v89zM165 324l-30 -24q-27 -24 -43.5 -48.5t-16.5 -57.5v-89q0 -23 13.5 -35t28.5 -12q24 0 35 15t13 35v216zM252 -213q8 -2 15 -3t15 -1q29 -2 59 8t54.5 31t40 54
t15.5 78v53q-21 -9 -48 -9q-20 0 -38 7.5t-32.5 21.5t-23 33.5t-8.5 44.5v89q0 53 24.5 89.5t55.5 61.5q14 11 35.5 26.5t35.5 26.5l59 -34v-304h121v-60h-121v-46q0 -56 -18.5 -100t-50.5 -74t-74 -44.5t-89 -11.5q-11 1 -21.5 2.5t-21.5 4.5zM451 324l-30 -24
q-27 -24 -43.5 -48.5t-16.5 -57.5v-89q0 -23 13.5 -35t28.5 -12q24 0 35 15t13 35v216zM356 458l46 47l46 -47l46 47l47 -47l-47 -46l-46 45l-46 -45z" />
    <glyph glyph-name="l_l" unicode="ll" horiz-adv-x="286" 
d="M15 549h60v-430q0 -22 10 -40.5t34 -18.5h51q-12 27 -12 58v511h60v-510q0 -22 10 -40.5t34 -18.5h85v-60h-85q-36 0 -58 18v-18h-85q-26 0 -45 10t-32.5 26.5t-20 38t-6.5 43.5v431z" />
    <glyph glyph-name="o_o" unicode="oo" horiz-adv-x="552" 
d="M116 0q-55 0 -78 32.5t-23 79.5v147q0 24 9 44t23 34t32.5 21.5t38.5 7.5q52 0 79.5 -34.5t27.5 -82.5v-147q0 -12 -2.5 -22.5t-6.5 -19.5h84q-5 12 -7 25t-2 27v147q0 24 9 44t23 34t32.5 21.5t38.5 7.5q52 0 79.5 -34.5t27.5 -82.5v-147q0 -54 -29 -78t-68 -24h-288z
M75 101q0 -25 14 -36.5t30 -11.5q24 0 35 15.5t11 35.5v151q0 24 -13 37.5t-34 13.5q-14 0 -28.5 -11t-14.5 -36v-158zM351 101q0 -25 14 -36.5t30 -11.5q24 0 35 15.5t11 35.5v151q0 24 -13 37.5t-34 13.5q-14 0 -28.5 -11t-14.5 -36v-158zM29 458l46 47l45 -46l45 46
l47 -47l-47 -46l-45 44l-45 -44zM305 458l46 47l45 -46l45 46l47 -47l-47 -46l-45 44l-45 -44z" />
    <glyph glyph-name="r_f" unicode="rf" horiz-adv-x="362" 
d="M195 -152v453h-76q-13 0 -21.5 -5.5t-13.5 -14t-7 -19t-2 -20.5v-242h-60v243q0 49 27.5 83.5t76.5 34.5h76v79q0 24 7 45t20.5 37.5t33 26t43.5 9.5h71l20 -60h-91q-12 0 -20.5 -5.5t-14 -14t-7.5 -19t-2 -20.5v-78h105l-20 -60h-85v-453h-60z" />
    <glyph glyph-name="r_s" unicode="rs" horiz-adv-x="522" 
d="M15 0v243q0 49 27.5 83.5t76.5 34.5h71l20 -60h-91q-13 0 -21.5 -5.5t-13.5 -14t-7 -19t-2 -20.5v-242h-60zM188 60h159q9 0 18.5 2.5t17.5 8t13.5 15t5.5 24.5q0 24 -14 36q-6 6 -16.5 10t-24.5 4h-78q-13 0 -21.5 8.5t-8.5 21.5v63q0 50 27.5 79t76.5 29h91l-20 -60
h-71q-26 0 -34.5 -16.5t-9.5 -36.5v-28h48q50 0 82.5 -30t32.5 -80q0 -27 -13 -50h136v-60h-427zM248 -82l46 47l45 -45l45 45l47 -47l-47 -46l-45 45l-45 -45z" />
    <glyph glyph-name="r_t" unicode="rt" horiz-adv-x="353" 
d="M195 301h-76q-13 0 -21.5 -5.5t-13.5 -14t-7 -19t-2 -20.5v-242h-60v243q0 49 27.5 83.5t76.5 34.5h76v197h60v-197h94l-19 -60h-75v-182q0 -22 10 -40.5t34 -18.5h98v-60h-98q-26 0 -45 10t-32.5 26.5t-20 38t-6.5 43.5v183z" />
    <glyph glyph-name="s_s" unicode="ss" horiz-adv-x="581" 
d="M14 60h109q9 0 18.5 2.5t17.5 8t13.5 15t5.5 24.5q0 24 -14 36q-14 14 -41 14h-78q-13 0 -21.5 8.5t-8.5 21.5v42q0 25 11 46.5t28 40.5t38 35t42 29l77 46l15 -58l-60 -39q-11 -7 -26.5 -17.5t-30 -24.5t-24.5 -30t-10 -33v-7h48q50 0 82.5 -30t32.5 -80q0 -27 -13 -50
h176q9 0 18.5 2.5t17.5 8t13.5 15t5.5 24.5q0 24 -14 36q-6 6 -16.5 10t-24.5 4h-78q-13 0 -21.5 8.5t-8.5 21.5v63q0 50 27.5 79t76.5 29h91l-20 -60h-71q-26 0 -34.5 -16.5t-9.5 -36.5v-28h48q50 0 82.5 -30t32.5 -80q0 -27 -13 -50h136v-60h-655zM302 -82l46 47l45 -45
l45 45l47 -47l-47 -46l-45 45l-45 -45zM24 -82l46 47l45 -45l45 45l47 -47l-47 -46l-45 45l-45 -45z" />
    <glyph glyph-name="t_t" unicode="tt" horiz-adv-x="313" 
d="M15 321h-39v60h39v177h60v-177h92v177h60v-177h81l-20 -60h-61v-202q0 -22 10 -40.5t34 -18.5h98v-60h-98q-32 0 -54 15v-15h-98q-26 0 -45 10t-32.5 26.5t-20 38t-6.5 43.5v203zM167 321h-92v-202q0 -22 10 -40.5t34 -18.5h60q-12 27 -12 58v203z" />
    <glyph glyph-name="y_y" unicode="yy" horiz-adv-x="586" 
d="M250 -163q17 -8 33 -10.5t37 -2.5q24 0 47 9t42 26.5t30.5 43.5t11.5 62v35h-39q-20 0 -37.5 6t-31.5 20v-26h-118v-86q0 -56 -18.5 -100t-50.5 -74t-74 -44.5t-89 -11.5q-28 2 -55.5 10.5t-51.5 24t-43.5 37t-31.5 50.5l54 26q17 -42 53 -64.5t78 -24.5q29 -2 59 8
t54.5 31t40 54t15.5 78v86h-46q-46 0 -75 32q-14 16 -21 37.5t-8 47.5v244h60v-243q1 -18 5 -29t9 -17q10 -12 30 -12h46v301h60v-301h94q-11 25 -11 57v244h60v-243q1 -18 5 -29t9 -17q10 -12 30 -12h39v301h60v-301h122v-60h-122v-37q0 -48 -16 -85t-42.5 -62t-60.5 -38
t-70 -14q-32 -1 -55 5.5t-34 14.5z" />
    <glyph glyph-name="DAFONT" unicode="Bismillah" horiz-adv-x="2849" 
d="M1520 32q14 -17 33.5 -24.5t41.5 -7.5h77v25q13 -11 29.5 -18t37.5 -7h85v18q22 -18 58 -18h85v15q25 -17 56 -17q49 0 79 32q14 -16 33 -23t40 -7h102v257q0 20 11.5 35.5t35.5 15.5q15 0 30 -12.5t15 -38.5v-121q0 -56 18.5 -97t50.5 -68t74 -38.5t89 -8.5
q38 3 74.5 17.5t65 41.5t44.5 66.5t14 91.5q-2 39 -17.5 72.5t-41 57.5t-57.5 38t-67 14q-17 0 -33.5 -3t-33.5 -11l17 -55q21 10 47 10q24 0 46 -9.5t39 -26t28 -39.5t13 -50q2 -37 -9.5 -65.5t-31.5 -48t-46 -30.5t-54 -12q-29 -2 -59 5t-54.5 24.5t-40 48t-15.5 75.5v121
q0 22 -8 42.5t-22 35.5t-33 24t-41 9q-12 0 -25 -2t-23 -7v199h-60v-498h-42q-23 0 -33.5 18t-10.5 40v229l-59 34q-9 -9 -28.5 -21.5t-42.5 -31.5q-12 -10 -26 -22.5t-26 -28t-20 -36t-8 -47.5v-89q0 -24 8 -45h-47q-24 0 -34 18.5t-10 40.5v510h-60v-511q0 -31 12 -58h-51
q-24 0 -34 18.5t-10 40.5v430h-60v-431q0 -31 12 -58h-52q-23 0 -33.5 17.5t-10.5 40.5v243h-60v-244q1 -26 8 -47.5t21 -37.5zM661 32q14 -17 33.5 -24.5t41.5 -7.5h398v254q1 16 5 26t9 16q10 12 30 12q16 0 27 -13q11 -14 12 -35v-221l60 -39v260q1 13 4.5 22t8.5 14
q11 11 31 11q16 0 27 -12q12 -14 12 -38v-222q0 -91 46 -132t137 -41h715q28 0 48.5 -4t41.5 -24l41 41q-35 31 -68 37t-63 6h-715q-33 0 -56 5t-38 18.5t-22 36t-7 57.5v222q0 48 -28 79t-71 31q-44 0 -74 -30q-13 14 -30.5 22.5t-38.5 8.5q-45 0 -75 -32
q-14 -16 -21 -36.5t-8 -44.5v-195h-88q13 23 13 50q0 50 -32.5 80t-82.5 30h-48v7q0 18 10 34t24.5 30t30 24.5t26.5 17.5l60 38l-15 59l-77 -47q-21 -13 -42 -29t-38 -35t-28 -40.5t-11 -46.5v-42q0 -13 8.5 -21.5t21.5 -8.5h78q14 0 24.5 -4t16.5 -10q14 -12 14 -36
q0 -15 -5.5 -24.5t-13.5 -15t-17.5 -8t-18.5 -2.5h-148q-23 0 -33.5 17.5t-10.5 40.5v243h-60v-244q1 -26 8 -47.5t21 -37.5zM369 232q-8 0 -17 -0.5t-18 -1.5v-233h-60v552q-17 32 -21.5 70.5t10.5 88.5l57 -17q-9 -31 -8 -55.5t9 -45.5t22 -38.5t32 -33.5q14 -13 36 -30.5
t42 -38.5q20 -20 38 -48.5t16 -62.5q-2 -22 -11 -39t-23 -31q51 -24 81.5 -71t27.5 -111q-2 -39 -21 -78t-54 -69t-86.5 -48t-118.5 -15q-22 1 -47 5.5t-51 14t-51.5 24.5t-46.5 36q-22 22 -38 50t-22.5 62.5t-3.5 75.5t19 89l55 -19q-13 -41 -15.5 -73.5t3 -59t17.5 -47
t27 -35.5q16 -16 36 -28t41 -19.5t41 -11.5t38 -4q57 -2 98.5 13t68 39t39.5 52.5t13 52.5q0 60 -38 97t-103 42h-13zM2071 108q-2 -20 -13 -35t-35 -15q-15 0 -28.5 12t-13.5 35v89q0 16 7.5 31.5t20.5 30t29 27.5t33 24v-199zM374 292q12 0 24.5 3t23 8.5t17.5 14.5t8 23
q2 27 -37 66q-18 19 -38.5 35.5t-36.5 31.5h-1v-184q10 2 20 2h20zM2009 412l46 45l46 -45l47 46l-47 47l-46 -47l-46 47l-46 -47zM831 -128l45 45l45 -45l47 46l-47 47l-45 -45l-45 45l-46 -47zM664 412l47 46l-47 47l-46 -47zM1523 412l47 46l-47 47l-46 -47z" />
    <glyph glyph-name=".notdef" horiz-adv-x="148" 
 />
    <glyph glyph-name="A" unicode="A" horiz-adv-x="685" 
d="M546 140h-154q-8 -54 -26.5 -93.5t-44 -66t-56 -39t-63.5 -12.5q-51 0 -90.5 19t-63.5 55q-30 46 -30 113q0 31 6 64l56 -11q-4 -23 -4 -47q0 -52 22 -85q14 -22 39.5 -35t64.5 -13q21 0 41.5 8.5t38.5 27.5q18 20 32.5 53t20.5 84q5 44 10 87t10 80q5 33 11.5 74.5
t18.5 81t31.5 72.5t50.5 51q28 17 68 17q16 0 33.5 -3t37.5 -11v-493q2 -22 11 -40t33 -18h78v-60h-78q-25 0 -44 10t-32 26.5t-20 37.5t-8 43v23zM497 556q-21 -13 -35.5 -43.5t-24 -66t-15 -70t-8.5 -55.5l-15 -121h147v367q-17 0 -29 -3t-20 -8zM241 160l-47 -46l-46 46
l46 47l-46 46l46 47l47 -47l-47 -46z" />
    <glyph glyph-name="B" unicode="B" horiz-adv-x="597" 
d="M349 232q-8 0 -17 -0.5t-18 -1.5v-233h-60v552q-17 32 -21.5 70.5t10.5 88.5l57 -17q-9 -31 -8 -55.5t9 -45.5t22 -38.5t32 -33.5q14 -13 36 -30.5t42 -38.5q20 -20 38 -48.5t16 -62.5q-2 -22 -11 -39t-23 -31q51 -24 81.5 -71t27.5 -111q-2 -39 -21 -78t-54 -69
t-86.5 -48t-118.5 -15q-22 1 -47 5.5t-51 14t-51.5 24.5t-46.5 36q-22 22 -38 50t-22.5 62.5t-3.5 75.5t19 89l55 -19q-13 -41 -15.5 -73.5t3 -59t17.5 -47t27 -35.5q16 -16 36 -28t41 -19.5t41 -11.5t38 -4q57 -2 98.5 13t68 39t39.5 52.5t13 52.5q0 60 -38 97t-103 42h-13
zM354 292q12 0 24.5 3t23 8.5t17.5 14.5t8 23q2 27 -37 66q-18 19 -38.5 35.5t-36.5 31.5q-1 0 -1 1v-185q10 2 20 2h20z" />
    <glyph glyph-name="B.salt" unicode="&#xe481;" horiz-adv-x="488" 
d="M160 10v563q-7 22 -7 51q0 17 2.5 34t8.5 37l57 -17q-5 -14 -6.5 -27.5t-1.5 -25.5q0 -39 18 -67.5t45 -53.5q14 -13 36 -30.5t42 -38.5q20 -20 38 -48t16 -62q-2 -26 -12.5 -45t-27.5 -32l22 -14q35 -26 52.5 -66.5t12.5 -91.5q-3 -31 -20.5 -61.5t-47.5 -53.5t-72 -37
t-94 -12q-34 1 -76.5 14.5t-76.5 46.5q-23 23 -36 56t-13 73q0 43 16 88l53 -19q-8 -26 -10.5 -47.5t-0.5 -38.5q3 -29 17 -50t34.5 -35.5t45.5 -21.5t50 -8q42 -2 73.5 9t52.5 28t32 37t13 38q5 36 -6.5 61.5t-34.5 42.5t-57.5 26t-76.5 7v-209h-60zM272 278q12 0 25 3
t24.5 8.5t19 14.5t7.5 23q1 27 -36 66q-19 20 -39.5 36.5t-36.5 30.5l-16 15v-197h52z" />
    <glyph glyph-name="C" unicode="C" horiz-adv-x="458" 
d="M363 420h-60v139q-34 -1 -72.5 -20.5t-72.5 -60.5q-37 -42 -60 -106t-23 -142v-14t1 -15q7 -85 51 -138.5t113 -58.5q25 -2 49 4.5t43.5 18t34 27.5t20.5 34l57 -19q-10 -29 -31 -52.5t-49 -40t-61 -24t-67 -5.5q-48 3 -87 23.5t-67.5 53.5t-45.5 77.5t-21 96.5
q-1 9 -1 17.5v17.5q0 91 28 165t75 125q40 45 89 70t97 27v1h60v-201zM163 -139l46 47l47 -47l-47 -46zM257 -139l46 47l47 -47l-47 -46z" />
    <glyph glyph-name="C.1" unicode="&#xe013;" horiz-adv-x="504" 
d="M22 192q-2 49 8.5 94.5t29.5 85.5t45 74.5t57 62.5q30 27 64.5 48.5t70 35.5t71 19.5t68.5 2.5l-6 -60q-50 5 -111.5 -18t-116.5 -73q-54 -49 -88 -117.5t-32 -152.5q1 -42 15 -78.5t39 -63.5t61 -42t83 -15q49 0 85 21t58 54l50 -33q-29 -45 -78.5 -74t-115.5 -28
q-60 0 -107 20.5t-79.5 55.5t-50.5 81.5t-20 99.5z" />
    <glyph glyph-name="D" unicode="D" horiz-adv-x="507" 
d="M175 0v533l-6 13q-7 17 -11 35.5t-4 38.5q0 32 10 65l58 -17q-4 -14 -6 -25t-2 -22q0 -14 3 -27t8 -24q8 -20 22.5 -39t31.5 -40q8 -10 22 -24t31 -32t35.5 -40.5t35.5 -47.5q27 -41 46.5 -90.5t19.5 -107.5q0 -36 -9 -73q-7 -28 -25 -60t-47.5 -58t-71 -43t-94.5 -15
q-34 1 -77 15.5t-77 47.5q-23 23 -37 54.5t-14 72.5q0 42 16 90l55 -19q-7 -20 -9.5 -37t-2.5 -32q0 -30 10 -51t24 -35q24 -23 56 -34t58 -12q40 -2 71.5 11t53.5 33t35 43t18 43q7 28 7 58q0 47 -16 88t-40 77q-31 47 -65 80.5t-53 56.5v-450h-60z" />
    <glyph glyph-name="E" unicode="E" horiz-adv-x="419" 
d="M436 11q-11 -30 -30 -52q-31 -35 -72.5 -52t-75.5 -20q-10 -1 -19 -1.5t-18 -0.5q-44 0 -80 12t-63 31.5t-43.5 45t-22.5 53.5q-3 15 -3 29q0 43 20 81.5t49 62.5q9 8 18.5 14t19.5 12q-26 19 -37 49.5t-3 65.5q7 33 30.5 59.5t47.5 46.5q31 24 67.5 46t67 47t49.5 54.5
t15 69.5l60 3q4 -55 -16 -92.5t-53 -66t-74 -53.5t-78 -55q-49 -39 -57 -71q-8 -35 12.5 -55t55.5 -15v-1q27 7 53.5 9t49.5 3l2 -60q-21 -1 -45 -2.5t-49.5 -7t-50.5 -16t-47 -28.5q-11 -9 -20.5 -21.5t-16 -28.5t-9 -33.5t1.5 -35.5q3 -16 13.5 -32.5t29 -30.5t45 -23
t61.5 -9q8 0 15 0.5t15 1.5q20 2 40.5 9t38 18t31.5 27t21 37z" />
    <glyph glyph-name="Euro" unicode="&#x20ac;" 
d="M334 -51q0 22 15.5 34.5t30.5 23.5q-6 0 -17.5 1t-22.5 3t-21 6.5t-13 10.5q-2 4 -6.5 9.5t-9 11.5t-8 11.5t-3.5 9.5q0 6 4 10.5t9.5 8t11.5 7t10 7.5q-15 -4 -33 -4q-22 0 -45 11.5t-41.5 30t-30 41t-11.5 44.5q0 48 31 90t77 73t99 49t97 18q20 0 33.5 -2.5t24.5 -8.5
t20 -16t20 -25q16 26 31.5 54.5t23.5 57.5q-2 1 -2 4v5q0 7 4 13t12 6q19 0 31.5 -5t21.5 -13t17 -18.5t19 -21.5q10 17 20.5 33.5t17.5 35.5q2 4 6.5 6.5t8.5 2.5q11 0 28 -10.5t34 -24.5t31 -28.5t19 -22.5q2 -2 5.5 -8.5t5.5 -7.5q1 5 6 16.5t10 24t9 23t3 14.5l-2 3v3
q0 8 5.5 13.5t13.5 5.5q12 0 27.5 -10t30 -24.5t24.5 -30t12 -26.5q-2 -11 -7 -18.5t-10 -16.5q2 -2 4.5 -4t4.5 -5q3 6 6.5 10t11.5 4q14 0 30.5 -8.5t21.5 -21.5l19.5 19.5t20.5 17.5h1q2 4 4.5 10.5t6 12.5t8 10.5t10.5 4.5q23 0 34.5 -8t25.5 -25q10 13 25 17
q6 -1 12 -1.5t12 -2.5q3 5 11.5 11.5t13.5 6.5q26 0 36 -11.5t21 -31.5q7 7 11.5 16t9.5 16.5t12.5 11.5t21.5 1q-7 5 -10 13t-3 16q0 6 3 18.5t8 24.5t11 21.5t13 9.5q19 0 32.5 -16.5t22.5 -30.5q3 17 20 17q21 0 35.5 -16.5t25.5 -31.5q8 17 17 42t9 45q0 6 -2.5 10.5
t-2.5 10.5q0 8 5 13t13 5q12 0 29 -9.5t33 -23.5t27.5 -29t11.5 -25q0 -8 -4.5 -18.5t-8.5 -18.5q15 -6 26.5 -22t22.5 -27q4 4 10.5 11.5t14 15.5t15 14t12.5 6q3 0 10.5 -2.5t16 -6t16 -7t10.5 -4.5q7 7 18 7q6 0 13.5 -3.5t14 -9t11 -12.5t3.5 -14q3 3 9.5 11t14 16
t15 14.5t12.5 6.5q7 0 21.5 -4.5t19.5 -9.5q4 9 9.5 21.5t10 26.5t8 27t3.5 23q0 5 -2 7.5t-2 7.5q0 8 5 13.5t12 5.5q15 0 32.5 -9.5t32.5 -24t25 -31t10 -30.5q0 -8 -18.5 -39t-40.5 -73.5t-40.5 -90.5t-18.5 -90q0 -14 3 -23t6 -15t6 -10.5t3 -7.5q0 -7 -5 -13t-12 -6
q-11 0 -23 6t-24 15t-22.5 19t-17.5 18q-8 -8 -18 -17t-23 -7q7 -3 18.5 -5.5t23 -6t22.5 -7t19 -7.5l37 -46l1 -8l-3 -9q-7 -9 -17 -9t-20 -1l-3 1q-20 0 -40 -5t-40 -5q-66 0 -132.5 5.5t-132.5 5.5q-33 0 -79.5 -1t-95.5 -3t-94.5 -6t-75.5 -11h1q-4 -19 -27 -47t-53 -54
t-61 -44.5t-52 -18.5q-18 0 -39.5 8.5t-41 23t-32.5 32.5t-13 37q0 14 4 23q-86 -19 -171.5 -36.5t-169.5 -46.5q-29 -11 -61.5 -16.5t-64.5 -10.5q-10 -11 -22 -15t-25 -6t-26.5 -4t-25.5 -8q-4 -5 -7.5 -8.5t-10.5 -3.5q-8 0 -17 7t-16.5 17t-13 21t-5.5 18zM1158 329
q-11 -21 -23 -48.5t-12 -51.5q0 -8 6 -13.5t14.5 -9.5t17.5 -5.5l15 -2.5q18 9 36 29t33.5 44t28.5 49t21 43q13 0 23 4t18.5 11t16 15.5t16.5 16.5q-32 -65 -70 -127t-79 -122q-161 -16 -322 -44t-318 -67v-1q0 -21 12 -37q57 21 123.5 38.5t135.5 31.5t137 25.5t129 20.5
q-15 -5 -37.5 -15.5t-43.5 -25t-36 -32t-15 -37.5q0 -12 8.5 -20.5t21 -14.5t25.5 -8.5t22 -2.5q19 0 45 16.5t51.5 39.5t46.5 47.5t30 41.5q-14 0 -27 -2.5t-26 -5.5q-13 -14 -31.5 -32t-40.5 -34.5t-44.5 -27.5t-43.5 -11q-9 0 -13 2q-2 2 -2 8q0 10 6.5 19t13.5 15
q24 24 57 40.5t69.5 27.5t73.5 16.5t69 8.5q76 6 151 11t151 5q66 0 131 -3t131 -8l-3 7l-96 11l95 -4v6l-59 6h59l1 5l-96 6h97l1 5q-42 2 -82.5 3.5t-81.5 1.5q-109 0 -215.5 -7.5t-213.5 -19.5q5 9 19 34t31 57t36 67t35 64t27.5 47.5t14.5 19.5q-6 7 -14 11.5t-17 4.5
l-8 -1q-4 -8 -15 -23.5t-24.5 -31t-27 -27.5t-22.5 -12q8 17 15.5 39t7.5 40q0 5 -12.5 8.5t-15.5 4.5q-12 -7 -21 -21q-13 7 -30 7q-11 -8 -23.5 -24t-24.5 -34t-22 -35.5t-16 -29.5q-8 9 -8 25q0 7 4 23t10 32.5t13.5 30t15.5 15.5q-5 8 -14.5 11t-18.5 2l-16 -30
q-32 -26 -60.5 -57t-54.5 -64q12 20 23 40t24 39q-10 25 -39 28q6 -5 6 -13q0 -17 -12.5 -40.5t-28.5 -49t-29.5 -51t-14.5 -45.5q4 -11 14.5 -16t21.5 -7q-2 4 -2 8v8q0 24 15 50.5t37 52t45.5 48t40.5 36.5q-5 -9 -9.5 -19.5t-4.5 -21.5q0 -17 12 -28t29 -9zM1992 220
q-6 4 -9.5 11t-5.5 15.5t-2.5 16.5t-0.5 14q0 36 11.5 74.5t29 77t38.5 74t39 64.5q-3 21 -16.5 30.5t-33.5 12.5q3 -4 4 -8.5t1 -9.5q0 -13 -4.5 -29.5t-11 -33.5t-13.5 -33t-12 -27q-11 8 -23 13.5t-26 8.5q-19 -19 -41.5 -50.5t-46 -64t-46.5 -59t-42 -35.5q0 7 6.5 22
t16 34t21.5 39t24 38t22 30.5t16 16.5q-5 9 -10.5 13.5t-15.5 7.5l-11 -11l-57 23q-28 -27 -51 -57t-45 -61t-46 -60.5t-54 -54.5q1 16 14 45t31 60t37 58t31 38q-4 13 -12 24.5t-22 13.5q-51 -44 -95.5 -99t-82.5 -111q2 18 23 56t47.5 82.5t51.5 87.5t34 72
q-8 15 -21 22.5t-29 10.5q5 -8 5 -21q0 -21 -10.5 -51.5t-28 -65.5t-40 -71t-46.5 -67t-47 -53.5t-41 -31.5q1 21 12 45.5t25.5 50t30.5 48.5t28 41q-7 10 -18 12t-22 1v-3q0 -11 -12.5 -38.5t-29 -58.5t-33 -58t-24.5 -37q2 -17 13.5 -24.5t27.5 -9.5q26 20 49 46t44 51
q-11 -18 -21.5 -36t-21.5 -35q6 -14 16.5 -20.5t23.5 -11.5v5q0 11 11.5 31.5t30 45.5t40.5 52.5t43.5 52t39.5 43.5t28 29q-7 -17 -26.5 -50t-40.5 -67.5t-37.5 -63t-17.5 -36.5q5 -11 17 -18t23 -11q17 14 32.5 30.5t30.5 33.5l-11 -24q5 -11 14 -19t22 -8q16 9 32 26.5
t32 37.5t30.5 40t26.5 35q-11 -25 -27 -47.5t-28 -46.5q0 -17 12 -26t27 -11q16 12 29.5 29t25.5 33l-11 -30q1 -11 12 -23.5t23 -12.5q9 0 23.5 16.5t28.5 37.5t26 41.5t17 28.5l11 19l1 1q0 -2 -5.5 -17t-12.5 -36t-12.5 -43.5t-5.5 -39.5q0 -10 5.5 -17t13.5 -12.5
t17.5 -8.5t17.5 -4zM251 154q25 0 56 14.5t57 37.5t44 50.5t18 53.5q0 16 -7.5 30t-19.5 24q1 -4 1 -7.5v-6.5q0 -26 -14 -58t-36 -60t-50 -47t-55 -19q-20 0 -32 14t-12 34q0 35 28.5 72.5t69.5 68.5t85.5 51t77.5 20q23 0 40.5 -9t17.5 -35q0 -22 -11 -51.5t-29 -61
t-41.5 -63.5t-48 -59.5t-48.5 -48t-44 -28.5q13 -3 25.5 -5.5t26.5 -2.5q6 0 16 2t14 7l219 327q-26 -66 -60 -130.5t-69 -126.5q0 -5 5.5 -11t13 -11t14.5 -8.5t12 -3.5h2q3 14 18.5 43.5t38 66t49.5 76.5t52 76.5t46.5 65.5t32.5 43q-9 -16 -24 -41.5t-33 -56t-36.5 -63
t-34 -62.5t-25 -55t-9.5 -39q0 -18 10.5 -33.5t27.5 -22.5q-4 12 -4 29q0 30 14 68.5t34.5 78.5t44.5 78.5t44.5 70t34.5 53t14 26.5q0 6 -5 11.5t-12 10.5t-14.5 8.5t-12.5 5.5q-1 -7 -17 -33t-40 -62.5t-52.5 -78t-55 -79t-46.5 -66.5t-27 -39q23 78 66 153.5t85 145.5
q0 10 -5.5 17t-14 11.5t-18 7t-17.5 3.5q3 -1 3 -7q0 -13 -13.5 -42t-31.5 -60.5t-35.5 -60t-25.5 -40.5q5 14 8.5 29t3.5 31q0 38 -21.5 50.5t-56.5 12.5q-38 0 -87 -16.5t-93 -45t-74.5 -67t-30.5 -82.5q0 -35 23.5 -54t55.5 -19zM942 155q15 0 33 8.5t29 18.5
q-8 -3 -17 -3q-17 0 -33.5 9.5t-31 24t-26.5 30.5l-21 28q35 30 71.5 57.5t71.5 59.5v4q0 10 -8.5 22.5t-19.5 12.5q1 -2 1 -5q0 -9 -17 -28.5t-38.5 -41t-42.5 -40t-29 -26.5l-4 7q27 54 55.5 110t63.5 106q-2 14 -17.5 24.5t-27.5 13.5q2 -1 2 -6q0 -9 -5.5 -26.5
t-14.5 -39.5t-20 -45.5t-21.5 -44.5t-20 -38t-14.5 -24q-3 2 -9 2t-12.5 -3t-8.5 -9q12 -2 18 -8q-9 -13 -24 -31.5t-31.5 -37t-33.5 -33.5t-32 -22q2 23 15.5 50t31.5 54t36.5 51.5t32.5 44.5q-15 22 -41 22v-3q0 -7 -6.5 -23.5t-17 -36.5t-23.5 -42.5t-25.5 -42.5
t-23 -36.5t-16.5 -23.5q1 -18 12 -27t28 -11q29 24 54.5 51.5t48.5 56.5q-2 -4 -8 -14.5t-13 -22.5t-12 -22t-5 -13q0 -11 13.5 -19.5t20.5 -16.5v3q0 28 14.5 51.5t32.5 42.5q5 -10 14.5 -26.5t21.5 -32.5t25 -28t25 -12zM1279 367q-3 -6 -11 -20.5t-18.5 -32t-23 -36
t-24.5 -34t-23 -25.5t-18 -10q-3 0 -4 1q-1 2 -1 7q0 17 12 46t29 59.5t35.5 57t30.5 38.5q-1 -5 -1.5 -9.5t-0.5 -9.5q0 -13 3.5 -19.5t14.5 -12.5zM1143 171q-5 6 -11.5 13t-12.5 14.5t-10.5 15t-4.5 15.5q0 21 9.5 44.5t17.5 42.5h-1q-11 -10 -26.5 -26t-29 -34t-23 -37
t-9.5 -35q0 -5 1.5 -10t0.5 -10l-1 -2q4 -2 5 -4zM1843 463q-38 -48 -75.5 -96t-84.5 -89q5 24 19.5 51t33 53.5t39 50.5t36.5 42zM2001 461q-9 -14 -27.5 -42.5t-39.5 -58.5t-41.5 -55t-33.5 -31q3 19 16 48t31 58t37.5 54.5t34.5 38.5zM380 331q-12 -8 -33.5 -26t-42 -39
t-35.5 -42.5t-15 -36.5l1 -1q15 0 35 18t38.5 42t33 48t18.5 37zM461 6q-1 -5 1.5 -10t5.5 -10q29 6 57.5 10.5t57.5 11.5q-4 9 -7.5 18.5t-3.5 19.5l-7 -1q1 -8 3.5 -15.5t5.5 -15.5q-7 5 -11 13t-6 16q-24 -8 -48.5 -16.5t-47.5 -20.5zM450 21q5 4 16 8.5t23.5 9.5t24 9
t18.5 6q-5 2 -12.5 8t-15 13.5l-14.5 14.5t-11 12q-13 -19 -26.5 -42t-29.5 -39q8 2 13.5 1.5t13.5 -1.5zM492 371q-16 0 -31.5 -4t-30.5 -10q11 -14 25 -30.5t18 -33.5q8 14 17.5 37.5t9.5 40.5h-8zM352 -51q0 -4 2 -8q7 12 22 16t31.5 6t31.5 5.5t23 14.5h-1
q-12 -5 -29 -8.5t-30 -4.5q15 2 29 6t28 9l-2 3q-19 -2 -39 -7t-38 -11q4 3 14.5 6t21.5 6t22 5.5t17 3.5l-2 4q-14 -2 -32 -5t-31 -11q12 10 29.5 14.5t32.5 6.5v2q-5 1 -15 1t-24.5 -4t-28 -11t-23 -17t-9.5 -22zM1431 496q0 4 4 9.5t9.5 11t10 11.5t5.5 13q-9 24 -32 32
q-2 -14 -9 -27.5t-7 -27.5q0 -11 5.5 -15t13.5 -9v2zM811 430q10 -10 23 -10q4 0 9.5 5.5t9.5 13t7 15t3 11.5v2q-5 7 -11 13t-15 6h-6q0 -5 -1.5 -13.5t-4 -17t-6 -15.5t-8.5 -10zM1867 188q-1 -5 -1.5 -10.5t-0.5 -11.5q0 -11 3 -20l71 9v10zM1508 480q0 5 4 10t9 9.5
t9.5 10t4.5 11.5q-7 11 -13.5 15t-19.5 7q-2 -14 -9 -29.5t-7 -27.5q0 -7 8.5 -6.5t13.5 -0.5v1zM916 137q-9 11 -18.5 21.5t-17.5 21.5q-9 -10 -14.5 -25t-7.5 -28zM733 102q-13 3 -20.5 6.5t-12 8.5t-8 12.5t-9.5 16.5q-3 -11 -5.5 -22t-2.5 -23l1 -10q14 2 28.5 5t28.5 6
zM570 66q11 5 25 7.5t25 4.5q-7 10 -15.5 18.5t-15.5 19.5q-7 -12 -12.5 -24t-10.5 -24v-4q4 0 4 2zM812 118q-6 7 -11 11.5t-10 12.5l-37 -35q14 3 29 6t29 5zM1556 237q-5 -6 -9.5 -14t-7.5 -16q10 1 19 1.5t19 0.5zM1315 451q-5 -16 -11 -32t-14 -31q-1 3 -1 10
q0 13 6.5 30.5t19.5 22.5zM1793 210q-10 5 -16 10t-11 15q-11 -14 -24 -24zM1832 208q6 0 14 0.5t14 -1.5q1 0 2.5 -1t1.5 1q6 0 14 -3q-15 7 -26 24zM1377 196q-4 5 -6 10l-4 10q-3 -5 -6.5 -10.5t-5.5 -11.5zM1967 157v1l-21 6v-9zM1139 428h1l-1 -1v1z" />
    <glyph glyph-name="F" unicode="F" horiz-adv-x="623" 
d="M376 473q-15 -7 -30.5 -12.5t-31.5 -9.5q-35 -9 -70 -9q-27 0 -54.5 6.5t-55.5 20.5l27 53q40 -20 84 -20q14 0 27 2t27 5q35 9 70.5 27t71.5 40q35 21 72 43t73 38q25 11 51.5 18t53.5 7q26 0 50 -7l-18 -58q-14 5 -34 5q-18 0 -37.5 -5t-41.5 -14q-32 -15 -66 -35.5
t-72 -43.5l-36 -21v-211h143l-20 -60h-123v-116q-3 -51 -23 -88.5t-51.5 -61.5t-72 -34.5t-85.5 -7.5q-38 3 -74.5 17.5t-64 41.5t-43.5 66.5t-14 91.5l58 -2q-2 -37 9.5 -65.5t32 -49t46.5 -31.5t54 -13q29 -2 59 4.5t54 24t39.5 48t15.5 75.5v100v60v181zM176 253l46 47
l47 -47l-47 -46zM222 207l47 -47l-47 -46l-46 46z" />
    <glyph glyph-name="F.1" unicode="&#xe01a;" horiz-adv-x="485" 
d="M308 68q0 -32 -9.5 -56t-25.5 -41t-37 -25.5t-43 -8.5h-46v60h46q28 0 41.5 22t13.5 49v181h-78v60h78v164q-15 -7 -30.5 -12.5t-31.5 -9.5q-35 -9 -70 -9q-27 0 -54.5 6.5t-55.5 20.5l27 53q40 -20 84 -20q14 0 27 2t27 5q35 9 70.5 27t71.5 40q35 21 72 43t73 38
q25 11 51.5 18t53.5 7q26 0 50 -7l-18 -58q-14 5 -34 5q-18 0 -37.5 -5t-41.5 -14q-32 -15 -66 -35.5t-72 -43.5l-36 -21v-194h143v-60h-143v-181z" />
    <glyph glyph-name="F.salt" unicode="&#xe485;" horiz-adv-x="485" 
d="M248 -62v311h-78v60h78v164q-15 -7 -30.5 -12.5t-31.5 -9.5q-35 -9 -70 -9q-27 0 -54.5 6.5t-55.5 20.5l27 53q40 -20 84 -20q14 0 27 2t27 5q35 9 70.5 27t71.5 40q35 21 72 43t73 38q25 11 51.5 18t53.5 7q26 0 50 -7l-18 -58q-14 5 -34 5q-18 0 -37.5 -5t-41.5 -14
q-32 -15 -66 -35.5t-72 -43.5l-36 -21v-194h143v-60h-143v-311h-60z" />
    <glyph glyph-name="G" unicode="G" horiz-adv-x="380" 
d="M15 239q0 37 11 72t29 66t41 57t47 44q22 17 45 33.5t44.5 33.5t39 34t28.5 36l52 -29q-14 -24 -31 -42v-523q0 -56 -18.5 -97t-50.5 -68t-74 -38.5t-89 -8.5l3 59q28 -2 58 5t54.5 24.5t40.5 47t16 74.5q-43 -34 -101 -34q-33 0 -59.5 12.5t-45.5 33.5t-29.5 49.5
t-10.5 60.5v98zM180 431q-23 -18 -42.5 -40.5t-33.5 -47.5t-21.5 -52t-7.5 -52v-98q0 -43 24 -69.5t61 -26.5q42 0 70.5 26.5t30.5 71.5v348q-20 -16 -41 -30.5t-40 -29.5zM59 567l30 59l59 -31l-31 -58zM149 595l30 59l59 -31l-31 -58z" />
    <glyph glyph-name="G.salt" unicode="&#xe486;" horiz-adv-x="487" 
d="M436 361v-379q0 -56 -18.5 -97t-50.5 -68t-74 -38.5t-89 -8.5q-38 3 -74.5 17.5t-65 41.5t-44.5 66.5t-14 91.5l60 -2q-2 -37 9.5 -65.5t31.5 -48t46 -30.5t54 -12q29 -2 59 5t54.5 24.5t40 48t15.5 75.5v72q-27 -20 -60.5 -31.5t-68.5 -11.5q-8 0 -14.5 0.5t-14.5 1.5
q-48 7 -86.5 30t-65 57.5t-40.5 79.5t-14 97q0 78 30.5 138t79 100.5t109 60t119.5 16.5l-13 -59q-41 1 -87 -14t-85 -46.5t-65 -80t-27 -114.5q2 -86 42 -140t112 -65q24 -4 47.5 0.5t43.5 14.5t35 25t23 33v215h60z" />
    <glyph glyph-name="H" unicode="H" horiz-adv-x="754" 
d="M639 140h-185v-190l-60 -30v430q0 40 -14 72t-37 53.5t-54 31.5t-64 6q-29 -3 -56.5 -16.5t-48.5 -36t-33.5 -54t-11.5 -70.5q1 -29 11 -52.5t27 -39.5t38.5 -24.5t44.5 -8.5q24 0 51 11l22 -51q-36 -16 -77 -16q-34 0 -65.5 12t-56 35.5t-39.5 56.5t-16 75q-1 52 16 94
t45.5 73t65.5 49t76 23q42 5 84.5 -8t76 -41.5t54.5 -72.5t21 -101v-150h185v410h60v-573q0 -20 5.5 -34t12.5 -22q15 -15 37 -15v-60q-22 0 -43 8.5t-37 25.5t-25.5 41t-9.5 56v103z" />
    <glyph glyph-name="I" unicode="I" horiz-adv-x="405" 
d="M213 60v428q0 21 4 38.5t12 32.5h-91q-35 0 -59 -6t-39 -22l-35 49q45 39 133 39h225q28 0 48.5 4t41.5 24l41 -45q-35 -31 -68 -37t-63 -6h-35q-28 0 -41.5 -22t-13.5 -49v-428h174v-60h-408v60h174zM216 703l46 47l47 -47l-47 -46z" />
    <glyph glyph-name="I.1" unicode="&#xe018;" horiz-adv-x="140" 
d="M15 0v654h60v-654h-60zM0 734l46 47l47 -47l-47 -46z" />
    <glyph glyph-name="J" unicode="J" horiz-adv-x="525" 
d="M451 48q0 -56 -18.5 -97t-50.5 -68t-74 -38.5t-89 -8.5q-38 3 -74.5 17.5t-65 41.5t-44.5 66.5t-14 91.5q2 39 17.5 72.5t41 57.5t57.5 38t67 14q17 0 33.5 -3t33.5 -11l-17 -55q-21 10 -47 10q-24 0 -46 -9.5t-39 -26t-28.5 -39.5t-12.5 -50q-2 -37 9.5 -65.5t31.5 -48
t46 -30.5t54 -12q29 -2 59 5t54.5 24.5t40 48t15.5 75.5v422q0 39 16 69h-151q-35 0 -59 -6t-39 -22l-35 49q45 39 133 39h285v-60h-35q-28 0 -41.5 -22t-13.5 -49v-420zM365 687l46 47l47 -47l-47 -46z" />
    <glyph glyph-name="J.salt" unicode="&#xe489;" horiz-adv-x="517" 
d="M575 498h-124v-450q0 -56 -18.5 -97t-50.5 -68t-74 -38.5t-89 -8.5q-38 3 -74.5 17.5t-65 41.5t-44.5 66.5t-14 91.5q2 39 17.5 72.5t41 57.5t57.5 38t67 14q17 0 33.5 -3t33.5 -11l-17 -55q-21 10 -47 10q-24 0 -46 -9.5t-39 -26t-28.5 -39.5t-12.5 -50
q-2 -37 9.5 -65.5t31.5 -48t46 -30.5t54 -12q29 -2 59 5t54.5 24.5t40 48t15.5 75.5v450h-170v60h354v-60zM362 667l46 47l47 -47l-47 -46z" />
    <glyph glyph-name="K" unicode="K" horiz-adv-x="583" 
d="M565 -124q-34 22 -52.5 56.5t-30.5 68.5q-11 32 -21 63.5t-24 52.5q-12 19 -27 25q-7 3 -18 4t-27 -3v-52q0 -35 -13.5 -65t-36 -53t-52 -36t-62.5 -13q-52 0 -91 20t-63 57q-15 24 -22 53t-7 61t6 65l56 -11q-4 -23 -4 -48q0 -52 22 -88q14 -23 39.5 -36t63.5 -13
q20 0 39 8.5t33.5 22.5t23 33.5t8.5 42.5v537h60v-424q19 3 39 1v1q20 -1 32 6t20 24q5 10 9.5 27.5t8.5 37.5t7.5 40t5.5 37q2 14 7 32.5t12.5 37.5t17.5 36.5t23 29.5l42 -43q-14 -14 -26 -43.5t-16 -58.5q-2 -15 -6 -36.5t-8.5 -43t-10 -42t-11.5 -34.5q-7 -15 -15.5 -27
t-20.5 -21l12 -15q18 -26 28.5 -59t23.5 -71q12 -33 25.5 -57t33.5 -37q9 -6 22 -10t30 -4t40 5t53 16l22 -57q-66 -24 -114 -24q-50 0 -86 24zM149 253l46 47l47 -47l-47 -46zM195 207l47 -47l-47 -46l-46 46z" />
    <glyph glyph-name="L" unicode="L" horiz-adv-x="281" 
d="M443 -154q-43 7 -84.5 22.5t-80.5 33.5t-74.5 35t-70.5 28q-38 12 -67 12q-25 0 -47 -9l-24 55q34 14 72 14q22 0 47 -5v622h60v-640q32 -12 65 -27.5t65 -29.5q39 -18 75.5 -32.5t72.5 -19.5q8 -1 16 -1.5t16 -0.5q27 0 53 6.5t52 23.5l31 -50q-33 -22 -66.5 -31
t-67.5 -9q-22 0 -43 3z" />
    <glyph glyph-name="M" unicode="M" horiz-adv-x="825" 
d="M711 381q0 23 -14 37t-36 14q-23 0 -35 -17.5t-12 -36.5v-378h-60v381q0 22 -15 36t-35 14q-24 0 -36 -16.5t-12 -36.5v-378h-60v380q0 37 -15.5 67t-41.5 50q-26 21 -56 30t-56 6q-29 -3 -56.5 -16.5t-48.5 -36t-33.5 -54t-11.5 -70.5q1 -29 11 -52.5t27 -39.5
t38.5 -24.5t44.5 -8.5q24 0 51 11l24 -55q-35 -16 -75 -16q-35 0 -67.5 12.5t-57.5 36.5t-40 58t-16 76q-1 52 16 94t45.5 73t65.5 49t76 23q41 5 82 -8.5t75 -41.5q18 -15 33 -33t26 -40q14 11 32 16t36 5q20 0 42 -8.5t36 -22.5l1 1q14 16 35.5 23.5t42.5 7.5t41 -8.5
t35.5 -23t24.5 -35t9 -44.5v-396q0 -20 5.5 -33t12.5 -21q15 -15 37 -15v-60q-22 0 -43 8.5t-37 24.5t-25.5 40t-9.5 56v396z" />
    <glyph glyph-name="N" unicode="N" horiz-adv-x="688" 
d="M634 -15q0 -20 5.5 -33t12.5 -21q15 -15 37 -15v-60q-22 0 -43 8.5t-37 24.5t-25.5 40t-9.5 56v391q0 27 -20 41t-40 14q-24 0 -41 -16.5t-17 -36.5v-378h-60v380q0 37 -15.5 67t-41.5 50q-26 21 -56 30t-56 6q-29 -3 -56.5 -16.5t-48.5 -36t-33.5 -54t-11.5 -70.5
q1 -29 11 -52.5t27 -39.5t38.5 -24.5t44.5 -8.5q24 0 51 11l24 -55q-35 -16 -75 -16q-35 0 -67.5 12.5t-57.5 36.5t-40 58t-16 76q-1 52 16 94t45.5 73t65.5 49t76 23q41 5 82 -8.5t75 -41.5q18 -15 35 -37t28 -44q17 16 36.5 22.5t37.5 6.5q17 0 38 -6t39 -20t30.5 -36.5
t12.5 -55.5v-388z" />
    <glyph glyph-name="O" unicode="O" horiz-adv-x="447" 
d="M134 653l46 47l47 -47l-47 -46zM228 653l46 47l47 -47l-47 -46zM21 127q-2 16 -3.5 32t-1.5 31q0 70 21.5 131t55.5 109q41 59 95 96t109 40l3 -60q-35 -2 -78.5 -30t-79.5 -80q-29 -42 -47 -93t-18 -111q0 -14 1 -28t3 -28q4 -26 14 -51t26 -45t37.5 -32.5t49.5 -13.5
q34 0 59 15.5t41 40t24.5 54t10.5 57.5q5 66 -17.5 136t-78.5 126l42 42q33 -33 56 -70.5t36.5 -77.5t19 -81t2.5 -79q-3 -44 -17 -84t-39 -71t-59.5 -49.5t-79.5 -18.5q-41 1 -73 18t-55.5 44t-38 61.5t-20.5 69.5z" />
    <glyph glyph-name="O.salt" unicode="&#xe48e;" horiz-adv-x="534" 
d="M484 124q-11 -43 -33 -80.5t-52.5 -66t-68.5 -44.5t-81 -15q-58 1 -102.5 25.5t-74.5 63.5t-44.5 89t-12.5 103q3 82 43.5 165.5t124.5 147.5l35 -48q-36 -27 -62.5 -59.5t-44 -67t-26.5 -70t-10 -69.5q-1 -42 9.5 -81.5t32.5 -70.5t54.5 -49.5t75.5 -18.5q33 0 62 13
t52.5 34.5t40 50.5t25.5 62q4 20 6 39.5t2 39.5q0 60 -18.5 116.5t-53 101t-84.5 73t-114 33.5l13 59q70 -6 128.5 -40t100.5 -86.5t65 -119t23 -136.5q0 -45 -11 -94zM154 693l46 47l47 -47l-47 -46zM248 693l46 47l47 -47l-47 -46z" />
    <glyph glyph-name="P" unicode="P" horiz-adv-x="730" 
d="M375 588q-13 24 -24.5 58t-9.5 85l56 5q2 -51 13.5 -80t22.5 -45q19 -27 45.5 -49t54 -42.5t54.5 -41t48 -44.5t34 -54t13 -69q0 -32 -15.5 -66t-46.5 -62.5t-77 -47t-107 -19.5q-3 -51 -23 -88.5t-51.5 -61.5t-72 -34.5t-85.5 -7.5q-38 3 -74.5 17.5t-65 41.5
t-44.5 66.5t-14 91.5l60 -2q-2 -37 9.5 -65t31.5 -47.5t46 -30.5t54 -13q29 -2 59 4t54.5 23t40 47t15.5 75v389zM436 176q48 0 83.5 13t58 33t33.5 44t11 45q0 38 -17.5 66t-45 51t-60.5 44.5t-63 45.5v-342zM181 253l46 47l47 -47l-47 -46zM227 207l47 -47l-47 -46l-46 46
z" />
    <glyph glyph-name="P.1" unicode="&#xe019;" horiz-adv-x="356" 
d="M48 649q25 -32 66 -61t80 -60q24 -18 47 -44t41 -57t29 -66t11 -72v-48q0 -32 -10.5 -60.5t-29.5 -49.5t-45.5 -33.5t-59.5 -12.5h-101v-148h-60v614h48q-17 13 -32.5 27t-28.5 31zM177 145q37 0 61 26.5t24 69.5v48q0 25 -7.5 52t-21.5 52t-33.5 47.5t-42.5 40.5
q-19 15 -40 29.5t-41 30.5v-396h101z" />
    <glyph glyph-name="P.salt" unicode="&#xe48f;" horiz-adv-x="571" 
d="M445 227q-20 -10 -42 -15t-42 -6.5t-35 -1.5t-20 1v-130q0 -32 -9.5 -56t-25.5 -41t-37 -25.5t-43 -8.5h-66v60h66q28 0 41.5 22t13.5 49v423h60v-233q9 -1 18 -1.5t17 -0.5h13q65 5 103 42t38 97q0 24 -13 52.5t-39.5 52.5t-68 39t-98.5 13q-18 0 -38 -4t-41 -11.5
t-41 -19.5t-36 -28q-15 -15 -27.5 -39.5t-18.5 -53.5t-3.5 -60.5t17.5 -61.5l-55 -19q-17 37 -20 76.5t4 77t23 69.5t38 54q21 21 46.5 36t51.5 24.5t51 14t47 5.5q67 3 118.5 -15t86.5 -48t54 -69t21 -78q3 -64 -27.5 -111t-81.5 -71zM121 253l46 47l47 -47l-47 -46z
M167 207l47 -47l-47 -46l-46 46z" />
    <glyph glyph-name="Q" unicode="Q" horiz-adv-x="457" 
d="M100 -31q-32 29 -51.5 69.5t-27.5 88.5q-2 16 -3.5 32t-1.5 31q0 70 21.5 131t55.5 109q41 59 95 96t109 40l3 -60q-35 -2 -78.5 -30t-79.5 -80q-29 -42 -47.5 -93.5t-18.5 -111.5q0 -13 1 -26t3 -27q25 21 66 21q16 0 32 -5.5t31 -14t28.5 -19t25.5 -20.5q13 -12 25 -25
t23 -25q13 22 21.5 50t10.5 61q5 66 -17.5 136t-78.5 126l42 42q33 -33 56 -70.5t36.5 -77.5t19 -81t2.5 -79q-3 -42 -15 -81t-33 -71q31 -29 65.5 -48t76.5 -19q18 0 41 5l14 -58q-29 -6 -55 -6q-58 0 -102.5 25t-79.5 58q-24 -19 -50 -28q-29 -9 -55 -9q-63 0 -110 44z
M140 14q32 -29 71 -29q16 0 36 6q7 2 13 5.5t12 7.5q-11 13 -23 25.5t-26 25.5q-23 21 -43 32.5t-36 11.5q-13 2 -20 -3t-11 -10q-6 -13 -5 -33q13 -23 32 -39zM248 653l46 47l47 -47l-47 -46zM154 653l46 47l47 -47l-47 -46z" />
    <glyph glyph-name="R" unicode="R" horiz-adv-x="599" 
d="M472 1q-11 32 -21 63.5t-24 52.5q-12 19 -27 25q-7 3 -17.5 4t-25.5 -2v-51q0 -35 -13.5 -65t-36.5 -53t-53.5 -36t-63.5 -13q-52 0 -89.5 20t-60.5 57q-16 24 -23 53t-7 61q0 31 6 64l56 -10q-4 -23 -4 -48q0 -53 22 -88q14 -23 38 -36t62 -13q21 0 40 8.5t34 22.5
t24 33.5t9 42.5v488q-3 16 -3 35q0 16 2.5 33t8.5 36l57 -17q-5 -14 -6.5 -27.5t-1.5 -25.5q0 -39 18 -67.5t45 -53.5q24 -22 50.5 -49.5t48 -59t34 -66.5t9.5 -71q-4 -39 -27 -62t-57 -34l2 -2q18 -26 28.5 -59t23.5 -71q23 -63 57.5 -85t79.5 -22q30 0 63 6l11 -56
q-36 -9 -72 -9q-62 0 -115 33.5t-81 113.5zM414 201q13 0 27 3t26 9t20.5 15t11.5 22q6 28 -9.5 60t-37.5 60.5t-44 50t-31 29.5q-5 5 -10 9.5t-10 9.5v-268h57zM139 253l46 47l47 -47l-47 -46zM185 207l47 -47l-47 -46l-46 46z" />
    <glyph glyph-name="R.1" unicode="&#xe000;" horiz-adv-x="599" 
d="M554 -126q-35 22 -53 56.5t-30 68.5q-11 32 -21 63.5t-24 53.5q-12 18 -27 24q-6 2 -14 3.5t-19 -0.5v-52q0 -35 -13 -65t-35.5 -53t-52.5 -36t-63 -13q-52 0 -91 20t-63 57q-31 50 -31 120q0 14 1 29t4 30l59 -11q-4 -23 -4 -48q0 -52 22 -88q14 -22 39.5 -35.5
t63.5 -13.5q21 0 39.5 8.5t33 22.5t23 33.5t8.5 42.5l-1 386h6q-11 20 -17 44t-6 53q0 36 10 76l58 -14q-4 -17 -6 -31.5t-2 -28.5q0 -41 14.5 -68t34.5 -47q15 -15 33.5 -28t36.5 -26t35.5 -26.5t31.5 -29.5q16 -18 24 -43t8 -52q0 -38 -17 -76.5t-55 -65.5
q10 -22 17.5 -46t16.5 -50q11 -33 24.5 -57t33.5 -37q9 -6 22 -10t31 -4q17 0 40 5t53 16l21 -56q-65 -25 -114 -25t-85 24zM489 312q-21 24 -55.5 45.5t-68.5 51.5v-206q32 3 56.5 -7t41.5 -30q23 18 33 43t10 48q0 17 -4.5 31.5t-12.5 23.5zM149 253l46 47l47 -47l-47 -46
zM195 207l47 -47l-47 -46l-46 46z" />
    <glyph glyph-name="S" unicode="S" horiz-adv-x="525" 
d="M163 -159l46 47l47 -47l-47 -46zM257 -159l46 47l47 -47l-47 -46zM402 596l43 -38l-232 -261q37 7 80.5 5t82.5 -16.5t68.5 -44t37.5 -75.5q3 -18 3 -36q0 -51 -24 -90.5t-62 -66t-85.5 -39t-93.5 -10.5q-34 2 -77 16t-76 48q-22 22 -35 53.5t-13 72.5q0 43 16 91l52 -18
q-13 -40 -13 -73q0 -30 9.5 -51t23.5 -35q24 -23 57 -33.5t59 -12.5q38 -2 77 8.5t69 33t46.5 55t9.5 74.5q-6 37 -33.5 57t-63.5 28.5t-72.5 7t-58.5 -7.5q-16 0 -27.5 8.5t-18.5 20.5t-8.5 25t2.5 21z" />
    <glyph glyph-name="S.1" unicode="&#xe003;" horiz-adv-x="538" 
d="M163 -159l46 47l47 -47l-47 -46zM257 -159l46 47l47 -47l-47 -46zM9 115q1 32 10 65.5t27 65.5l52 -29q-16 -29 -22 -57.5t-7 -54.5q-1 -32 11.5 -57.5t33.5 -42.5t50 -25.5t61 -5.5q42 3 83 19.5t73 40.5t51 54t16 60q-2 8 -5 10q-5 5 -19 9q-17 4 -39 5t-49 1
q-25 0 -52.5 1t-50.5 6q-12 3 -23.5 8t-22.5 13q-24 19 -28 47q-6 30 5.5 65t28.5 67q18 35 43 68t51 61q26 26 55 46.5t58 22.5q17 2 32.5 -4.5t26.5 -22.5q10 -14 16.5 -45.5t4.5 -63.5l-60 -1q2 32 -3 52.5t-7 23.5l-1.5 1.5t-3.5 0.5q-11 -2 -30 -14t-45 -38
q-24 -25 -46 -55t-38 -60q-17 -32 -24 -56t-5 -37q1 -5 7 -11q3 -2 8.5 -4.5t14.5 -4.5q17 -5 40 -5.5t50 -0.5q24 0 51 -1t50 -7q12 -3 23.5 -8t21.5 -14q22 -21 25 -49q4 -45 -18.5 -86.5t-62 -74.5t-90 -54t-101.5 -25t-93.5 9t-72.5 39.5t-46.5 65.5t-14.5 87z" />
    <glyph glyph-name="S.2" unicode="&#xe004;" horiz-adv-x="538" 
d="M163 -159l46 47l47 -47l-47 -46zM257 -159l46 47l47 -47l-47 -46zM67 -9q-26 24 -41 57t-15 75t16 89l57 -19q-13 -39 -13 -70t10.5 -52.5t26.5 -35.5q26 -24 60.5 -35.5t63.5 -12.5q45 -2 87.5 12t74.5 39q31 25 46.5 57t8.5 67q-8 40 -52.5 64t-108.5 24
q-29 0 -59 -5.5t-61 -16.5q-15 -5 -28 3.5t-13 24.5q0 33 12 68q13 40 40.5 84.5t64 81t80 59t88.5 18.5q35 -4 61 -25.5t40 -62.5l-57 -19q-9 26 -23 36.5t-28 12.5q-33 3 -65.5 -18.5t-61 -53.5t-50 -67.5t-31.5 -61.5l-3 -11l13 3q39 9 78 9q40 0 77.5 -9t68 -26.5
t51 -43.5t26.5 -59q3 -15 3 -30q0 -46 -22.5 -84t-57.5 -66q-40 -32 -92.5 -49t-108.5 -15q-36 2 -81.5 16t-81.5 48z" />
    <glyph glyph-name="S.salt" unicode="&#xe492;" horiz-adv-x="525" 
d="M460 395h-60v127q-25 -21 -53.5 -50t-55 -60t-47.5 -61.5t-30 -53.5q20 4 38.5 6t35.5 2q45 0 79 -12t58 -31.5t38 -44.5t19 -51q3 -18 3 -36q0 -51 -24 -90.5t-62 -66t-85.5 -39t-93.5 -10.5q-34 2 -77 16t-76 48q-22 22 -35 53.5t-13 72.5q0 43 16 91l52 -18
q-13 -40 -13 -73q0 -30 9.5 -51t23.5 -35q24 -23 57 -33.5t59 -12.5q38 -2 77 8.5t69 33t46.5 55t9.5 74.5q-6 38 -44 65.5t-99 27.5q-40 0 -82 -13q-16 0 -27 5.5t-17.5 14.5t-9 19.5t-1.5 20.5q7 25 24.5 54t40.5 59.5t49 60t51 54t47 43t36 26.5q9 3 21 1.5t22.5 -6.5
t17 -14t6.5 -22v-154zM163 -159l46 47l47 -47l-47 -46zM257 -159l46 47l47 -47l-47 -46z" />
    <glyph glyph-name="T" unicode="T" horiz-adv-x="450" 
d="M290 -56v543q-31 -9 -62 -15t-61 -7q-44 -2 -85 10.5t-74 48.5l45 40q20 -23 48 -32t63 -7q36 2 76.5 12t84.5 24l85.5 28.5t83.5 22.5q16 3 32 5t32 2q23 0 45 -5.5t42 -19.5l-34 -49q-18 14 -53 14q-22 0 -52 -6q-37 -8 -77.5 -21.5t-85.5 -27.5l-22 -8l29 -14v-538
h-60z" />
    <glyph glyph-name="T.1" unicode="&#xe014;" horiz-adv-x="450" 
d="M287 0v488l44 26q-4 0 -7 0.5t-6 0.5q-23 2 -57 6t-70 4q-46 0 -85.5 -13t-56.5 -53l-47 29q13 27 32 44t42 26.5t49.5 13t54.5 3.5q34 0 69 -2.5t69 -4.5q9 0 18 -0.5t17 -0.5q101 0 153 29.5t69 100.5l54 -13q-14 -88 -87 -130t-195 -40v-514h-60z" />
    <glyph glyph-name="U" unicode="U" horiz-adv-x="740" 
d="M687 558v-533q0 -20 5.5 -33t12.5 -21q15 -15 37 -15v-60q-44 0 -78.5 31.5t-36.5 91.5q-43 -34 -101 -34q-33 0 -59.5 12.5t-45.5 33.5t-29.5 49.5t-10.5 60.5v237q0 45 -15.5 75.5t-40 48t-54.5 24t-59 5.5q-28 -2 -54 -12.5t-46 -30t-31.5 -48t-9.5 -65.5
q1 -27 12.5 -50t28.5 -39.5t39 -26t46 -9.5q26 0 47 10l17 -55q-17 -8 -33.5 -11t-33.5 -3q-35 0 -67 14t-57.5 38t-41 57.5t-17.5 72.5q-2 52 14 91.5t44.5 66.5t65 41.5t74.5 17.5q47 3 89 -8.5t74 -38.5t50.5 -68.5t18.5 -96.5v-237q0 -43 24 -69.5t61 -26.5q43 0 72 28
t29 75v410h60zM539 -60l47 -47l-47 -46l-46 46z" />
    <glyph glyph-name="V" unicode="V" horiz-adv-x="755" 
d="M383 98v280q0 45 -15.5 75.5t-40 48t-54.5 24t-59 5.5q-28 -2 -54 -12.5t-46 -30t-31.5 -48t-9.5 -65.5q1 -27 12.5 -50t28.5 -39.5t39 -26t46 -9.5q26 0 47 10l17 -55q-17 -8 -33.5 -11t-33.5 -3q-35 0 -67 14t-57.5 38t-41 57.5t-17.5 72.5q-2 52 14 91.5t44.5 66.5
t65 41.5t74.5 17.5q47 3 89 -8.5t74 -38.5t50.5 -68.5t18.5 -96.5v-253l89 -96l97 96v345q0 31 9.5 55.5t25.5 40.5t37 24.5t43 8.5v-60q-22 0 -37 -15q-7 -8 -12.5 -21t-5.5 -33v-371l-157 -157z" />
    <glyph glyph-name="W" unicode="W" horiz-adv-x="816" 
d="M396 378q0 45 -15.5 75.5t-40 48t-54.5 24t-59 5.5q-28 -2 -54 -12.5t-46 -30t-31.5 -48t-9.5 -65.5q1 -27 12.5 -50t28.5 -39.5t39 -26t46 -9.5q26 0 47 10l17 -55q-17 -8 -33.5 -11t-33.5 -3q-35 0 -67 14t-57.5 38t-41 57.5t-17.5 72.5q-2 52 14 91.5t44.5 66.5
t65 41.5t74.5 17.5q47 3 89 -8.5t74 -38.5t50.5 -68.5t18.5 -96.5v-301q0 -20 12 -36.5t36 -16.5q20 0 35 14t15 36v381h60v-378q0 -19 12 -36.5t35 -17.5q22 0 36 14t14 37v396q0 31 9.5 55.5t25.5 40.5t37 24.5t43 8.5v-60q-22 0 -37 -15q-7 -8 -12.5 -21t-5.5 -33v-396
q0 -24 -9 -44.5t-24.5 -35t-35.5 -23t-41 -8.5t-42.5 7.5t-35.5 23.5l-1 1q-14 -14 -36 -22t-42 -9q-17 0 -36 6t-35 19.5t-26.5 35.5t-10.5 52v301zM491 585l46 47l45 -46l45 46l47 -47l-47 -46l-45 44l-45 -44zM536 676l46 47l47 -47l-47 -46z" />
    <glyph glyph-name="X" unicode="X" horiz-adv-x="602" 
d="M9 -24q39 -16 73 -16q31 0 58 12t50 33q14 12 30 31t32 42.5t31.5 49.5t30.5 52q-23 42 -40 83t-31 74q-25 60 -48 93.5t-47 49.5q-15 9 -31 13t-33 4q-18 0 -41 -5l-14 58q14 3 28 5t28 2q24 0 48 -6t47 -20q36 -23 64 -66.5t56 -107.5q10 -23 22 -51.5t26 -60.5l2 3
q31 61 59.5 120.5t60.5 105.5q17 23 35 43t39 34q31 20 67 20q17 0 32 -4l-15 -58q-27 7 -52 -9q-28 -17 -56 -60q-29 -43 -58 -101.5t-59 -117.5q-5 -9 -10 -19t-11 -21q15 -25 31.5 -47t35.5 -38.5t40 -26t45 -9.5h89v-60h-89q-60 0 -105.5 35t-80.5 86q-27 -47 -58 -91.5
t-60 -70.5q-32 -27 -68.5 -42.5t-79.5 -15.5q-45 0 -95 19zM367 -20l47 -47l-47 -46l-46 46z" />
    <glyph glyph-name="Y" unicode="Y" horiz-adv-x="737" 
d="M381 378q0 45 -15.5 75.5t-40 48t-54.5 24t-59 5.5q-28 -2 -54 -12.5t-46 -30t-31.5 -48t-9.5 -65.5q1 -27 12.5 -50t28.5 -39.5t39 -26t46 -9.5q26 0 47 10l17 -55q-17 -8 -33.5 -11t-33.5 -3q-35 0 -67 14t-57.5 38t-41 57.5t-17.5 72.5q-2 52 14 91.5t44.5 66.5
t65 41.5t74.5 17.5q47 3 89 -8.5t74 -38.5t50.5 -68.5t18.5 -96.5v-237q0 -43 24 -69.5t61 -26.5q42 0 70.5 26.5t30.5 71.5v415h60v-576q0 -56 -18.5 -97t-50.5 -68t-74 -38.5t-89 -8.5l3 59q29 -2 59 5t54.5 24.5t40 48t15.5 75.5v37q-43 -34 -101 -34q-33 0 -59.5 12.5
t-45.5 33.5t-29.5 49.5t-10.5 60.5v237z" />
    <glyph glyph-name="Z" unicode="Z" horiz-adv-x="585" 
d="M134 76q34 -5 77 -17t85 -23q35 -10 69 -16t64 -4q29 2 53.5 14t44.5 40l48 -36q-29 -39 -65.5 -57t-76.5 -21q-38 -2 -77.5 4.5t-76.5 17.5q-17 5 -37.5 11t-41 11t-39.5 9.5t-34 6.5q-30 4 -49 -0.5t-33 -17.5l-42 42q14 14 28 21q21 52 63.5 107.5t96.5 107.5t115 98
t118 81q-27 8 -56 19t-61 22q-35 13 -68 22t-63 10q-29 0 -54 -10t-48 -36l-45 40q32 37 70 51.5t78 14.5q38 -2 77 -12t75 -23q34 -13 67.5 -25.5t63.5 -19.5q14 -3 26.5 -4t23.5 1l34 16l22 -53q-11 -10 -15.5 -12.5t-15.5 -5.5q-44 -21 -103 -60t-119.5 -88.5
t-114.5 -107t-87 -117.5h11t12 -1zM382 626l46 47l47 -47l-47 -46z" />
    <glyph glyph-name="a" unicode="a" horiz-adv-x="296" 
d="M15 194q0 53 24.5 89.5t55.5 61.5q29 24 60 48t45 49l44 -31q-12 -22 -29 -40.5t-37 -34.5h47v-218q0 -22 10.5 -40t33.5 -18h78v-60h-78q-21 0 -40 7t-33 23q-30 -32 -79 -32q-20 0 -38 7.5t-32.5 21.5t-23 33.5t-8.5 44.5v89zM165 324l-30 -24q-27 -24 -43.5 -48.5
t-16.5 -57.5v-89q0 -23 13.5 -35t28.5 -12q26 0 36.5 16.5t11.5 37.5v212z" />
    <glyph glyph-name="a.1" unicode="&#xe006;" horiz-adv-x="605" 
d="M15 194q0 53 24.5 89.5t55.5 61.5q29 24 60 48t45 49l44 -31q-12 -22 -29 -40.5t-37 -34.5h47v-200q0 -45 15.5 -75.5t40 -48t54.5 -24.5t59 -5q28 1 54 12t46 30.5t31.5 48t9.5 65.5q-2 27 -13 50t-28 39.5t-39 26t-46 9.5q-26 0 -47 -10l-17 55q17 8 33.5 11t33.5 3
q35 0 67 -14t57.5 -38t41 -57.5t17.5 -72.5q2 -52 -14 -91.5t-44.5 -66.5t-65 -41.5t-74.5 -17.5q-66 -5 -122 20.5t-85 79.5q-13 -12 -31 -19t-42 -7q-20 0 -38 7.5t-32.5 21.5t-23 33.5t-8.5 44.5v89zM165 324l-30 -24q-27 -24 -43.5 -48.5t-16.5 -57.5v-89
q0 -23 13.5 -35t28.5 -12q26 0 36.5 16.5t11.5 37.5v212z" />
    <glyph glyph-name="a.end" unicode="&#xe2a0;" horiz-adv-x="375" 
d="M225 361v-243q0 -22 10.5 -40t33.5 -18h141l-40 -60h-101q-21 0 -40 7t-33 23q-30 -32 -79 -32q-20 0 -38 7.5t-32.5 21.5t-23 33.5t-8.5 44.5v89q0 37 13.5 67t36 55t51 46t58.5 39zM165 324q-15 -11 -31 -24.5t-29 -30t-21.5 -35.5t-8.5 -40v-89q0 -23 13.5 -35
t28.5 -12q26 0 36.5 16.5t11.5 37.5v212zM58 458l46 47l47 -47l-47 -46zM150 458l46 47l47 -47l-47 -46z" />
    <glyph glyph-name="a.salt" unicode="&#xe4c0;" horiz-adv-x="296" 
d="M225 347v-229q0 -22 10.5 -40t33.5 -18h78v-60h-78q-21 0 -40 7t-33 23q-30 -32 -79 -32q-20 0 -38 7.5t-32.5 21.5t-23 33.5t-8.5 44.5v89q0 27 8 47.5t20 36t26 28t26 22.5q23 19 42.5 31.5t28.5 21.5zM64 458l46 47l47 -47l-47 -46zM156 458l46 47l47 -47l-47 -46z
M165 307q-17 -11 -33 -24t-29 -27.5t-20.5 -30t-7.5 -31.5v-89q0 -23 13.5 -35t28.5 -12q24 0 35 15t13 35v199z" />
    <glyph glyph-name="a.swsh" unicode="&#xe002;" horiz-adv-x="279" 
d="M15 194q0 53 24.5 89.5t55.5 61.5q29 24 60 48t45 49l44 -31q-12 -22 -29 -40.5t-37 -34.5h47v-301q0 -35 7 -57.5t22 -36t38 -18.5t56 -5h515q30 0 63 -6t68 -37l-41 -41q-21 20 -41.5 24t-48.5 4h-515q-85 0 -130 35t-52 111q-20 -10 -49 -10q-20 0 -38 7.5t-32.5 21.5
t-23 33.5t-8.5 44.5v89zM135 300q-27 -24 -43.5 -48.5t-16.5 -57.5v-89q0 -23 13.5 -35t28.5 -12q24 0 35 15t13 35v216z" />
    <glyph glyph-name="a_a" unicode="&#xe01c;" horiz-adv-x="592" 
d="M311 194q0 53 24.5 89.5t55.5 61.5q29 24 60 48t45 49l44 -31q-12 -22 -29 -40.5t-37 -34.5h47v-218q0 -22 10.5 -40t33.5 -18h78v-60h-78q-21 0 -40 7t-33 23q-30 -32 -79 -32q-18 0 -35 6t-31 18v-22h-78q-21 0 -40 7t-33 23q-30 -32 -79 -32q-20 0 -38 7.5t-32.5 21.5
t-23 33.5t-8.5 44.5v89q0 37 13.5 67t36 55t51 46t58.5 39l51 -40v-243q0 -22 10.5 -40t33.5 -18h50q-8 21 -8 45v89zM165 324q-15 -11 -31 -24.5t-29 -30t-21.5 -35.5t-8.5 -40v-89q0 -23 13.5 -35t28.5 -12q26 0 36.5 16.5t11.5 37.5v212zM461 324l-30 -24
q-27 -24 -43.5 -48.5t-16.5 -57.5v-89q0 -23 13.5 -35t28.5 -12q26 0 36.5 16.5t11.5 37.5v212zM58 458l46 47l46 -47l46 47l47 -47l-47 -46l-46 45l-46 -45z" />
    <glyph glyph-name="ampersand" unicode="&#x26;" horiz-adv-x="614" 
d="M414 27l-18 -13q-26 -19 -54.5 -29t-54.5 -12q-41 -3 -74 7.5t-56.5 30.5t-36 48t-12.5 61q0 20 4 36q6 27 23 53.5t37 49.5q11 12 22.5 24t22.5 25l17 17l-2 4q-21 48 -34 92t-11 78q2 47 28.5 74t61.5 33q34 5 67.5 -10t50.5 -53q11 -23 11 -51q0 -19 -5.5 -37
t-13.5 -35q-14 -28 -35.5 -54.5t-44.5 -50.5l-2 -2l16 -31q10 -21 21 -38q33 -59 66 -107l11 -16l1 2q13 20 20.5 43.5t7.5 52.5q0 36 -13 75l57 19q16 -48 16 -93q0 -38 -10 -70t-27 -59l-15 -21l6 -7q13 -16 24.5 -29t22.5 -22l-40 -45q-12 11 -25.5 25.5t-27.5 31.5z
M283 33q17 1 38 8.5t41 21.5l16 12l-20 28q-18 26 -35 54t-34 57q-5 10 -10 19t-10 19l-8 15l-1 -1q-11 -12 -21.5 -23.5t-20.5 -22.5q-41 -48 -47 -77q-5 -23 -0.5 -44t19 -36.5t37.5 -23.5t56 -6zM333 447q21 42 7 72q-7 16 -21.5 23t-31.5 5q-15 -2 -27 -14t-13 -37
q-1 -22 7.5 -54t23.5 -70l7 7q15 18 27.5 34.5t20.5 33.5z" />
    <glyph glyph-name="asciicircum" unicode="^" horiz-adv-x="833" 
d="M363 527l-87 93l-92 -87l-41 43l113 109q9 8 22 8t21 -10l108 -115z" />
    <glyph glyph-name="asciitilde" unicode="~" horiz-adv-x="389" 
d="M161 213q-13 8 -26.5 12t-24.5 2q-5 -1 -9.5 -3t-8.5 -4q-9 -7 -14 -23l-57 19q11 33 33 50t48 20q25 3 48.5 -4t42.5 -19q11 -7 20 -9.5t15 -2.5q12 0 23 7q11 5 18 16q8 8 8 11l54 -27l-1 -1q-2 -3 -5.5 -9t-9.5 -13q-5 -7 -13 -14.5t-19 -13.5q-11 -7 -24.5 -11.5
t-30.5 -4.5q-33 0 -67 22z" />
    <glyph glyph-name="asterisk" unicode="*" horiz-adv-x="833" 
d="M532 405v58l-59 -32l-21 39l58 31l-64 35l22 39l64 -35v64h45v-66l69 37l21 -39l-64 -35l59 -31l-22 -39l-63 34v-60h-45z" />
    <glyph glyph-name="at" unicode="@" horiz-adv-x="745" 
d="M44 240q4 58 27 115t64.5 102.5t100 74.5t135.5 31q75 1 131.5 -20t96 -57.5t61.5 -85t27 -101.5q1 -9 1.5 -17.5t0.5 -17.5q0 -48 -13.5 -92.5t-37.5 -80.5q-29 -43 -73 -69.5t-99 -24.5q-58 3 -85 50q-26 -20 -63 -20q-20 0 -38 7.5t-31.5 21.5t-22 34t-8.5 44v69
q0 26 8.5 47.5t22.5 38.5q13 17 29 31t31 27q16 14 30 27.5t26 29t20 33.5t12 40l59 -10q-8 -45 -28.5 -77t-44.5 -56h41v-218q0 -18 4.5 -29t9.5 -17q12 -12 31 -13q35 -1 65.5 17t53.5 50q19 28 30 63.5t11 75.5q0 8 -0.5 15t-1.5 15q-4 42 -21 80.5t-48 67.5t-77.5 46
t-108.5 16t-110.5 -25t-82 -61.5t-52.5 -85t-23 -96.5q-1 -8 -1 -16.5v-16.5q0 -59 17.5 -107t49.5 -82t77 -52.5t101 -18.5q35 0 69 7l12 -59q-21 -4 -41 -6t-40 -2q-69 0 -125 23.5t-96 66t-62 101.5t-22 130v18t1 19zM348 302q-16 -14 -29 -26t-22 -24q-9 -11 -14 -23
t-5 -26v-69q0 -25 13 -36t27 -11q22 0 32 13q5 6 9 16.5t4 27.5h1v172z" />
    <glyph glyph-name="b" unicode="b" horiz-adv-x="296" 
d="M126 -2q-26 0 -46.5 9.5t-35 25.5t-22 37t-7.5 45v443h60v-154l2 -3q19 -20 42 -36t43 -33q26 -21 47.5 -49.5t21.5 -73.5v-93q0 -33 -10 -56h122v-60h-197q-5 -1 -10 -1.5t-10 -0.5zM171 200q-2 31 -14 50t-32 36l-50 37v-207q0 -26 13.5 -42t37.5 -16q17 0 31 12t14 35
v95z" />
    <glyph glyph-name="b.end" unicode="&#xe2a1;" horiz-adv-x="301" 
d="M126 -2q-26 0 -46.5 9.5t-35 25.5t-22 37t-7.5 45v443h60v-154l2 -3q19 -20 42 -36t43 -33q26 -21 47.5 -49.5t21.5 -73.5v-93q0 -51 -25 -83.5t-80 -34.5zM171 200q-2 31 -14 50t-32 36l-50 37v-207q0 -26 13.5 -42t37.5 -16q17 0 31 12t14 35v95z" />
    <glyph glyph-name="backslash" unicode="\" horiz-adv-x="597" 
d="M-13 707l53 28l415 -779l-53 -28z" />
    <glyph glyph-name="bar" unicode="|" 
d="M334 -51q0 22 15.5 34.5t30.5 23.5q-6 0 -17.5 1t-22.5 3t-21 6.5t-13 10.5q-2 4 -6.5 9.5t-9 11.5t-8 11.5t-3.5 9.5q0 6 4 10.5t9.5 8t11.5 7t10 7.5q-15 -4 -33 -4q-22 0 -45 11.5t-41.5 30t-30 41t-11.5 44.5q0 48 31 90t77 73t99 49t97 18q20 0 33.5 -2.5t24.5 -8.5
t20 -16t20 -25q16 26 31.5 54.5t23.5 57.5q-2 1 -2 4v5q0 7 4 13t12 6q19 0 31.5 -5t21.5 -13t17 -18.5t19 -21.5q10 17 20.5 33.5t17.5 35.5q2 4 6.5 6.5t8.5 2.5q11 0 28 -10.5t34 -24.5t31 -28.5t19 -22.5q2 -2 5.5 -8.5t5.5 -7.5q1 5 6 16.5t10 24t9 23t3 14.5l-2 3v3
q0 8 5.5 13.5t13.5 5.5q12 0 27.5 -10t30 -24.5t24.5 -30t12 -26.5q-2 -11 -7 -18.5t-10 -16.5q2 -2 4.5 -4t4.5 -5q3 6 6.5 10t11.5 4q14 0 30.5 -8.5t21.5 -21.5l19.5 19.5t20.5 17.5h1q2 4 4.5 10.5t6 12.5t8 10.5t10.5 4.5q23 0 34.5 -8t25.5 -25q10 13 25 17
q6 -1 12 -1.5t12 -2.5q3 5 11.5 11.5t13.5 6.5q26 0 36 -11.5t21 -31.5q7 7 11.5 16t9.5 16.5t12.5 11.5t21.5 1q-7 5 -10 13t-3 16q0 6 3 18.5t8 24.5t11 21.5t13 9.5q19 0 32.5 -16.5t22.5 -30.5q3 17 20 17q21 0 35.5 -16.5t25.5 -31.5q8 17 17 42t9 45q0 6 -2.5 10.5
t-2.5 10.5q0 8 5 13t13 5q12 0 29 -9.5t33 -23.5t27.5 -29t11.5 -25q0 -8 -4.5 -18.5t-8.5 -18.5q15 -6 26.5 -22t22.5 -27q4 4 10.5 11.5t14 15.5t15 14t12.5 6q3 0 10.5 -2.5t16 -6t16 -7t10.5 -4.5q7 7 18 7q6 0 13.5 -3.5t14 -9t11 -12.5t3.5 -14q3 3 9.5 11t14 16
t15 14.5t12.5 6.5q7 0 21.5 -4.5t19.5 -9.5q4 9 9.5 21.5t10 26.5t8 27t3.5 23q0 5 -2 7.5t-2 7.5q0 8 5 13.5t12 5.5q15 0 32.5 -9.5t32.5 -24t25 -31t10 -30.5q0 -8 -18.5 -39t-40.5 -73.5t-40.5 -90.5t-18.5 -90q0 -14 3 -23t6 -15t6 -10.5t3 -7.5q0 -7 -5 -13t-12 -6
q-11 0 -23 6t-24 15t-22.5 19t-17.5 18q-8 -8 -18 -17t-23 -7q7 -3 18.5 -5.5t23 -6t22.5 -7t19 -7.5l37 -46l1 -8l-3 -9q-7 -9 -17 -9t-20 -1l-3 1q-20 0 -40 -5t-40 -5q-66 0 -132.5 5.5t-132.5 5.5q-33 0 -79.5 -1t-95.5 -3t-94.5 -6t-75.5 -11h1q-4 -19 -27 -47t-53 -54
t-61 -44.5t-52 -18.5q-18 0 -39.5 8.5t-41 23t-32.5 32.5t-13 37q0 14 4 23q-86 -19 -171.5 -36.5t-169.5 -46.5q-29 -11 -61.5 -16.5t-64.5 -10.5q-10 -11 -22 -15t-25 -6t-26.5 -4t-25.5 -8q-4 -5 -7.5 -8.5t-10.5 -3.5q-8 0 -17 7t-16.5 17t-13 21t-5.5 18zM1158 329
q-11 -21 -23 -48.5t-12 -51.5q0 -8 6 -13.5t14.5 -9.5t17.5 -5.5l15 -2.5q18 9 36 29t33.5 44t28.5 49t21 43q13 0 23 4t18.5 11t16 15.5t16.5 16.5q-32 -65 -70 -127t-79 -122q-161 -16 -322 -44t-318 -67v-1q0 -21 12 -37q57 21 123.5 38.5t135.5 31.5t137 25.5t129 20.5
q-15 -5 -37.5 -15.5t-43.5 -25t-36 -32t-15 -37.5q0 -12 8.5 -20.5t21 -14.5t25.5 -8.5t22 -2.5q19 0 45 16.5t51.5 39.5t46.5 47.5t30 41.5q-14 0 -27 -2.5t-26 -5.5q-13 -14 -31.5 -32t-40.5 -34.5t-44.5 -27.5t-43.5 -11q-9 0 -13 2q-2 2 -2 8q0 10 6.5 19t13.5 15
q24 24 57 40.5t69.5 27.5t73.5 16.5t69 8.5q76 6 151 11t151 5q66 0 131 -3t131 -8l-3 7l-96 11l95 -4v6l-59 6h59l1 5l-96 6h97l1 5q-42 2 -82.5 3.5t-81.5 1.5q-109 0 -215.5 -7.5t-213.5 -19.5q5 9 19 34t31 57t36 67t35 64t27.5 47.5t14.5 19.5q-6 7 -14 11.5t-17 4.5
l-8 -1q-4 -8 -15 -23.5t-24.5 -31t-27 -27.5t-22.5 -12q8 17 15.5 39t7.5 40q0 5 -12.5 8.5t-15.5 4.5q-12 -7 -21 -21q-13 7 -30 7q-11 -8 -23.5 -24t-24.5 -34t-22 -35.5t-16 -29.5q-8 9 -8 25q0 7 4 23t10 32.5t13.5 30t15.5 15.5q-5 8 -14.5 11t-18.5 2l-16 -30
q-32 -26 -60.5 -57t-54.5 -64q12 20 23 40t24 39q-10 25 -39 28q6 -5 6 -13q0 -17 -12.5 -40.5t-28.5 -49t-29.5 -51t-14.5 -45.5q4 -11 14.5 -16t21.5 -7q-2 4 -2 8v8q0 24 15 50.5t37 52t45.5 48t40.5 36.5q-5 -9 -9.5 -19.5t-4.5 -21.5q0 -17 12 -28t29 -9zM1992 220
q-6 4 -9.5 11t-5.5 15.5t-2.5 16.5t-0.5 14q0 36 11.5 74.5t29 77t38.5 74t39 64.5q-3 21 -16.5 30.5t-33.5 12.5q3 -4 4 -8.5t1 -9.5q0 -13 -4.5 -29.5t-11 -33.5t-13.5 -33t-12 -27q-11 8 -23 13.5t-26 8.5q-19 -19 -41.5 -50.5t-46 -64t-46.5 -59t-42 -35.5q0 7 6.5 22
t16 34t21.5 39t24 38t22 30.5t16 16.5q-5 9 -10.5 13.5t-15.5 7.5l-11 -11l-57 23q-28 -27 -51 -57t-45 -61t-46 -60.5t-54 -54.5q1 16 14 45t31 60t37 58t31 38q-4 13 -12 24.5t-22 13.5q-51 -44 -95.5 -99t-82.5 -111q2 18 23 56t47.5 82.5t51.5 87.5t34 72
q-8 15 -21 22.5t-29 10.5q5 -8 5 -21q0 -21 -10.5 -51.5t-28 -65.5t-40 -71t-46.5 -67t-47 -53.5t-41 -31.5q1 21 12 45.5t25.5 50t30.5 48.5t28 41q-7 10 -18 12t-22 1v-3q0 -11 -12.5 -38.5t-29 -58.5t-33 -58t-24.5 -37q2 -17 13.5 -24.5t27.5 -9.5q26 20 49 46t44 51
q-11 -18 -21.5 -36t-21.5 -35q6 -14 16.5 -20.5t23.5 -11.5v5q0 11 11.5 31.5t30 45.5t40.5 52.5t43.5 52t39.5 43.5t28 29q-7 -17 -26.5 -50t-40.5 -67.5t-37.5 -63t-17.5 -36.5q5 -11 17 -18t23 -11q17 14 32.5 30.5t30.5 33.5l-11 -24q5 -11 14 -19t22 -8q16 9 32 26.5
t32 37.5t30.5 40t26.5 35q-11 -25 -27 -47.5t-28 -46.5q0 -17 12 -26t27 -11q16 12 29.5 29t25.5 33l-11 -30q1 -11 12 -23.5t23 -12.5q9 0 23.5 16.5t28.5 37.5t26 41.5t17 28.5l11 19l1 1q0 -2 -5.5 -17t-12.5 -36t-12.5 -43.5t-5.5 -39.5q0 -10 5.5 -17t13.5 -12.5
t17.5 -8.5t17.5 -4zM251 154q25 0 56 14.5t57 37.5t44 50.5t18 53.5q0 16 -7.5 30t-19.5 24q1 -4 1 -7.5v-6.5q0 -26 -14 -58t-36 -60t-50 -47t-55 -19q-20 0 -32 14t-12 34q0 35 28.5 72.5t69.5 68.5t85.5 51t77.5 20q23 0 40.5 -9t17.5 -35q0 -22 -11 -51.5t-29 -61
t-41.5 -63.5t-48 -59.5t-48.5 -48t-44 -28.5q13 -3 25.5 -5.5t26.5 -2.5q6 0 16 2t14 7l219 327q-26 -66 -60 -130.5t-69 -126.5q0 -5 5.5 -11t13 -11t14.5 -8.5t12 -3.5h2q3 14 18.5 43.5t38 66t49.5 76.5t52 76.5t46.5 65.5t32.5 43q-9 -16 -24 -41.5t-33 -56t-36.5 -63
t-34 -62.5t-25 -55t-9.5 -39q0 -18 10.5 -33.5t27.5 -22.5q-4 12 -4 29q0 30 14 68.5t34.5 78.5t44.5 78.5t44.5 70t34.5 53t14 26.5q0 6 -5 11.5t-12 10.5t-14.5 8.5t-12.5 5.5q-1 -7 -17 -33t-40 -62.5t-52.5 -78t-55 -79t-46.5 -66.5t-27 -39q23 78 66 153.5t85 145.5
q0 10 -5.5 17t-14 11.5t-18 7t-17.5 3.5q3 -1 3 -7q0 -13 -13.5 -42t-31.5 -60.5t-35.5 -60t-25.5 -40.5q5 14 8.5 29t3.5 31q0 38 -21.5 50.5t-56.5 12.5q-38 0 -87 -16.5t-93 -45t-74.5 -67t-30.5 -82.5q0 -35 23.5 -54t55.5 -19zM942 155q15 0 33 8.5t29 18.5
q-8 -3 -17 -3q-17 0 -33.5 9.5t-31 24t-26.5 30.5l-21 28q35 30 71.5 57.5t71.5 59.5v4q0 10 -8.5 22.5t-19.5 12.5q1 -2 1 -5q0 -9 -17 -28.5t-38.5 -41t-42.5 -40t-29 -26.5l-4 7q27 54 55.5 110t63.5 106q-2 14 -17.5 24.5t-27.5 13.5q2 -1 2 -6q0 -9 -5.5 -26.5
t-14.5 -39.5t-20 -45.5t-21.5 -44.5t-20 -38t-14.5 -24q-3 2 -9 2t-12.5 -3t-8.5 -9q12 -2 18 -8q-9 -13 -24 -31.5t-31.5 -37t-33.5 -33.5t-32 -22q2 23 15.5 50t31.5 54t36.5 51.5t32.5 44.5q-15 22 -41 22v-3q0 -7 -6.5 -23.5t-17 -36.5t-23.5 -42.5t-25.5 -42.5
t-23 -36.5t-16.5 -23.5q1 -18 12 -27t28 -11q29 24 54.5 51.5t48.5 56.5q-2 -4 -8 -14.5t-13 -22.5t-12 -22t-5 -13q0 -11 13.5 -19.5t20.5 -16.5v3q0 28 14.5 51.5t32.5 42.5q5 -10 14.5 -26.5t21.5 -32.5t25 -28t25 -12zM1279 367q-3 -6 -11 -20.5t-18.5 -32t-23 -36
t-24.5 -34t-23 -25.5t-18 -10q-3 0 -4 1q-1 2 -1 7q0 17 12 46t29 59.5t35.5 57t30.5 38.5q-1 -5 -1.5 -9.5t-0.5 -9.5q0 -13 3.5 -19.5t14.5 -12.5zM1143 171q-5 6 -11.5 13t-12.5 14.5t-10.5 15t-4.5 15.5q0 21 9.5 44.5t17.5 42.5h-1q-11 -10 -26.5 -26t-29 -34t-23 -37
t-9.5 -35q0 -5 1.5 -10t0.5 -10l-1 -2q4 -2 5 -4zM1843 463q-38 -48 -75.5 -96t-84.5 -89q5 24 19.5 51t33 53.5t39 50.5t36.5 42zM2001 461q-9 -14 -27.5 -42.5t-39.5 -58.5t-41.5 -55t-33.5 -31q3 19 16 48t31 58t37.5 54.5t34.5 38.5zM380 331q-12 -8 -33.5 -26t-42 -39
t-35.5 -42.5t-15 -36.5l1 -1q15 0 35 18t38.5 42t33 48t18.5 37zM461 6q-1 -5 1.5 -10t5.5 -10q29 6 57.5 10.5t57.5 11.5q-4 9 -7.5 18.5t-3.5 19.5l-7 -1q1 -8 3.5 -15.5t5.5 -15.5q-7 5 -11 13t-6 16q-24 -8 -48.5 -16.5t-47.5 -20.5zM450 21q5 4 16 8.5t23.5 9.5t24 9
t18.5 6q-5 2 -12.5 8t-15 13.5l-14.5 14.5t-11 12q-13 -19 -26.5 -42t-29.5 -39q8 2 13.5 1.5t13.5 -1.5zM492 371q-16 0 -31.5 -4t-30.5 -10q11 -14 25 -30.5t18 -33.5q8 14 17.5 37.5t9.5 40.5h-8zM352 -51q0 -4 2 -8q7 12 22 16t31.5 6t31.5 5.5t23 14.5h-1
q-12 -5 -29 -8.5t-30 -4.5q15 2 29 6t28 9l-2 3q-19 -2 -39 -7t-38 -11q4 3 14.5 6t21.5 6t22 5.5t17 3.5l-2 4q-14 -2 -32 -5t-31 -11q12 10 29.5 14.5t32.5 6.5v2q-5 1 -15 1t-24.5 -4t-28 -11t-23 -17t-9.5 -22zM1431 496q0 4 4 9.5t9.5 11t10 11.5t5.5 13q-9 24 -32 32
q-2 -14 -9 -27.5t-7 -27.5q0 -11 5.5 -15t13.5 -9v2zM811 430q10 -10 23 -10q4 0 9.5 5.5t9.5 13t7 15t3 11.5v2q-5 7 -11 13t-15 6h-6q0 -5 -1.5 -13.5t-4 -17t-6 -15.5t-8.5 -10zM1867 188q-1 -5 -1.5 -10.5t-0.5 -11.5q0 -11 3 -20l71 9v10zM1508 480q0 5 4 10t9 9.5
t9.5 10t4.5 11.5q-7 11 -13.5 15t-19.5 7q-2 -14 -9 -29.5t-7 -27.5q0 -7 8.5 -6.5t13.5 -0.5v1zM916 137q-9 11 -18.5 21.5t-17.5 21.5q-9 -10 -14.5 -25t-7.5 -28zM733 102q-13 3 -20.5 6.5t-12 8.5t-8 12.5t-9.5 16.5q-3 -11 -5.5 -22t-2.5 -23l1 -10q14 2 28.5 5t28.5 6
zM570 66q11 5 25 7.5t25 4.5q-7 10 -15.5 18.5t-15.5 19.5q-7 -12 -12.5 -24t-10.5 -24v-4q4 0 4 2zM812 118q-6 7 -11 11.5t-10 12.5l-37 -35q14 3 29 6t29 5zM1556 237q-5 -6 -9.5 -14t-7.5 -16q10 1 19 1.5t19 0.5zM1315 451q-5 -16 -11 -32t-14 -31q-1 3 -1 10
q0 13 6.5 30.5t19.5 22.5zM1793 210q-10 5 -16 10t-11 15q-11 -14 -24 -24zM1832 208q6 0 14 0.5t14 -1.5q1 0 2.5 -1t1.5 1q6 0 14 -3q-15 7 -26 24zM1377 196q-4 5 -6 10l-4 10q-3 -5 -6.5 -10.5t-5.5 -11.5zM1967 157v1l-21 6v-9zM1139 428h1l-1 -1v1z" />
    <glyph glyph-name="braceleft" unicode="{" horiz-adv-x="321" 
d="M215 -216q-48 26 -79.5 73t-30.5 120v63q0 26 -0.5 54t-1 53t-2 45t-3.5 29q-6 22 -15 30q-3 3 -7.5 5t-13.5 2q-15 0 -23 10t-8 21t7 20t22 9t24 13q6 7 10 18.5t8 27.5t6.5 50.5t4 72t3.5 71.5t4 51q8 56 35 90t65 51q26 12 53 16.5t53 4.5q10 0 19 -0.5t18 -1.5
l-3 -60q-8 1 -16 1h-16q-22 0 -42.5 -3t-39.5 -12q-24 -11 -42.5 -33t-23.5 -64q-2 -15 -4 -49t-4 -72t-4.5 -74t-6.5 -54t-11 -36t-18 -33l-4 -4l9 -9q11 -19 19 -47q3 -12 5 -35.5t2.5 -52t1 -58.5t0.5 -57v-55q0 -56 22 -88.5t55 -49.5q26 -14 56 -20t60 -6q20 0 40 3
l10 -60q-21 -3 -46 -3q-36 0 -74 7.5t-73 25.5z" />
    <glyph glyph-name="braceright" unicode="}" horiz-adv-x="451" 
d="M183 -216q-35 -18 -73 -25.5t-74 -7.5q-25 0 -46 3l10 60q19 -3 40 -3q30 0 60 6t56 20q33 17 55 49.5t22 88.5v55q0 27 0.5 57t1 58.5t2.5 52t5 35.5q8 28 19 47l9 9l-4 4q-11 15 -18 33t-11 36t-6.5 54t-4.5 74t-4 72t-4 49q-5 42 -23.5 64t-42.5 33q-19 9 -39.5 12
t-42.5 3h-16t-16 -1l-3 60q9 1 18 1.5t19 0.5q26 0 53 -4.5t53 -16.5q38 -17 65 -51t35 -90q2 -17 4 -51t3.5 -71.5t4 -72t6.5 -50.5t8 -27.5t10 -18.5q9 -13 24 -13t22 -9t7 -20t-8 -21t-23 -10q-9 0 -13.5 -2t-7.5 -5q-9 -8 -15 -30q-2 -9 -3.5 -29t-2.5 -45t-1 -53v-54
v-63q1 -73 -30.5 -120t-79.5 -73z" />
    <glyph glyph-name="bracketleft" unicode="[" horiz-adv-x="319" 
d="M40 674q0 12 9 21t21 9h145v-60h-115v-766h136v-60h-166q-12 0 -21 8.5t-9 21.5v826z" />
    <glyph glyph-name="bracketright" unicode="]" horiz-adv-x="354" 
d="M276 -152q0 -13 -9 -21.5t-21 -8.5h-166v60h136v766h-115v60h145q12 0 21 -9t9 -21v-826z" />
    <glyph glyph-name="c" unicode="c" horiz-adv-x="241" 
d="M15 244q0 49 28 83t76 34h71l20 -60h-91q-13 0 -21.5 -5.5t-13.5 -14t-7 -19t-2 -19.5v-125q0 -23 10 -40.5t34 -17.5h176v-60h-176q-26 0 -45 10t-32.5 26t-20 37t-6.5 44v127z" />
    <glyph glyph-name="c.end" unicode="&#xe2a2;" horiz-adv-x="289" 
d="M15 244q0 49 28 83t76 34h71l20 -60h-91q-13 0 -21.5 -5.5t-13.5 -14t-7 -19t-2 -19.5v-125q0 -23 10 -40.5t34 -17.5h216l-30 -60h-186q-26 0 -45 10t-32.5 26t-20 37t-6.5 44v127z" />
    <glyph glyph-name="colon" unicode=":" horiz-adv-x="258" 
d="M101 28l46 47l47 -47l-47 -46zM101 368l46 47l47 -47l-47 -46z" />
    <glyph glyph-name="comma" unicode="," horiz-adv-x="306" 
d="M120 23q5 1 9 5q6 4 10 16q11 24 8 58l60 4q2 -20 -1 -42.5t-11 -42.5q-8 -22 -25 -38q-9 -8 -20 -13t-25 -7z" />
    <glyph glyph-name="copyright" unicode="&#xa9;" 
d="M334 -51q0 22 15.5 34.5t30.5 23.5q-6 0 -17.5 1t-22.5 3t-21 6.5t-13 10.5q-2 4 -6.5 9.5t-9 11.5t-8 11.5t-3.5 9.5q0 6 4 10.5t9.5 8t11.5 7t10 7.5q-15 -4 -33 -4q-22 0 -45 11.5t-41.5 30t-30 41t-11.5 44.5q0 48 31 90t77 73t99 49t97 18q20 0 33.5 -2.5t24.5 -8.5
t20 -16t20 -25q16 26 31.5 54.5t23.5 57.5q-2 1 -2 4v5q0 7 4 13t12 6q19 0 31.5 -5t21.5 -13t17 -18.5t19 -21.5q10 17 20.5 33.5t17.5 35.5q2 4 6.5 6.5t8.5 2.5q11 0 28 -10.5t34 -24.5t31 -28.5t19 -22.5q2 -2 5.5 -8.5t5.5 -7.5q1 5 6 16.5t10 24t9 23t3 14.5l-2 3v3
q0 8 5.5 13.5t13.5 5.5q12 0 27.5 -10t30 -24.5t24.5 -30t12 -26.5q-2 -11 -7 -18.5t-10 -16.5q2 -2 4.5 -4t4.5 -5q3 6 6.5 10t11.5 4q14 0 30.5 -8.5t21.5 -21.5l19.5 19.5t20.5 17.5h1q2 4 4.5 10.5t6 12.5t8 10.5t10.5 4.5q23 0 34.5 -8t25.5 -25q10 13 25 17
q6 -1 12 -1.5t12 -2.5q3 5 11.5 11.5t13.5 6.5q26 0 36 -11.5t21 -31.5q7 7 11.5 16t9.5 16.5t12.5 11.5t21.5 1q-7 5 -10 13t-3 16q0 6 3 18.5t8 24.5t11 21.5t13 9.5q19 0 32.5 -16.5t22.5 -30.5q3 17 20 17q21 0 35.5 -16.5t25.5 -31.5q8 17 17 42t9 45q0 6 -2.5 10.5
t-2.5 10.5q0 8 5 13t13 5q12 0 29 -9.5t33 -23.5t27.5 -29t11.5 -25q0 -8 -4.5 -18.5t-8.5 -18.5q15 -6 26.5 -22t22.5 -27q4 4 10.5 11.5t14 15.5t15 14t12.5 6q3 0 10.5 -2.5t16 -6t16 -7t10.5 -4.5q7 7 18 7q6 0 13.5 -3.5t14 -9t11 -12.5t3.5 -14q3 3 9.5 11t14 16
t15 14.5t12.5 6.5q7 0 21.5 -4.5t19.5 -9.5q4 9 9.5 21.5t10 26.5t8 27t3.5 23q0 5 -2 7.5t-2 7.5q0 8 5 13.5t12 5.5q15 0 32.5 -9.5t32.5 -24t25 -31t10 -30.5q0 -8 -18.5 -39t-40.5 -73.5t-40.5 -90.5t-18.5 -90q0 -14 3 -23t6 -15t6 -10.5t3 -7.5q0 -7 -5 -13t-12 -6
q-11 0 -23 6t-24 15t-22.5 19t-17.5 18q-8 -8 -18 -17t-23 -7q7 -3 18.5 -5.5t23 -6t22.5 -7t19 -7.5l37 -46l1 -8l-3 -9q-7 -9 -17 -9t-20 -1l-3 1q-20 0 -40 -5t-40 -5q-66 0 -132.5 5.5t-132.5 5.5q-33 0 -79.5 -1t-95.5 -3t-94.5 -6t-75.5 -11h1q-4 -19 -27 -47t-53 -54
t-61 -44.5t-52 -18.5q-18 0 -39.5 8.5t-41 23t-32.5 32.5t-13 37q0 14 4 23q-86 -19 -171.5 -36.5t-169.5 -46.5q-29 -11 -61.5 -16.5t-64.5 -10.5q-10 -11 -22 -15t-25 -6t-26.5 -4t-25.5 -8q-4 -5 -7.5 -8.5t-10.5 -3.5q-8 0 -17 7t-16.5 17t-13 21t-5.5 18zM1158 329
q-11 -21 -23 -48.5t-12 -51.5q0 -8 6 -13.5t14.5 -9.5t17.5 -5.5l15 -2.5q18 9 36 29t33.5 44t28.5 49t21 43q13 0 23 4t18.5 11t16 15.5t16.5 16.5q-32 -65 -70 -127t-79 -122q-161 -16 -322 -44t-318 -67v-1q0 -21 12 -37q57 21 123.5 38.5t135.5 31.5t137 25.5t129 20.5
q-15 -5 -37.5 -15.5t-43.5 -25t-36 -32t-15 -37.5q0 -12 8.5 -20.5t21 -14.5t25.5 -8.5t22 -2.5q19 0 45 16.5t51.5 39.5t46.5 47.5t30 41.5q-14 0 -27 -2.5t-26 -5.5q-13 -14 -31.5 -32t-40.5 -34.5t-44.5 -27.5t-43.5 -11q-9 0 -13 2q-2 2 -2 8q0 10 6.5 19t13.5 15
q24 24 57 40.5t69.5 27.5t73.5 16.5t69 8.5q76 6 151 11t151 5q66 0 131 -3t131 -8l-3 7l-96 11l95 -4v6l-59 6h59l1 5l-96 6h97l1 5q-42 2 -82.5 3.5t-81.5 1.5q-109 0 -215.5 -7.5t-213.5 -19.5q5 9 19 34t31 57t36 67t35 64t27.5 47.5t14.5 19.5q-6 7 -14 11.5t-17 4.5
l-8 -1q-4 -8 -15 -23.5t-24.5 -31t-27 -27.5t-22.5 -12q8 17 15.5 39t7.5 40q0 5 -12.5 8.5t-15.5 4.5q-12 -7 -21 -21q-13 7 -30 7q-11 -8 -23.5 -24t-24.5 -34t-22 -35.5t-16 -29.5q-8 9 -8 25q0 7 4 23t10 32.5t13.5 30t15.5 15.5q-5 8 -14.5 11t-18.5 2l-16 -30
q-32 -26 -60.5 -57t-54.5 -64q12 20 23 40t24 39q-10 25 -39 28q6 -5 6 -13q0 -17 -12.5 -40.5t-28.5 -49t-29.5 -51t-14.5 -45.5q4 -11 14.5 -16t21.5 -7q-2 4 -2 8v8q0 24 15 50.5t37 52t45.5 48t40.5 36.5q-5 -9 -9.5 -19.5t-4.5 -21.5q0 -17 12 -28t29 -9zM1992 220
q-6 4 -9.5 11t-5.5 15.5t-2.5 16.5t-0.5 14q0 36 11.5 74.5t29 77t38.5 74t39 64.5q-3 21 -16.5 30.5t-33.5 12.5q3 -4 4 -8.5t1 -9.5q0 -13 -4.5 -29.5t-11 -33.5t-13.5 -33t-12 -27q-11 8 -23 13.5t-26 8.5q-19 -19 -41.5 -50.5t-46 -64t-46.5 -59t-42 -35.5q0 7 6.5 22
t16 34t21.5 39t24 38t22 30.5t16 16.5q-5 9 -10.5 13.5t-15.5 7.5l-11 -11l-57 23q-28 -27 -51 -57t-45 -61t-46 -60.5t-54 -54.5q1 16 14 45t31 60t37 58t31 38q-4 13 -12 24.5t-22 13.5q-51 -44 -95.5 -99t-82.5 -111q2 18 23 56t47.5 82.5t51.5 87.5t34 72
q-8 15 -21 22.5t-29 10.5q5 -8 5 -21q0 -21 -10.5 -51.5t-28 -65.5t-40 -71t-46.5 -67t-47 -53.5t-41 -31.5q1 21 12 45.5t25.5 50t30.5 48.5t28 41q-7 10 -18 12t-22 1v-3q0 -11 -12.5 -38.5t-29 -58.5t-33 -58t-24.5 -37q2 -17 13.5 -24.5t27.5 -9.5q26 20 49 46t44 51
q-11 -18 -21.5 -36t-21.5 -35q6 -14 16.5 -20.5t23.5 -11.5v5q0 11 11.5 31.5t30 45.5t40.5 52.5t43.5 52t39.5 43.5t28 29q-7 -17 -26.5 -50t-40.5 -67.5t-37.5 -63t-17.5 -36.5q5 -11 17 -18t23 -11q17 14 32.5 30.5t30.5 33.5l-11 -24q5 -11 14 -19t22 -8q16 9 32 26.5
t32 37.5t30.5 40t26.5 35q-11 -25 -27 -47.5t-28 -46.5q0 -17 12 -26t27 -11q16 12 29.5 29t25.5 33l-11 -30q1 -11 12 -23.5t23 -12.5q9 0 23.5 16.5t28.5 37.5t26 41.5t17 28.5l11 19l1 1q0 -2 -5.5 -17t-12.5 -36t-12.5 -43.5t-5.5 -39.5q0 -10 5.5 -17t13.5 -12.5
t17.5 -8.5t17.5 -4zM251 154q25 0 56 14.5t57 37.5t44 50.5t18 53.5q0 16 -7.5 30t-19.5 24q1 -4 1 -7.5v-6.5q0 -26 -14 -58t-36 -60t-50 -47t-55 -19q-20 0 -32 14t-12 34q0 35 28.5 72.5t69.5 68.5t85.5 51t77.5 20q23 0 40.5 -9t17.5 -35q0 -22 -11 -51.5t-29 -61
t-41.5 -63.5t-48 -59.5t-48.5 -48t-44 -28.5q13 -3 25.5 -5.5t26.5 -2.5q6 0 16 2t14 7l219 327q-26 -66 -60 -130.5t-69 -126.5q0 -5 5.5 -11t13 -11t14.5 -8.5t12 -3.5h2q3 14 18.5 43.5t38 66t49.5 76.5t52 76.5t46.5 65.5t32.5 43q-9 -16 -24 -41.5t-33 -56t-36.5 -63
t-34 -62.5t-25 -55t-9.5 -39q0 -18 10.5 -33.5t27.5 -22.5q-4 12 -4 29q0 30 14 68.5t34.5 78.5t44.5 78.5t44.5 70t34.5 53t14 26.5q0 6 -5 11.5t-12 10.5t-14.5 8.5t-12.5 5.5q-1 -7 -17 -33t-40 -62.5t-52.5 -78t-55 -79t-46.5 -66.5t-27 -39q23 78 66 153.5t85 145.5
q0 10 -5.5 17t-14 11.5t-18 7t-17.5 3.5q3 -1 3 -7q0 -13 -13.5 -42t-31.5 -60.5t-35.5 -60t-25.5 -40.5q5 14 8.5 29t3.5 31q0 38 -21.5 50.5t-56.5 12.5q-38 0 -87 -16.5t-93 -45t-74.5 -67t-30.5 -82.5q0 -35 23.5 -54t55.5 -19zM942 155q15 0 33 8.5t29 18.5
q-8 -3 -17 -3q-17 0 -33.5 9.5t-31 24t-26.5 30.5l-21 28q35 30 71.5 57.5t71.5 59.5v4q0 10 -8.5 22.5t-19.5 12.5q1 -2 1 -5q0 -9 -17 -28.5t-38.5 -41t-42.5 -40t-29 -26.5l-4 7q27 54 55.5 110t63.5 106q-2 14 -17.5 24.5t-27.5 13.5q2 -1 2 -6q0 -9 -5.5 -26.5
t-14.5 -39.5t-20 -45.5t-21.5 -44.5t-20 -38t-14.5 -24q-3 2 -9 2t-12.5 -3t-8.5 -9q12 -2 18 -8q-9 -13 -24 -31.5t-31.5 -37t-33.5 -33.5t-32 -22q2 23 15.5 50t31.5 54t36.5 51.5t32.5 44.5q-15 22 -41 22v-3q0 -7 -6.5 -23.5t-17 -36.5t-23.5 -42.5t-25.5 -42.5
t-23 -36.5t-16.5 -23.5q1 -18 12 -27t28 -11q29 24 54.5 51.5t48.5 56.5q-2 -4 -8 -14.5t-13 -22.5t-12 -22t-5 -13q0 -11 13.5 -19.5t20.5 -16.5v3q0 28 14.5 51.5t32.5 42.5q5 -10 14.5 -26.5t21.5 -32.5t25 -28t25 -12zM1279 367q-3 -6 -11 -20.5t-18.5 -32t-23 -36
t-24.5 -34t-23 -25.5t-18 -10q-3 0 -4 1q-1 2 -1 7q0 17 12 46t29 59.5t35.5 57t30.5 38.5q-1 -5 -1.5 -9.5t-0.5 -9.5q0 -13 3.5 -19.5t14.5 -12.5zM1143 171q-5 6 -11.5 13t-12.5 14.5t-10.5 15t-4.5 15.5q0 21 9.5 44.5t17.5 42.5h-1q-11 -10 -26.5 -26t-29 -34t-23 -37
t-9.5 -35q0 -5 1.5 -10t0.5 -10l-1 -2q4 -2 5 -4zM1843 463q-38 -48 -75.5 -96t-84.5 -89q5 24 19.5 51t33 53.5t39 50.5t36.5 42zM2001 461q-9 -14 -27.5 -42.5t-39.5 -58.5t-41.5 -55t-33.5 -31q3 19 16 48t31 58t37.5 54.5t34.5 38.5zM380 331q-12 -8 -33.5 -26t-42 -39
t-35.5 -42.5t-15 -36.5l1 -1q15 0 35 18t38.5 42t33 48t18.5 37zM461 6q-1 -5 1.5 -10t5.5 -10q29 6 57.5 10.5t57.5 11.5q-4 9 -7.5 18.5t-3.5 19.5l-7 -1q1 -8 3.5 -15.5t5.5 -15.5q-7 5 -11 13t-6 16q-24 -8 -48.5 -16.5t-47.5 -20.5zM450 21q5 4 16 8.5t23.5 9.5t24 9
t18.5 6q-5 2 -12.5 8t-15 13.5l-14.5 14.5t-11 12q-13 -19 -26.5 -42t-29.5 -39q8 2 13.5 1.5t13.5 -1.5zM492 371q-16 0 -31.5 -4t-30.5 -10q11 -14 25 -30.5t18 -33.5q8 14 17.5 37.5t9.5 40.5h-8zM352 -51q0 -4 2 -8q7 12 22 16t31.5 6t31.5 5.5t23 14.5h-1
q-12 -5 -29 -8.5t-30 -4.5q15 2 29 6t28 9l-2 3q-19 -2 -39 -7t-38 -11q4 3 14.5 6t21.5 6t22 5.5t17 3.5l-2 4q-14 -2 -32 -5t-31 -11q12 10 29.5 14.5t32.5 6.5v2q-5 1 -15 1t-24.5 -4t-28 -11t-23 -17t-9.5 -22zM1431 496q0 4 4 9.5t9.5 11t10 11.5t5.5 13q-9 24 -32 32
q-2 -14 -9 -27.5t-7 -27.5q0 -11 5.5 -15t13.5 -9v2zM811 430q10 -10 23 -10q4 0 9.5 5.5t9.5 13t7 15t3 11.5v2q-5 7 -11 13t-15 6h-6q0 -5 -1.5 -13.5t-4 -17t-6 -15.5t-8.5 -10zM1867 188q-1 -5 -1.5 -10.5t-0.5 -11.5q0 -11 3 -20l71 9v10zM1508 480q0 5 4 10t9 9.5
t9.5 10t4.5 11.5q-7 11 -13.5 15t-19.5 7q-2 -14 -9 -29.5t-7 -27.5q0 -7 8.5 -6.5t13.5 -0.5v1zM916 137q-9 11 -18.5 21.5t-17.5 21.5q-9 -10 -14.5 -25t-7.5 -28zM733 102q-13 3 -20.5 6.5t-12 8.5t-8 12.5t-9.5 16.5q-3 -11 -5.5 -22t-2.5 -23l1 -10q14 2 28.5 5t28.5 6
zM570 66q11 5 25 7.5t25 4.5q-7 10 -15.5 18.5t-15.5 19.5q-7 -12 -12.5 -24t-10.5 -24v-4q4 0 4 2zM812 118q-6 7 -11 11.5t-10 12.5l-37 -35q14 3 29 6t29 5zM1556 237q-5 -6 -9.5 -14t-7.5 -16q10 1 19 1.5t19 0.5zM1315 451q-5 -16 -11 -32t-14 -31q-1 3 -1 10
q0 13 6.5 30.5t19.5 22.5zM1793 210q-10 5 -16 10t-11 15q-11 -14 -24 -24zM1832 208q6 0 14 0.5t14 -1.5q1 0 2.5 -1t1.5 1q6 0 14 -3q-15 7 -26 24zM1377 196q-4 5 -6 10l-4 10q-3 -5 -6.5 -10.5t-5.5 -11.5zM1967 157v1l-21 6v-9zM1139 428h1l-1 -1v1z" />
    <glyph glyph-name="d" unicode="d" horiz-adv-x="305" 
d="M15 194q0 52 19.5 83.5t46.5 54.5q22 19 44 34t40 36v156h60v-444q1 -17 5.5 -27t9.5 -15q9 -12 29 -12h78v-60h-78q-21 0 -40 7t-33 23q-30 -32 -79 -32q-20 0 -38 7.5t-32.5 21.5t-23 34t-8.5 44v89zM120 286q-20 -17 -32.5 -37t-12.5 -55v-89q0 -23 13.5 -35t28.5 -12
q13 0 21.5 4t13.5 9q5 6 8.5 16t4.5 25v209q-12 -10 -23 -18t-22 -17z" />
    <glyph glyph-name="d.1" unicode="&#xe007;" horiz-adv-x="602" 
d="M15 194q0 52 19.5 83.5t46.5 54.5q22 19 44 34t40 36v156h60v-422q0 -45 15.5 -75.5t40 -48t54.5 -24.5t59 -5q28 1 54 12t46 30.5t31.5 48t9.5 65.5q-2 27 -13 50t-28 39.5t-39 26t-46 9.5q-26 0 -47 -10l-17 55q17 8 33.5 11t33.5 3q35 0 67 -14t57.5 -38t41 -57.5
t17.5 -72.5q2 -52 -14 -91.5t-44.5 -66.5t-65 -41.5t-74.5 -17.5q-66 -5 -121.5 20.5t-84.5 79.5q-13 -12 -31.5 -19t-42.5 -7q-20 0 -38 7.5t-32.5 21.5t-23 34t-8.5 44v89zM120 286q-20 -17 -32.5 -37t-12.5 -55v-89q0 -23 13.5 -35t28.5 -12q13 0 21.5 4t13.5 9
q5 6 8.5 16t4.5 25v209q-12 -10 -23 -18t-22 -17zM60 458l46 47l47 -47l-47 -46z" />
    <glyph glyph-name="d.end" unicode="&#xe2a3;" horiz-adv-x="379" 
d="M15 194q0 52 19.5 83.5t46.5 54.5q22 19 44 34t40 36v156h60v-444q1 -17 5.5 -27t9.5 -15q9 -12 29 -12h158l-30 -60h-128q-21 0 -40 7t-33 23q-30 -32 -79 -32q-20 0 -38 7.5t-32.5 21.5t-23 34t-8.5 44v89zM120 286q-20 -17 -32.5 -37t-12.5 -55v-89q0 -23 13.5 -35
t28.5 -12q13 0 21.5 4t13.5 9q5 6 8.5 16t4.5 25v209q-12 -10 -23 -18t-22 -17zM35 458l46 47l47 -47l-47 -46z" />
    <glyph glyph-name="d.salt" unicode="&#xe4c3;" horiz-adv-x="305" 
d="M15 194q0 52 19.5 83.5t46.5 54.5q22 19 44 34t40 36v156h60v-444q1 -17 5.5 -27t9.5 -15q9 -12 29 -12h78v-60h-78q-21 0 -40 7t-33 23q-30 -32 -79 -32q-20 0 -38 7.5t-32.5 21.5t-23 34t-8.5 44v89zM120 286q-20 -17 -32.5 -37t-12.5 -55v-89q0 -23 13.5 -35t28.5 -12
q13 0 21.5 4t13.5 9q5 6 8.5 16t4.5 25v209q-12 -10 -23 -18t-22 -17zM35 458l46 47l47 -47l-47 -46z" />
    <glyph glyph-name="dollar" unicode="$" 
d="M334 -51q0 22 15.5 34.5t30.5 23.5q-6 0 -17.5 1t-22.5 3t-21 6.5t-13 10.5q-2 4 -6.5 9.5t-9 11.5t-8 11.5t-3.5 9.5q0 6 4 10.5t9.5 8t11.5 7t10 7.5q-15 -4 -33 -4q-22 0 -45 11.5t-41.5 30t-30 41t-11.5 44.5q0 48 31 90t77 73t99 49t97 18q20 0 33.5 -2.5t24.5 -8.5
t20 -16t20 -25q16 26 31.5 54.5t23.5 57.5q-2 1 -2 4v5q0 7 4 13t12 6q19 0 31.5 -5t21.5 -13t17 -18.5t19 -21.5q10 17 20.5 33.5t17.5 35.5q2 4 6.5 6.5t8.5 2.5q11 0 28 -10.5t34 -24.5t31 -28.5t19 -22.5q2 -2 5.5 -8.5t5.5 -7.5q1 5 6 16.5t10 24t9 23t3 14.5l-2 3v3
q0 8 5.5 13.5t13.5 5.5q12 0 27.5 -10t30 -24.5t24.5 -30t12 -26.5q-2 -11 -7 -18.5t-10 -16.5q2 -2 4.5 -4t4.5 -5q3 6 6.5 10t11.5 4q14 0 30.5 -8.5t21.5 -21.5l19.5 19.5t20.5 17.5h1q2 4 4.5 10.5t6 12.5t8 10.5t10.5 4.5q23 0 34.5 -8t25.5 -25q10 13 25 17
q6 -1 12 -1.5t12 -2.5q3 5 11.5 11.5t13.5 6.5q26 0 36 -11.5t21 -31.5q7 7 11.5 16t9.5 16.5t12.5 11.5t21.5 1q-7 5 -10 13t-3 16q0 6 3 18.5t8 24.5t11 21.5t13 9.5q19 0 32.5 -16.5t22.5 -30.5q3 17 20 17q21 0 35.5 -16.5t25.5 -31.5q8 17 17 42t9 45q0 6 -2.5 10.5
t-2.5 10.5q0 8 5 13t13 5q12 0 29 -9.5t33 -23.5t27.5 -29t11.5 -25q0 -8 -4.5 -18.5t-8.5 -18.5q15 -6 26.5 -22t22.5 -27q4 4 10.5 11.5t14 15.5t15 14t12.5 6q3 0 10.5 -2.5t16 -6t16 -7t10.5 -4.5q7 7 18 7q6 0 13.5 -3.5t14 -9t11 -12.5t3.5 -14q3 3 9.5 11t14 16
t15 14.5t12.5 6.5q7 0 21.5 -4.5t19.5 -9.5q4 9 9.5 21.5t10 26.5t8 27t3.5 23q0 5 -2 7.5t-2 7.5q0 8 5 13.5t12 5.5q15 0 32.5 -9.5t32.5 -24t25 -31t10 -30.5q0 -8 -18.5 -39t-40.5 -73.5t-40.5 -90.5t-18.5 -90q0 -14 3 -23t6 -15t6 -10.5t3 -7.5q0 -7 -5 -13t-12 -6
q-11 0 -23 6t-24 15t-22.5 19t-17.5 18q-8 -8 -18 -17t-23 -7q7 -3 18.5 -5.5t23 -6t22.5 -7t19 -7.5l37 -46l1 -8l-3 -9q-7 -9 -17 -9t-20 -1l-3 1q-20 0 -40 -5t-40 -5q-66 0 -132.5 5.5t-132.5 5.5q-33 0 -79.5 -1t-95.5 -3t-94.5 -6t-75.5 -11h1q-4 -19 -27 -47t-53 -54
t-61 -44.5t-52 -18.5q-18 0 -39.5 8.5t-41 23t-32.5 32.5t-13 37q0 14 4 23q-86 -19 -171.5 -36.5t-169.5 -46.5q-29 -11 -61.5 -16.5t-64.5 -10.5q-10 -11 -22 -15t-25 -6t-26.5 -4t-25.5 -8q-4 -5 -7.5 -8.5t-10.5 -3.5q-8 0 -17 7t-16.5 17t-13 21t-5.5 18zM1158 329
q-11 -21 -23 -48.5t-12 -51.5q0 -8 6 -13.5t14.5 -9.5t17.5 -5.5l15 -2.5q18 9 36 29t33.5 44t28.5 49t21 43q13 0 23 4t18.5 11t16 15.5t16.5 16.5q-32 -65 -70 -127t-79 -122q-161 -16 -322 -44t-318 -67v-1q0 -21 12 -37q57 21 123.5 38.5t135.5 31.5t137 25.5t129 20.5
q-15 -5 -37.5 -15.5t-43.5 -25t-36 -32t-15 -37.5q0 -12 8.5 -20.5t21 -14.5t25.5 -8.5t22 -2.5q19 0 45 16.5t51.5 39.5t46.5 47.5t30 41.5q-14 0 -27 -2.5t-26 -5.5q-13 -14 -31.5 -32t-40.5 -34.5t-44.5 -27.5t-43.5 -11q-9 0 -13 2q-2 2 -2 8q0 10 6.5 19t13.5 15
q24 24 57 40.5t69.5 27.5t73.5 16.5t69 8.5q76 6 151 11t151 5q66 0 131 -3t131 -8l-3 7l-96 11l95 -4v6l-59 6h59l1 5l-96 6h97l1 5q-42 2 -82.5 3.5t-81.5 1.5q-109 0 -215.5 -7.5t-213.5 -19.5q5 9 19 34t31 57t36 67t35 64t27.5 47.5t14.5 19.5q-6 7 -14 11.5t-17 4.5
l-8 -1q-4 -8 -15 -23.5t-24.5 -31t-27 -27.5t-22.5 -12q8 17 15.5 39t7.5 40q0 5 -12.5 8.5t-15.5 4.5q-12 -7 -21 -21q-13 7 -30 7q-11 -8 -23.5 -24t-24.5 -34t-22 -35.5t-16 -29.5q-8 9 -8 25q0 7 4 23t10 32.5t13.5 30t15.5 15.5q-5 8 -14.5 11t-18.5 2l-16 -30
q-32 -26 -60.5 -57t-54.5 -64q12 20 23 40t24 39q-10 25 -39 28q6 -5 6 -13q0 -17 -12.5 -40.5t-28.5 -49t-29.5 -51t-14.5 -45.5q4 -11 14.5 -16t21.5 -7q-2 4 -2 8v8q0 24 15 50.5t37 52t45.5 48t40.5 36.5q-5 -9 -9.5 -19.5t-4.5 -21.5q0 -17 12 -28t29 -9zM1992 220
q-6 4 -9.5 11t-5.5 15.5t-2.5 16.5t-0.5 14q0 36 11.5 74.5t29 77t38.5 74t39 64.5q-3 21 -16.5 30.5t-33.5 12.5q3 -4 4 -8.5t1 -9.5q0 -13 -4.5 -29.5t-11 -33.5t-13.5 -33t-12 -27q-11 8 -23 13.5t-26 8.5q-19 -19 -41.5 -50.5t-46 -64t-46.5 -59t-42 -35.5q0 7 6.5 22
t16 34t21.5 39t24 38t22 30.5t16 16.5q-5 9 -10.5 13.5t-15.5 7.5l-11 -11l-57 23q-28 -27 -51 -57t-45 -61t-46 -60.5t-54 -54.5q1 16 14 45t31 60t37 58t31 38q-4 13 -12 24.5t-22 13.5q-51 -44 -95.5 -99t-82.5 -111q2 18 23 56t47.5 82.5t51.5 87.5t34 72
q-8 15 -21 22.5t-29 10.5q5 -8 5 -21q0 -21 -10.5 -51.5t-28 -65.5t-40 -71t-46.5 -67t-47 -53.5t-41 -31.5q1 21 12 45.5t25.5 50t30.5 48.5t28 41q-7 10 -18 12t-22 1v-3q0 -11 -12.5 -38.5t-29 -58.5t-33 -58t-24.5 -37q2 -17 13.5 -24.5t27.5 -9.5q26 20 49 46t44 51
q-11 -18 -21.5 -36t-21.5 -35q6 -14 16.5 -20.5t23.5 -11.5v5q0 11 11.5 31.5t30 45.5t40.5 52.5t43.5 52t39.5 43.5t28 29q-7 -17 -26.5 -50t-40.5 -67.5t-37.5 -63t-17.5 -36.5q5 -11 17 -18t23 -11q17 14 32.5 30.5t30.5 33.5l-11 -24q5 -11 14 -19t22 -8q16 9 32 26.5
t32 37.5t30.5 40t26.5 35q-11 -25 -27 -47.5t-28 -46.5q0 -17 12 -26t27 -11q16 12 29.5 29t25.5 33l-11 -30q1 -11 12 -23.5t23 -12.5q9 0 23.5 16.5t28.5 37.5t26 41.5t17 28.5l11 19l1 1q0 -2 -5.5 -17t-12.5 -36t-12.5 -43.5t-5.5 -39.5q0 -10 5.5 -17t13.5 -12.5
t17.5 -8.5t17.5 -4zM251 154q25 0 56 14.5t57 37.5t44 50.5t18 53.5q0 16 -7.5 30t-19.5 24q1 -4 1 -7.5v-6.5q0 -26 -14 -58t-36 -60t-50 -47t-55 -19q-20 0 -32 14t-12 34q0 35 28.5 72.5t69.5 68.5t85.5 51t77.5 20q23 0 40.5 -9t17.5 -35q0 -22 -11 -51.5t-29 -61
t-41.5 -63.5t-48 -59.5t-48.5 -48t-44 -28.5q13 -3 25.5 -5.5t26.5 -2.5q6 0 16 2t14 7l219 327q-26 -66 -60 -130.5t-69 -126.5q0 -5 5.5 -11t13 -11t14.5 -8.5t12 -3.5h2q3 14 18.5 43.5t38 66t49.5 76.5t52 76.5t46.5 65.5t32.5 43q-9 -16 -24 -41.5t-33 -56t-36.5 -63
t-34 -62.5t-25 -55t-9.5 -39q0 -18 10.5 -33.5t27.5 -22.5q-4 12 -4 29q0 30 14 68.5t34.5 78.5t44.5 78.5t44.5 70t34.5 53t14 26.5q0 6 -5 11.5t-12 10.5t-14.5 8.5t-12.5 5.5q-1 -7 -17 -33t-40 -62.5t-52.5 -78t-55 -79t-46.5 -66.5t-27 -39q23 78 66 153.5t85 145.5
q0 10 -5.5 17t-14 11.5t-18 7t-17.5 3.5q3 -1 3 -7q0 -13 -13.5 -42t-31.5 -60.5t-35.5 -60t-25.5 -40.5q5 14 8.5 29t3.5 31q0 38 -21.5 50.5t-56.5 12.5q-38 0 -87 -16.5t-93 -45t-74.5 -67t-30.5 -82.5q0 -35 23.5 -54t55.5 -19zM942 155q15 0 33 8.5t29 18.5
q-8 -3 -17 -3q-17 0 -33.5 9.5t-31 24t-26.5 30.5l-21 28q35 30 71.5 57.5t71.5 59.5v4q0 10 -8.5 22.5t-19.5 12.5q1 -2 1 -5q0 -9 -17 -28.5t-38.5 -41t-42.5 -40t-29 -26.5l-4 7q27 54 55.5 110t63.5 106q-2 14 -17.5 24.5t-27.5 13.5q2 -1 2 -6q0 -9 -5.5 -26.5
t-14.5 -39.5t-20 -45.5t-21.5 -44.5t-20 -38t-14.5 -24q-3 2 -9 2t-12.5 -3t-8.5 -9q12 -2 18 -8q-9 -13 -24 -31.5t-31.5 -37t-33.5 -33.5t-32 -22q2 23 15.5 50t31.5 54t36.5 51.5t32.5 44.5q-15 22 -41 22v-3q0 -7 -6.5 -23.5t-17 -36.5t-23.5 -42.5t-25.5 -42.5
t-23 -36.5t-16.5 -23.5q1 -18 12 -27t28 -11q29 24 54.5 51.5t48.5 56.5q-2 -4 -8 -14.5t-13 -22.5t-12 -22t-5 -13q0 -11 13.5 -19.5t20.5 -16.5v3q0 28 14.5 51.5t32.5 42.5q5 -10 14.5 -26.5t21.5 -32.5t25 -28t25 -12zM1279 367q-3 -6 -11 -20.5t-18.5 -32t-23 -36
t-24.5 -34t-23 -25.5t-18 -10q-3 0 -4 1q-1 2 -1 7q0 17 12 46t29 59.5t35.5 57t30.5 38.5q-1 -5 -1.5 -9.5t-0.5 -9.5q0 -13 3.5 -19.5t14.5 -12.5zM1143 171q-5 6 -11.5 13t-12.5 14.5t-10.5 15t-4.5 15.5q0 21 9.5 44.5t17.5 42.5h-1q-11 -10 -26.5 -26t-29 -34t-23 -37
t-9.5 -35q0 -5 1.5 -10t0.5 -10l-1 -2q4 -2 5 -4zM1843 463q-38 -48 -75.5 -96t-84.5 -89q5 24 19.5 51t33 53.5t39 50.5t36.5 42zM2001 461q-9 -14 -27.5 -42.5t-39.5 -58.5t-41.5 -55t-33.5 -31q3 19 16 48t31 58t37.5 54.5t34.5 38.5zM380 331q-12 -8 -33.5 -26t-42 -39
t-35.5 -42.5t-15 -36.5l1 -1q15 0 35 18t38.5 42t33 48t18.5 37zM461 6q-1 -5 1.5 -10t5.5 -10q29 6 57.5 10.5t57.5 11.5q-4 9 -7.5 18.5t-3.5 19.5l-7 -1q1 -8 3.5 -15.5t5.5 -15.5q-7 5 -11 13t-6 16q-24 -8 -48.5 -16.5t-47.5 -20.5zM450 21q5 4 16 8.5t23.5 9.5t24 9
t18.5 6q-5 2 -12.5 8t-15 13.5l-14.5 14.5t-11 12q-13 -19 -26.5 -42t-29.5 -39q8 2 13.5 1.5t13.5 -1.5zM492 371q-16 0 -31.5 -4t-30.5 -10q11 -14 25 -30.5t18 -33.5q8 14 17.5 37.5t9.5 40.5h-8zM352 -51q0 -4 2 -8q7 12 22 16t31.5 6t31.5 5.5t23 14.5h-1
q-12 -5 -29 -8.5t-30 -4.5q15 2 29 6t28 9l-2 3q-19 -2 -39 -7t-38 -11q4 3 14.5 6t21.5 6t22 5.5t17 3.5l-2 4q-14 -2 -32 -5t-31 -11q12 10 29.5 14.5t32.5 6.5v2q-5 1 -15 1t-24.5 -4t-28 -11t-23 -17t-9.5 -22zM1431 496q0 4 4 9.5t9.5 11t10 11.5t5.5 13q-9 24 -32 32
q-2 -14 -9 -27.5t-7 -27.5q0 -11 5.5 -15t13.5 -9v2zM811 430q10 -10 23 -10q4 0 9.5 5.5t9.5 13t7 15t3 11.5v2q-5 7 -11 13t-15 6h-6q0 -5 -1.5 -13.5t-4 -17t-6 -15.5t-8.5 -10zM1867 188q-1 -5 -1.5 -10.5t-0.5 -11.5q0 -11 3 -20l71 9v10zM1508 480q0 5 4 10t9 9.5
t9.5 10t4.5 11.5q-7 11 -13.5 15t-19.5 7q-2 -14 -9 -29.5t-7 -27.5q0 -7 8.5 -6.5t13.5 -0.5v1zM916 137q-9 11 -18.5 21.5t-17.5 21.5q-9 -10 -14.5 -25t-7.5 -28zM733 102q-13 3 -20.5 6.5t-12 8.5t-8 12.5t-9.5 16.5q-3 -11 -5.5 -22t-2.5 -23l1 -10q14 2 28.5 5t28.5 6
zM570 66q11 5 25 7.5t25 4.5q-7 10 -15.5 18.5t-15.5 19.5q-7 -12 -12.5 -24t-10.5 -24v-4q4 0 4 2zM812 118q-6 7 -11 11.5t-10 12.5l-37 -35q14 3 29 6t29 5zM1556 237q-5 -6 -9.5 -14t-7.5 -16q10 1 19 1.5t19 0.5zM1315 451q-5 -16 -11 -32t-14 -31q-1 3 -1 10
q0 13 6.5 30.5t19.5 22.5zM1793 210q-10 5 -16 10t-11 15q-11 -14 -24 -24zM1832 208q6 0 14 0.5t14 -1.5q1 0 2.5 -1t1.5 1q6 0 14 -3q-15 7 -26 24zM1377 196q-4 5 -6 10l-4 10q-3 -5 -6.5 -10.5t-5.5 -11.5zM1967 157v1l-21 6v-9zM1139 428h1l-1 -1v1z" />
    <glyph glyph-name="e" unicode="e" horiz-adv-x="277" 
d="M15 260q0 24 8.5 44t22.5 34t32 21.5t38 7.5q47 0 76 -33q14 -17 20.5 -38.5t6.5 -45.5v-68q0 -13 -8.5 -21.5t-21.5 -8.5h-114v-34q0 -22 10.5 -40t33.5 -18h201v-60h-201q-25 0 -44.5 10t-32.5 26.5t-20 37.5t-7 43v143zM30 458l46 47l45 -46l45 46l47 -47l-47 -46
l-45 44l-45 -44zM159 212v38q0 25 -9.5 41t-33.5 16q-14 0 -27.5 -11t-13.5 -36v-48h84z" />
    <glyph glyph-name="e.1" unicode="&#xe008;" horiz-adv-x="459" 
d="M15 263q0 24 8.5 44t22.5 34t32 21.5t38 7.5q47 0 76 -33q27 -31 27 -81v-102q0 -13 -8.5 -21.5t-21.5 -8.5h-114v-32q0 -45 15.5 -74.5t40 -46.5t54.5 -23.5t59 -4.5q28 1 54 12t46 30.5t31.5 48t9.5 65.5l60 2q2 -52 -14 -91.5t-44.5 -66.5t-65 -41.5t-74.5 -17.5
q-47 -3 -89 8t-74 37t-50.5 66.5t-18.5 96.5v171zM159 184v72q0 25 -10 39.5t-32 14.5q-14 0 -28 -11t-14 -36v-79h84zM30 458l46 47l45 -46l45 46l47 -47l-47 -46l-45 44l-45 -44z" />
    <glyph glyph-name="e.end" unicode="&#xe2a4;" horiz-adv-x="292" 
d="M15 254q0 24 8.5 44t22.5 34t32 21.5t38 7.5q47 0 76 -33q14 -17 20.5 -38.5t6.5 -45.5v-62q0 -13 -8.5 -21.5t-21.5 -8.5h-114v-34q0 -22 10.5 -40t33.5 -18h231l-30 -60h-201q-25 0 -44.5 10t-32.5 26.5t-20 37.5t-7 43v137zM30 458l46 47l45 -46l45 46l47 -47l-47 -46
l-45 44l-45 -44zM159 212v32q0 25 -9.5 41t-33.5 16q-14 0 -27.5 -11t-13.5 -36v-42h84z" />
    <glyph glyph-name="e.salt" unicode="&#xe4c4;" horiz-adv-x="277" 
d="M-10 458l46 47l45 -46l45 46l47 -47l-47 -46l-45 44l-45 -44zM283 -13q-6 -20 -17.5 -39t-27.5 -34t-37.5 -24t-46.5 -10q-26 0 -51 9t-44.5 28.5t-31.5 49.5t-12 70v16v60v234l59 34q14 -11 35.5 -26.5t35.5 -26.5q31 -25 55.5 -61.5t24.5 -89.5v-19q0 -25 -8.5 -44.5
t-23 -33.5t-33 -21.5t-37.5 -7.5h-48v-14q0 -54 23.5 -78t52.5 -24q32 0 50 21t30 48zM75 111h48q15 0 28.5 12t13.5 35v19q0 33 -16.5 57.5t-43.5 48.5l-30 24v-196z" />
    <glyph glyph-name="e.swsh" unicode="&#xe01f;" horiz-adv-x="262" 
d="M74 381q14 -11 35.5 -26.5t35.5 -26.5q31 -25 55.5 -61.5t24.5 -89.5v-19q0 -25 -8.5 -44.5t-23 -33.5t-33 -21.5t-37.5 -7.5h-48v-16q0 -35 7 -57.5t22 -36t38 -18.5t56 -5h515q30 0 63 -6t68 -37l-41 -41q-21 20 -41.5 24t-48.5 4h-515q-91 0 -137 41t-46 132v312z
M75 111h48q15 0 28.5 12t13.5 35v19q0 33 -16.5 57.5t-43.5 48.5l-30 24v-196zM-10 458l46 47l45 -46l45 46l47 -47l-47 -46l-45 44l-45 -44z" />
    <glyph glyph-name="eight" unicode="8" horiz-adv-x="457" 
d="M37 76q-15 30 -15 61q0 39 22.5 73t61.5 55q-33 22 -51.5 55t-18.5 70q0 30 13 59q21 46 65.5 71t95.5 25q30 0 63 -11q50 -17 80 -56.5t30 -87.5q0 -14 -3 -29.5t-10 -29.5q-19 -41 -57 -66q22 -12 40 -29t29 -40q15 -30 15 -61q0 -48 -32.5 -87.5t-87.5 -56.5
q-31 -10 -67 -10q-54 0 -102 24.5t-71 70.5zM259 48q38 12 58 36.5t20 51.5q0 17 -8 33q-14 28 -47 45t-73 17q-23 0 -49 -8q-38 -11 -58 -35.5t-20 -51.5q0 -17 8 -33q14 -28 47 -45t73 -17q12 0 24.5 1.5t24.5 5.5zM315 356q8 18 8 35q0 27 -18 51t-52 36q-20 7 -43 7
q-35 0 -64 -16.5t-43 -44.5q-7 -15 -7 -34q0 -27 17.5 -51.5t52.5 -36.5q20 -7 43 -7q35 0 64 16.5t42 44.5zM128 610l46 47l47 -47l-47 -46zM222 610l46 47l47 -47l-47 -46z" />
    <glyph glyph-name="equal" unicode="=" horiz-adv-x="557" 
d="M184 250v60h201v-60h-201zM184 140v60h201v-60h-201z" />
    <glyph glyph-name="exclam" unicode="!" horiz-adv-x="308" 
d="M141 28l46 47l47 -47l-47 -46zM218 654v-516h-60v516h60z" />
    <glyph glyph-name="f" unicode="f" horiz-adv-x="159" 
d="M15 -152v453h-39v60h39v79q0 24 7 45t20.5 37.5t33 26t43.5 9.5h71l-29 -60h-42q-12 0 -20.5 -5.5t-14 -14t-7.5 -19t-2 -20.5v-78h81l-20 -60h-61v-453h-60z" />
    <glyph glyph-name="five" unicode="5" horiz-adv-x="418" 
d="M29 98q23 -25 52 -35.5t58 -10.5q26 0 50.5 8t44 21.5t32.5 32t15 40.5q4 36 -7.5 61.5t-35.5 42.5q-20 14 -50 22t-72 8q-25 0 -52 -3q-14 -2 -24.5 9t-8.5 25l29 192q2 11 10 18t19 7h192l-30 -60h-136l-19 -129l25 1q93 -2 151 -40q40 -27 57 -68.5t12 -92.5
q-4 -35 -22.5 -63.5t-46.5 -49t-62.5 -31.5t-70.5 -11q-42 0 -82 15t-72 49zM62 -81l46 47l47 -47l-47 -46zM156 -81l46 47l47 -47l-47 -46z" />
    <glyph glyph-name="four" unicode="4" horiz-adv-x="429" 
d="M279 -2v145h-237q-18 0 -26.5 16.5t2.5 31.5l269 364l52 -44v-513h-60zM279 203v240l-177 -240h177zM259 631l46 47l47 -47l-47 -46z" />
    <glyph glyph-name="g" unicode="g" horiz-adv-x="288" 
d="M-34 -213q8 -2 15 -3t15 -1q29 -2 59 8t54.5 31t40 54t15.5 78v53q-21 -9 -48 -9q-20 0 -38 7.5t-32.5 21.5t-23 33.5t-8.5 44.5v89q0 27 6.5 46.5t18 35t26 28t29.5 24.5q14 11 35.5 26.5t35.5 26.5l59 -34v-287h121v-60h-121v-46q0 -56 -18.5 -100t-50.5 -74t-74 -44.5
t-89 -11.5q-11 1 -21.5 2.5t-21.5 4.5zM165 307q-17 -11 -33 -24t-29 -27.5t-20.5 -30t-7.5 -31.5v-89q0 -23 13.5 -35t28.5 -12q24 0 35 15t13 35v199zM57 458l46 47l46 -47l46 47l47 -47l-47 -46l-46 45l-46 -45z" />
    <glyph glyph-name="g.1" unicode="&#xe009;" horiz-adv-x="297" 
d="M15 194q0 53 24.5 89.5t55.5 61.5q29 24 60 48t45 49l44 -31q-12 -22 -29 -40.5t-37 -34.5h47v-276h121v-60h-121v-86q0 -56 -18.5 -100t-50.5 -74t-74 -44.5t-89 -11.5q-38 3 -74.5 17.5t-65 41.5t-44.5 66.5t-14 91.5l60 -2q-2 -37 9.5 -65.5t31.5 -48t46 -30.5t54 -12
q29 -2 59 8t54.5 31t40 54t15.5 78v93q-21 -9 -48 -9q-20 0 -38 7.5t-32.5 21.5t-23 33.5t-8.5 44.5v89zM165 324l-30 -24q-27 -24 -43.5 -48.5t-16.5 -57.5v-89q0 -23 13.5 -35t28.5 -12q24 0 35 15t13 35v216z" />
    <glyph glyph-name="g.end" unicode="&#xe2a6;" horiz-adv-x="277" 
d="M-34 -213q8 -2 15 -3t15 -1q29 -2 59 8t54.5 31t40 54t15.5 78v53q-21 -9 -48 -9q-20 0 -38 7.5t-32.5 21.5t-23 33.5t-8.5 44.5v89q0 53 24.5 89.5t55.5 61.5q14 11 35.5 26.5t35.5 26.5l59 -34v-364v-46q0 -56 -18.5 -100t-50.5 -74t-74 -44.5t-89 -11.5
q-11 1 -21.5 2.5t-21.5 4.5zM165 324l-30 -24q-27 -24 -43.5 -48.5t-16.5 -57.5v-89q0 -23 13.5 -35t28.5 -12q24 0 35 15t13 35v216zM70 458l46 47l46 -47l46 47l47 -47l-47 -46l-46 45l-46 -45z" />
    <glyph glyph-name="g.salt" unicode="&#xe4c6;" horiz-adv-x="292" 
d="M225 -74q0 -50 -27.5 -84t-76.5 -34h-71v60h71q25 0 34.5 19.5t9.5 39.5v80q-11 -5 -24.5 -7t-25.5 -2q-20 0 -38 7.5t-31.5 21.5t-22 34t-8.5 45v158q0 24 8.5 44t22 34t31.5 21.5t38 7.5q24 0 44 -8.5t34.5 -23t23 -34t8.5 -40.5v-205h121v-60h-121v-74zM75 106
q0 -25 14 -36.5t30 -11.5q24 0 35 15.5t11 35.5v151q0 24 -13 37.5t-34 13.5q-14 0 -28.5 -11t-14.5 -36v-158zM73 458l46 47l47 -47l-47 -46z" />
    <glyph glyph-name="grave" unicode="`" 
d="M334 -51q0 22 15.5 34.5t30.5 23.5q-6 0 -17.5 1t-22.5 3t-21 6.5t-13 10.5q-2 4 -6.5 9.5t-9 11.5t-8 11.5t-3.5 9.5q0 6 4 10.5t9.5 8t11.5 7t10 7.5q-15 -4 -33 -4q-22 0 -45 11.5t-41.5 30t-30 41t-11.5 44.5q0 48 31 90t77 73t99 49t97 18q20 0 33.5 -2.5t24.5 -8.5
t20 -16t20 -25q16 26 31.5 54.5t23.5 57.5q-2 1 -2 4v5q0 7 4 13t12 6q19 0 31.5 -5t21.5 -13t17 -18.5t19 -21.5q10 17 20.5 33.5t17.5 35.5q2 4 6.5 6.5t8.5 2.5q11 0 28 -10.5t34 -24.5t31 -28.5t19 -22.5q2 -2 5.5 -8.5t5.5 -7.5q1 5 6 16.5t10 24t9 23t3 14.5l-2 3v3
q0 8 5.5 13.5t13.5 5.5q12 0 27.5 -10t30 -24.5t24.5 -30t12 -26.5q-2 -11 -7 -18.5t-10 -16.5q2 -2 4.5 -4t4.5 -5q3 6 6.5 10t11.5 4q14 0 30.5 -8.5t21.5 -21.5l19.5 19.5t20.5 17.5h1q2 4 4.5 10.5t6 12.5t8 10.5t10.5 4.5q23 0 34.5 -8t25.5 -25q10 13 25 17
q6 -1 12 -1.5t12 -2.5q3 5 11.5 11.5t13.5 6.5q26 0 36 -11.5t21 -31.5q7 7 11.5 16t9.5 16.5t12.5 11.5t21.5 1q-7 5 -10 13t-3 16q0 6 3 18.5t8 24.5t11 21.5t13 9.5q19 0 32.5 -16.5t22.5 -30.5q3 17 20 17q21 0 35.5 -16.5t25.5 -31.5q8 17 17 42t9 45q0 6 -2.5 10.5
t-2.5 10.5q0 8 5 13t13 5q12 0 29 -9.5t33 -23.5t27.5 -29t11.5 -25q0 -8 -4.5 -18.5t-8.5 -18.5q15 -6 26.5 -22t22.5 -27q4 4 10.5 11.5t14 15.5t15 14t12.5 6q3 0 10.5 -2.5t16 -6t16 -7t10.5 -4.5q7 7 18 7q6 0 13.5 -3.5t14 -9t11 -12.5t3.5 -14q3 3 9.5 11t14 16
t15 14.5t12.5 6.5q7 0 21.5 -4.5t19.5 -9.5q4 9 9.5 21.5t10 26.5t8 27t3.5 23q0 5 -2 7.5t-2 7.5q0 8 5 13.5t12 5.5q15 0 32.5 -9.5t32.5 -24t25 -31t10 -30.5q0 -8 -18.5 -39t-40.5 -73.5t-40.5 -90.5t-18.5 -90q0 -14 3 -23t6 -15t6 -10.5t3 -7.5q0 -7 -5 -13t-12 -6
q-11 0 -23 6t-24 15t-22.5 19t-17.5 18q-8 -8 -18 -17t-23 -7q7 -3 18.5 -5.5t23 -6t22.5 -7t19 -7.5l37 -46l1 -8l-3 -9q-7 -9 -17 -9t-20 -1l-3 1q-20 0 -40 -5t-40 -5q-66 0 -132.5 5.5t-132.5 5.5q-33 0 -79.5 -1t-95.5 -3t-94.5 -6t-75.5 -11h1q-4 -19 -27 -47t-53 -54
t-61 -44.5t-52 -18.5q-18 0 -39.5 8.5t-41 23t-32.5 32.5t-13 37q0 14 4 23q-86 -19 -171.5 -36.5t-169.5 -46.5q-29 -11 -61.5 -16.5t-64.5 -10.5q-10 -11 -22 -15t-25 -6t-26.5 -4t-25.5 -8q-4 -5 -7.5 -8.5t-10.5 -3.5q-8 0 -17 7t-16.5 17t-13 21t-5.5 18zM1158 329
q-11 -21 -23 -48.5t-12 -51.5q0 -8 6 -13.5t14.5 -9.5t17.5 -5.5l15 -2.5q18 9 36 29t33.5 44t28.5 49t21 43q13 0 23 4t18.5 11t16 15.5t16.5 16.5q-32 -65 -70 -127t-79 -122q-161 -16 -322 -44t-318 -67v-1q0 -21 12 -37q57 21 123.5 38.5t135.5 31.5t137 25.5t129 20.5
q-15 -5 -37.5 -15.5t-43.5 -25t-36 -32t-15 -37.5q0 -12 8.5 -20.5t21 -14.5t25.5 -8.5t22 -2.5q19 0 45 16.5t51.5 39.5t46.5 47.5t30 41.5q-14 0 -27 -2.5t-26 -5.5q-13 -14 -31.5 -32t-40.5 -34.5t-44.5 -27.5t-43.5 -11q-9 0 -13 2q-2 2 -2 8q0 10 6.5 19t13.5 15
q24 24 57 40.5t69.5 27.5t73.5 16.5t69 8.5q76 6 151 11t151 5q66 0 131 -3t131 -8l-3 7l-96 11l95 -4v6l-59 6h59l1 5l-96 6h97l1 5q-42 2 -82.5 3.5t-81.5 1.5q-109 0 -215.5 -7.5t-213.5 -19.5q5 9 19 34t31 57t36 67t35 64t27.5 47.5t14.5 19.5q-6 7 -14 11.5t-17 4.5
l-8 -1q-4 -8 -15 -23.5t-24.5 -31t-27 -27.5t-22.5 -12q8 17 15.5 39t7.5 40q0 5 -12.5 8.5t-15.5 4.5q-12 -7 -21 -21q-13 7 -30 7q-11 -8 -23.5 -24t-24.5 -34t-22 -35.5t-16 -29.5q-8 9 -8 25q0 7 4 23t10 32.5t13.5 30t15.5 15.5q-5 8 -14.5 11t-18.5 2l-16 -30
q-32 -26 -60.5 -57t-54.5 -64q12 20 23 40t24 39q-10 25 -39 28q6 -5 6 -13q0 -17 -12.5 -40.5t-28.5 -49t-29.5 -51t-14.5 -45.5q4 -11 14.5 -16t21.5 -7q-2 4 -2 8v8q0 24 15 50.5t37 52t45.5 48t40.5 36.5q-5 -9 -9.5 -19.5t-4.5 -21.5q0 -17 12 -28t29 -9zM1992 220
q-6 4 -9.5 11t-5.5 15.5t-2.5 16.5t-0.5 14q0 36 11.5 74.5t29 77t38.5 74t39 64.5q-3 21 -16.5 30.5t-33.5 12.5q3 -4 4 -8.5t1 -9.5q0 -13 -4.5 -29.5t-11 -33.5t-13.5 -33t-12 -27q-11 8 -23 13.5t-26 8.5q-19 -19 -41.5 -50.5t-46 -64t-46.5 -59t-42 -35.5q0 7 6.5 22
t16 34t21.5 39t24 38t22 30.5t16 16.5q-5 9 -10.5 13.5t-15.5 7.5l-11 -11l-57 23q-28 -27 -51 -57t-45 -61t-46 -60.5t-54 -54.5q1 16 14 45t31 60t37 58t31 38q-4 13 -12 24.5t-22 13.5q-51 -44 -95.5 -99t-82.5 -111q2 18 23 56t47.5 82.5t51.5 87.5t34 72
q-8 15 -21 22.5t-29 10.5q5 -8 5 -21q0 -21 -10.5 -51.5t-28 -65.5t-40 -71t-46.5 -67t-47 -53.5t-41 -31.5q1 21 12 45.5t25.5 50t30.5 48.5t28 41q-7 10 -18 12t-22 1v-3q0 -11 -12.5 -38.5t-29 -58.5t-33 -58t-24.5 -37q2 -17 13.5 -24.5t27.5 -9.5q26 20 49 46t44 51
q-11 -18 -21.5 -36t-21.5 -35q6 -14 16.5 -20.5t23.5 -11.5v5q0 11 11.5 31.5t30 45.5t40.5 52.5t43.5 52t39.5 43.5t28 29q-7 -17 -26.5 -50t-40.5 -67.5t-37.5 -63t-17.5 -36.5q5 -11 17 -18t23 -11q17 14 32.5 30.5t30.5 33.5l-11 -24q5 -11 14 -19t22 -8q16 9 32 26.5
t32 37.5t30.5 40t26.5 35q-11 -25 -27 -47.5t-28 -46.5q0 -17 12 -26t27 -11q16 12 29.5 29t25.5 33l-11 -30q1 -11 12 -23.5t23 -12.5q9 0 23.5 16.5t28.5 37.5t26 41.5t17 28.5l11 19l1 1q0 -2 -5.5 -17t-12.5 -36t-12.5 -43.5t-5.5 -39.5q0 -10 5.5 -17t13.5 -12.5
t17.5 -8.5t17.5 -4zM251 154q25 0 56 14.5t57 37.5t44 50.5t18 53.5q0 16 -7.5 30t-19.5 24q1 -4 1 -7.5v-6.5q0 -26 -14 -58t-36 -60t-50 -47t-55 -19q-20 0 -32 14t-12 34q0 35 28.5 72.5t69.5 68.5t85.5 51t77.5 20q23 0 40.5 -9t17.5 -35q0 -22 -11 -51.5t-29 -61
t-41.5 -63.5t-48 -59.5t-48.5 -48t-44 -28.5q13 -3 25.5 -5.5t26.5 -2.5q6 0 16 2t14 7l219 327q-26 -66 -60 -130.5t-69 -126.5q0 -5 5.5 -11t13 -11t14.5 -8.5t12 -3.5h2q3 14 18.5 43.5t38 66t49.5 76.5t52 76.5t46.5 65.5t32.5 43q-9 -16 -24 -41.5t-33 -56t-36.5 -63
t-34 -62.5t-25 -55t-9.5 -39q0 -18 10.5 -33.5t27.5 -22.5q-4 12 -4 29q0 30 14 68.5t34.5 78.5t44.5 78.5t44.5 70t34.5 53t14 26.5q0 6 -5 11.5t-12 10.5t-14.5 8.5t-12.5 5.5q-1 -7 -17 -33t-40 -62.5t-52.5 -78t-55 -79t-46.5 -66.5t-27 -39q23 78 66 153.5t85 145.5
q0 10 -5.5 17t-14 11.5t-18 7t-17.5 3.5q3 -1 3 -7q0 -13 -13.5 -42t-31.5 -60.5t-35.5 -60t-25.5 -40.5q5 14 8.5 29t3.5 31q0 38 -21.5 50.5t-56.5 12.5q-38 0 -87 -16.5t-93 -45t-74.5 -67t-30.5 -82.5q0 -35 23.5 -54t55.5 -19zM942 155q15 0 33 8.5t29 18.5
q-8 -3 -17 -3q-17 0 -33.5 9.5t-31 24t-26.5 30.5l-21 28q35 30 71.5 57.5t71.5 59.5v4q0 10 -8.5 22.5t-19.5 12.5q1 -2 1 -5q0 -9 -17 -28.5t-38.5 -41t-42.5 -40t-29 -26.5l-4 7q27 54 55.5 110t63.5 106q-2 14 -17.5 24.5t-27.5 13.5q2 -1 2 -6q0 -9 -5.5 -26.5
t-14.5 -39.5t-20 -45.5t-21.5 -44.5t-20 -38t-14.5 -24q-3 2 -9 2t-12.5 -3t-8.5 -9q12 -2 18 -8q-9 -13 -24 -31.5t-31.5 -37t-33.5 -33.5t-32 -22q2 23 15.5 50t31.5 54t36.5 51.5t32.5 44.5q-15 22 -41 22v-3q0 -7 -6.5 -23.5t-17 -36.5t-23.5 -42.5t-25.5 -42.5
t-23 -36.5t-16.5 -23.5q1 -18 12 -27t28 -11q29 24 54.5 51.5t48.5 56.5q-2 -4 -8 -14.5t-13 -22.5t-12 -22t-5 -13q0 -11 13.5 -19.5t20.5 -16.5v3q0 28 14.5 51.5t32.5 42.5q5 -10 14.5 -26.5t21.5 -32.5t25 -28t25 -12zM1279 367q-3 -6 -11 -20.5t-18.5 -32t-23 -36
t-24.5 -34t-23 -25.5t-18 -10q-3 0 -4 1q-1 2 -1 7q0 17 12 46t29 59.5t35.5 57t30.5 38.5q-1 -5 -1.5 -9.5t-0.5 -9.5q0 -13 3.5 -19.5t14.5 -12.5zM1143 171q-5 6 -11.5 13t-12.5 14.5t-10.5 15t-4.5 15.5q0 21 9.5 44.5t17.5 42.5h-1q-11 -10 -26.5 -26t-29 -34t-23 -37
t-9.5 -35q0 -5 1.5 -10t0.5 -10l-1 -2q4 -2 5 -4zM1843 463q-38 -48 -75.5 -96t-84.5 -89q5 24 19.5 51t33 53.5t39 50.5t36.5 42zM2001 461q-9 -14 -27.5 -42.5t-39.5 -58.5t-41.5 -55t-33.5 -31q3 19 16 48t31 58t37.5 54.5t34.5 38.5zM380 331q-12 -8 -33.5 -26t-42 -39
t-35.5 -42.5t-15 -36.5l1 -1q15 0 35 18t38.5 42t33 48t18.5 37zM461 6q-1 -5 1.5 -10t5.5 -10q29 6 57.5 10.5t57.5 11.5q-4 9 -7.5 18.5t-3.5 19.5l-7 -1q1 -8 3.5 -15.5t5.5 -15.5q-7 5 -11 13t-6 16q-24 -8 -48.5 -16.5t-47.5 -20.5zM450 21q5 4 16 8.5t23.5 9.5t24 9
t18.5 6q-5 2 -12.5 8t-15 13.5l-14.5 14.5t-11 12q-13 -19 -26.5 -42t-29.5 -39q8 2 13.5 1.5t13.5 -1.5zM492 371q-16 0 -31.5 -4t-30.5 -10q11 -14 25 -30.5t18 -33.5q8 14 17.5 37.5t9.5 40.5h-8zM352 -51q0 -4 2 -8q7 12 22 16t31.5 6t31.5 5.5t23 14.5h-1
q-12 -5 -29 -8.5t-30 -4.5q15 2 29 6t28 9l-2 3q-19 -2 -39 -7t-38 -11q4 3 14.5 6t21.5 6t22 5.5t17 3.5l-2 4q-14 -2 -32 -5t-31 -11q12 10 29.5 14.5t32.5 6.5v2q-5 1 -15 1t-24.5 -4t-28 -11t-23 -17t-9.5 -22zM1431 496q0 4 4 9.5t9.5 11t10 11.5t5.5 13q-9 24 -32 32
q-2 -14 -9 -27.5t-7 -27.5q0 -11 5.5 -15t13.5 -9v2zM811 430q10 -10 23 -10q4 0 9.5 5.5t9.5 13t7 15t3 11.5v2q-5 7 -11 13t-15 6h-6q0 -5 -1.5 -13.5t-4 -17t-6 -15.5t-8.5 -10zM1867 188q-1 -5 -1.5 -10.5t-0.5 -11.5q0 -11 3 -20l71 9v10zM1508 480q0 5 4 10t9 9.5
t9.5 10t4.5 11.5q-7 11 -13.5 15t-19.5 7q-2 -14 -9 -29.5t-7 -27.5q0 -7 8.5 -6.5t13.5 -0.5v1zM916 137q-9 11 -18.5 21.5t-17.5 21.5q-9 -10 -14.5 -25t-7.5 -28zM733 102q-13 3 -20.5 6.5t-12 8.5t-8 12.5t-9.5 16.5q-3 -11 -5.5 -22t-2.5 -23l1 -10q14 2 28.5 5t28.5 6
zM570 66q11 5 25 7.5t25 4.5q-7 10 -15.5 18.5t-15.5 19.5q-7 -12 -12.5 -24t-10.5 -24v-4q4 0 4 2zM812 118q-6 7 -11 11.5t-10 12.5l-37 -35q14 3 29 6t29 5zM1556 237q-5 -6 -9.5 -14t-7.5 -16q10 1 19 1.5t19 0.5zM1315 451q-5 -16 -11 -32t-14 -31q-1 3 -1 10
q0 13 6.5 30.5t19.5 22.5zM1793 210q-10 5 -16 10t-11 15q-11 -14 -24 -24zM1832 208q6 0 14 0.5t14 -1.5q1 0 2.5 -1t1.5 1q6 0 14 -3q-15 7 -26 24zM1377 196q-4 5 -6 10l-4 10q-3 -5 -6.5 -10.5t-5.5 -11.5zM1967 157v1l-21 6v-9zM1139 428h1l-1 -1v1z" />
    <glyph glyph-name="greater" unicode="&#x3e;" horiz-adv-x="507" 
d="M135 83l213 152l-208 207l43 43l232 -232q10 -10 8.5 -24t-12.5 -22l-241 -173z" />
    <glyph glyph-name="h" unicode="h" horiz-adv-x="289" 
d="M193 32q-30 33 -30 84v141q0 26 -14.5 38.5t-29.5 12.5q-24 0 -34 -15.5t-10 -35.5v-257h-60v558h60v-199q19 9 44 9q22 0 41 -9t33 -24t22 -35.5t8 -42.5v-138q0 -28 12 -43.5t33 -15.5h78v-60h-78q-46 0 -75 32z" />
    <glyph glyph-name="h.1" unicode="&#xe00a;" horiz-adv-x="602" 
d="M227 136q0 -45 15.5 -75.5t40 -48t54.5 -24.5t59 -5q28 1 54 12t46 30.5t31.5 48t9.5 65.5q-2 27 -13 50t-28 39.5t-39 26t-46 9.5q-26 0 -47 -10l-17 55q17 8 33.5 11t33.5 3q35 0 67 -14t57.5 -38t41 -57.5t17.5 -72.5q2 -52 -14 -91.5t-44.5 -66.5t-65 -41.5
t-74.5 -17.5q-47 -3 -89 8.5t-74 38.5t-50.5 68t-18.5 97v121q0 26 -15 38.5t-30 12.5q-24 0 -35.5 -15.5t-11.5 -35.5v-257h-60v558h60v-199q10 5 23 7t25 2q22 0 41 -9t33 -24t22 -35.5t8 -42.5v-121z" />
    <glyph glyph-name="h.2" unicode="&#xe015;" horiz-adv-x="614" 
d="M223 132q0 -45 15.5 -75t40 -47t54.5 -23t59 -4q28 2 54 13t46 30.5t31.5 47.5t9.5 65l60 2q2 -52 -14 -91.5t-44.5 -66.5t-65 -41.5t-74.5 -17.5q-47 -3 -89 8t-74 37t-50.5 66.5t-18.5 96.5v125q0 26 -14.5 38.5t-29.5 12.5q-24 0 -34 -15.5t-10 -35.5v-257h-60v558h60
v-199q19 9 44 9q22 0 41 -9t33 -24t22 -35.5t8 -42.5v-125zM329 253l46 47l47 -47l-47 -46zM375 207l47 -47l-47 -46l-46 46z" />
    <glyph glyph-name="h.end" unicode="&#xe2a7;" horiz-adv-x="302" 
d="M193 32q-30 33 -30 84v141q0 26 -14.5 38.5t-29.5 12.5q-24 0 -34 -15.5t-10 -35.5v-257h-60v558h60v-199q19 9 44 9q22 0 41 -9t33 -24t22 -35.5t8 -42.5v-138q0 -28 12 -43.5t33 -15.5h153l-20 -60h-133q-46 0 -75 32z" />
    <glyph glyph-name="h.swsh" unicode="&#xe021;" horiz-adv-x="279" 
d="M223 35q0 -35 7 -57.5t22 -36t38 -18.5t56 -5h515q30 0 63 -6t68 -37l-41 -41q-21 20 -41.5 24t-48.5 4h-515q-91 0 -137 41t-46 132v222q0 26 -14.5 38.5t-29.5 12.5q-24 0 -34 -15.5t-10 -35.5v-257h-60v558h60v-199q19 9 44 9q22 0 41 -9t33 -24t22 -35.5t8 -42.5
v-222v0z" />
    <glyph glyph-name="hyphen" unicode="-" horiz-adv-x="577" 
d="M184 190v60h231v-60h-231z" />
    <glyph glyph-name="i" unicode="i" horiz-adv-x="144" 
d="M44 32q-14 16 -21 37.5t-8 47.5v244h60v-243q0 -23 10.5 -40.5t33.5 -17.5h77v-60h-77q-22 0 -41.5 7.5t-33.5 24.5zM1 458l46 47l47 -47l-47 -46z" />
    <glyph glyph-name="i.1" unicode="&#xe00b;" horiz-adv-x="456" 
d="M15 361h60v-225q0 -45 15.5 -75.5t40 -48t54.5 -24.5t59 -5q28 1 54 12t46 30.5t31.5 48t9.5 65.5q-2 27 -13 50t-28 39.5t-39 26t-46 9.5q-26 0 -47 -10l-17 55q17 8 33.5 11t33.5 3q35 0 67 -14t57.5 -38t41 -57.5t17.5 -72.5q2 -52 -14 -91.5t-44.5 -66.5t-65 -41.5
t-74.5 -17.5q-47 -3 -89 8.5t-74 38.5t-50.5 68t-18.5 97v225zM1 458l46 47l47 -47l-47 -46z" />
    <glyph glyph-name="i.end" unicode="&#xe2a8;" horiz-adv-x="231" 
d="M44 32q-14 16 -21 37.5t-8 47.5v244h60v-243q0 -23 10.5 -40.5t33.5 -17.5h157l-30 -60h-127q-22 0 -41.5 7.5t-33.5 24.5zM1 458l46 47l47 -47l-47 -46z" />
    <glyph glyph-name="j" unicode="j" horiz-adv-x="149" 
d="M15 361h60v-250q2 -20 12 -35.5t32 -15.5h77v-60h-77q-26 0 -44 9v-96q0 -48 -26.5 -81.5t-77.5 -33.5h-70v60h70q24 0 34 18t10 41v444zM1 458l46 47l47 -47l-47 -46z" />
    <glyph glyph-name="j.end" unicode="&#xe2a9;" horiz-adv-x="123" 
d="M1 458l46 47l47 -47l-47 -46zM75 361v-352v-55q0 -56 -18.5 -100t-50.5 -74t-74 -44.5t-89 -11.5q-11 1 -21.5 2.5t-21.5 4.5l16 56q8 -2 15 -3t15 -1q29 -2 59 8t54.5 31t40 54t15.5 78v407h60zM1 458l46 47l47 -47l-47 -46z" />
    <glyph glyph-name="j.salt" unicode="&#xe4c9;" horiz-adv-x="149" 
d="M75 361v-250q2 -20 12 -35.5t32 -15.5h77v-60h-77q-26 0 -44 9v-55q0 -56 -18.5 -100t-50.5 -74t-74 -44.5t-89 -11.5q-11 1 -21.5 2.5t-21.5 4.5l16 56q8 -2 15 -3t15 -1q29 -2 59 8t54.5 31t40 54t15.5 78v407h60zM1 458l46 47l47 -47l-47 -46z" />
    <glyph glyph-name="k" unicode="k" horiz-adv-x="295" 
d="M174 122q0 24 -13.5 39.5t-35.5 15.5q-21 0 -35.5 -16t-14.5 -36v-125h-60v558h60v-332l110 135h67l-96 -130q39 -9 58.5 -42t19.5 -70v-59h116v-60h-144q-13 0 -22.5 8.5t-9.5 20.5v93z" />
    <glyph glyph-name="k.end" unicode="&#xe2aa;" horiz-adv-x="340" 
d="M174 122q0 24 -13.5 39.5t-35.5 15.5q-21 0 -35.5 -16t-14.5 -36v-125h-60v558h60v-332l110 135h67l-96 -130q39 -9 58.5 -42t19.5 -70v-59h156l-30 -60h-154q-13 0 -22.5 8.5t-9.5 20.5v93z" />
    <glyph glyph-name="l" unicode="l" horiz-adv-x="143" 
d="M15 549h60v-430q0 -22 10 -40.5t34 -18.5h85v-60h-85q-26 0 -45 10t-32.5 26.5t-20 38t-6.5 43.5v431z" />
    <glyph glyph-name="l.1" unicode="&#xe00c;" horiz-adv-x="459" 
d="M15 593h60v-467q0 -45 15.5 -75.5t40 -48t54.5 -24.5t59 -5q28 1 54 12t46 30.5t31.5 48t9.5 65.5q-2 27 -13 50t-28 39.5t-39 26t-46 9.5q-26 0 -47 -10l-17 55q17 8 33.5 11t33.5 3q35 0 67 -14t57.5 -38t41 -57.5t17.5 -72.5q2 -52 -14 -91.5t-44.5 -66.5t-65 -41.5
t-74.5 -17.5q-47 -3 -89 8.5t-74 38.5t-50.5 68t-18.5 97v467z" />
    <glyph glyph-name="l.2" unicode="&#xe4d9;" horiz-adv-x="463" 
d="M15 558h60v-426q0 -45 15.5 -75t40 -47t54.5 -23t59 -4q28 2 54 13t46 30.5t31.5 47.5t9.5 65l60 2q2 -52 -14 -91.5t-44.5 -66.5t-65 -41.5t-74.5 -17.5q-47 -3 -89 8t-74 37t-50.5 66.5t-18.5 96.5v426z" />
    <glyph glyph-name="l.end" unicode="&#xe2ab;" horiz-adv-x="251" 
d="M15 549h60v-430q0 -22 10 -40.5t34 -18.5h165l-30 -60h-135q-26 0 -45 10t-32.5 26.5t-20 38t-6.5 43.5v431z" />
    <glyph glyph-name="l.swsh" unicode="&#xe022;" horiz-adv-x="137" 
d="M75 35q0 -35 7 -57.5t22 -36t38 -18.5t56 -5h515q30 0 63 -6t68 -37l-41 -41q-21 20 -41.5 24t-48.5 4h-515q-91 0 -137 41t-46 132v564h60v-564z" />
    <glyph glyph-name="less" unicode="&#x3c;" horiz-adv-x="411" 
d="M273 34l-241 173q-11 8 -12.5 22t8.5 24l232 232l43 -43l-208 -207l213 -152z" />
    <glyph glyph-name="m" unicode="m" horiz-adv-x="433" 
d="M301 257q0 24 -12 38q-11 12 -27 12q-20 0 -31 -11q-5 -5 -8.5 -14t-4.5 -22v-260l-60 39v221q-1 11 -4 20t-8 15q-11 13 -27 13q-20 0 -30 -12q-5 -6 -9 -16t-5 -26v-254h-60v255q1 24 8 44.5t21 36.5q30 32 75 32q21 0 38.5 -8.5t30.5 -22.5q30 30 74 30q43 0 71 -31
t28 -79v-138q0 -27 12 -43t33 -16h78v-60h-78q-25 0 -44.5 10t-33 26.5t-20.5 37.5t-7 42v141z" />
    <glyph glyph-name="m.1" unicode="&#xe00d;" horiz-adv-x="746" 
d="M361 136q0 -45 15.5 -75.5t40 -48t54.5 -24.5t59 -5q28 1 54 12t46 30.5t31.5 48t9.5 65.5q-2 27 -13 50t-28 39.5t-39 26t-46 9.5q-26 0 -47 -10l-17 55q17 8 33.5 11t33.5 3q35 0 67 -14t57.5 -38t41 -57.5t17.5 -72.5q2 -52 -14 -91.5t-44.5 -66.5t-65 -41.5
t-74.5 -17.5q-47 -3 -89 8.5t-74 38.5t-50.5 68t-18.5 97v121q0 17 -9 33.5t-30 16.5t-31.5 -13t-12.5 -34v-260h-60v260q-2 16 -10.5 32t-28.5 16q-23 0 -32.5 -16t-11.5 -38v-254h-60v255q1 24 8 44.5t21 36.5q30 32 75 32q21 0 38.5 -8.5t30.5 -22.5q30 30 74 30
q43 0 71 -31t28 -79v-121z" />
    <glyph glyph-name="m.end" unicode="&#xe2ac;" horiz-adv-x="514" 
d="M301 257q0 24 -12 38q-11 12 -27 12q-20 0 -31 -11q-5 -5 -8.5 -14t-4.5 -22v-260h-60v260q-1 11 -4 20t-8 15q-11 13 -27 13q-20 0 -30 -12q-5 -6 -9 -16t-5 -26v-254h-60v255q1 24 8 44.5t21 36.5q30 32 75 32q21 0 38.5 -8.5t30.5 -22.5q30 30 74 30q43 0 71 -31
t28 -79v-138q0 -27 12 -43t33 -16h158l-30 -60h-128q-25 0 -44.5 10t-33 26.5t-20.5 37.5t-7 42v141z" />
    <glyph glyph-name="m.swsh" unicode="&#xe017;" horiz-adv-x="417" 
d="M361 35q0 -35 7 -57.5t22 -36t38 -18.5t56 -5h715q30 0 63 -6t68 -37l-41 -41q-21 20 -41.5 24t-48.5 4h-715q-91 0 -137 41t-46 132v222q0 24 -12 38q-11 12 -27 12q-20 0 -31 -11q-5 -5 -8.5 -14t-4.5 -22v-260l-60 39v221q-1 11 -4 20t-8 15q-11 13 -27 13
q-20 0 -30 -12q-5 -6 -9 -16t-5 -26v-254h-60v255q1 24 8 44.5t21 36.5q30 32 75 32q21 0 38.5 -8.5t30.5 -22.5q30 30 74 30q43 0 71 -31t28 -79v-222v0z" />
    <glyph glyph-name="n" unicode="n" horiz-adv-x="293" 
d="M163 257q0 26 -13.5 38t-28.5 12q-24 0 -35 -16.5t-11 -36.5v-254h-60v254q1 51 30.5 82t75.5 31q22 0 41 -9t32.5 -24t21 -35t7.5 -42v-138q0 -27 12.5 -43t32.5 -16h71v-60h-71q-25 0 -44.5 10t-33 26.5t-20.5 37.5t-7 42v141z" />
    <glyph glyph-name="n.1" unicode="&#xe00e;" horiz-adv-x="614" 
d="M167 257q0 26 -14.5 38t-29.5 12q-24 0 -36 -16.5t-12 -36.5v-254h-60v254q1 51 31.5 82t76.5 31q22 0 41 -9t33 -24t22 -35t8 -42v-121q0 -45 15.5 -75.5t40 -48t54.5 -24.5t59 -5q28 1 54 12t46 30.5t31.5 48t9.5 65.5q-2 27 -13 50t-28 39.5t-39 26t-46 9.5
q-26 0 -47 -10l-17 55q17 8 33.5 11t33.5 3q35 0 67 -14t57.5 -38t41 -57.5t17.5 -72.5q2 -52 -14 -91.5t-44.5 -66.5t-65 -41.5t-74.5 -17.5q-47 -3 -89 8.5t-74 38.5t-50.5 68t-18.5 97v121z" />
    <glyph glyph-name="n.end" unicode="&#xe2ad;" horiz-adv-x="369" 
d="M163 257q0 26 -13.5 38t-28.5 12q-24 0 -35 -16.5t-11 -36.5v-254h-60v254q1 51 30.5 82t75.5 31q22 0 41 -9t32.5 -24t21 -35t7.5 -42v-138q0 -27 12.5 -43t32.5 -16h151l-30 -60h-121q-25 0 -44.5 10t-33 26.5t-20.5 37.5t-7 42v141z" />
    <glyph glyph-name="n.swsh" unicode="&#xe023;" horiz-adv-x="285" 
d="M163 257q0 26 -13.5 38t-28.5 12q-24 0 -35 -16.5t-11 -36.5v-254h-60v254q1 51 30.5 82t75.5 31q22 0 41 -9t32.5 -24t21 -35t7.5 -42v-229q1 -33 8 -54t22 -33.5t38 -17.5t55 -5h515q30 0 63 -6t68 -37l-41 -41q-21 20 -41.5 24t-48.5 4h-515q-87 0 -132.5 36.5
t-50.5 117.5v241z" />
    <glyph glyph-name="nine" unicode="9" horiz-adv-x="459" 
d="M78 60q26 -7 47.5 -9.5t40.5 -2.5q33 0 54 7q25 8 43 22t31 34q20 32 28.5 73.5t10.5 89.5v2l-3 -5q-34 -47 -87 -63q-27 -8 -53 -8q-33 0 -65 12.5t-56 38.5q-23 25 -33.5 61t-8.5 73t18.5 74t54.5 60q44 28 100 28q39 0 78 -17q47 -20 78.5 -67.5t35.5 -122.5
q1 -12 1 -24v-24q0 -56 -10 -112t-39 -101q-18 -28 -44 -49.5t-62 -32.5q-16 -5 -33.5 -7.5t-37.5 -2.5q-47 0 -104 15zM225 265q29 9 51 34t26 69l27 -3l-2 13q-10 41 -30 64t-43 34q-13 6 -26.5 8.5t-27.5 2.5q-38 0 -68 -19q-21 -14 -32 -36.5t-13 -50.5t5.5 -51.5
t20.5 -37.5q15 -16 36 -24t43 -8q15 0 33 5zM119 618l46 47l47 -47l-47 -46zM213 618l46 47l47 -47l-47 -46z" />
    <glyph glyph-name="numbersign" unicode="#" horiz-adv-x="591" 
d="M-8 110v60h132l55 139h-132v60h156l68 172l56 -22l-60 -150h153l68 172l55 -22l-60 -150h98v-60h-121l-55 -139h121v-60h-145l-49 -126l-55 22l41 104h-153l-49 -126l-56 22l41 104h-109zM189 170h152l55 139h-152z" />
    <glyph glyph-name="o" unicode="o" horiz-adv-x="276" 
d="M43 29q-14 17 -21 38t-7 45v147q0 24 9 44t23 34t32.5 21.5t38.5 7.5q52 0 79.5 -34.5t27.5 -82.5v-147q0 -24 -9 -44t-23.5 -34t-33.5 -21.5t-38 -7.5q-23 0 -43.5 8.5t-34.5 25.5zM75 101q0 -25 14 -36.5t30 -11.5q24 0 35 15.5t11 35.5v151q0 24 -13 37.5t-34 13.5
q-14 0 -28.5 -11t-14.5 -36v-158zM29 458l46 47l45 -46l45 46l47 -47l-47 -46l-45 44l-45 -44z" />
    <glyph glyph-name="one" unicode="1" horiz-adv-x="245" 
d="M93 -2v438l-38 -52l-49 35l93 121q6 9 15.5 11t18 -0.5t14.5 -10t6 -18.5v-524h-60z" />
    <glyph glyph-name="p" unicode="p" horiz-adv-x="298" 
d="M15 -200v646h60v-42l2 -3q19 -20 42 -36t43 -33q26 -21 47.5 -49.5t21.5 -73.5v-93q0 -33 -10 -56h132v-60h-278v-200h-60zM171 200q-2 31 -14 50t-32 36l-50 37v-263h51q17 0 31 12t14 35v93z" />
    <glyph glyph-name="p.1" unicode="&#xe005;" horiz-adv-x="277" 
d="M15 -197v558h60v-9q18 9 40 9q23 0 43 -8t34 -25t21 -38.5t7 -45.5v-137q0 -14 -2.5 -25t-7.5 -22h121v-60h-197v1q-4 -1 -7.5 -1h-6.5q-26 0 -45 9v-206h-60zM160 244q0 17 -4 27.5t-9 17.5q-12 12 -32 12q-14 0 -27 -11t-13 -36v-137q0 -17 4 -27.5t9 -16.5
q11 -13 32 -13q14 0 27 11t13 36v137z" />
    <glyph glyph-name="p.end" unicode="&#xe2af;" horiz-adv-x="298" 
d="M15 -250v696h60v-42l2 -3q19 -20 42 -36t43 -33q26 -21 47.5 -49.5t21.5 -73.5v-93q0 -51 -25 -82.5t-80 -33.5h-51v-250h-60zM171 200q-2 31 -14 50t-32 36l-50 37v-263h51q17 0 31 12t14 35v93z" />
    <glyph glyph-name="parenleft" unicode="(" horiz-adv-x="833" 
d="M144 10q-41 54 -61.5 124t-20.5 154q0 18 1 36t3 37q8 69 33 135.5t69 119.5t105 83t139 23l-5 -60q-61 5 -109.5 -18t-83.5 -67q-37 -44 -59 -102t-29 -121q-2 -17 -3 -34t-1 -33q0 -75 18.5 -135.5t51.5 -104.5q34 -46 82 -71t110 -25q19 0 40 3l7 -60q-24 -3 -48 -3
q-75 0 -136 31t-103 88z" />
    <glyph glyph-name="parenright" unicode=")" horiz-adv-x="833" 
d="M394 10q-42 -57 -103 -88t-136 -31q-24 0 -48 3l7 60q21 -3 40 -3q62 0 110 25t82 71q33 44 51.5 104.5t18.5 135.5q0 16 -1 33t-3 34q-7 63 -29 121t-59 102q-35 44 -83.5 67t-109.5 18l-5 60q78 7 139 -23t105 -83t69 -119.5t33 -135.5q2 -19 3 -37t1 -36
q0 -84 -20.5 -154t-61.5 -124z" />
    <glyph glyph-name="percent" unicode="%" horiz-adv-x="660" 
d="M160 -22l-49 35l385 526l48 -35zM150 259q-29 17 -43 52t-14 73q0 25 6 48q6 24 18.5 44t30.5 32q20 14 43 14t42 -13q29 -17 43 -52t14 -73q0 -26 -6 -48q-6 -24 -18.5 -44t-30.5 -32q-20 -14 -43 -14t-42 13zM202 310q6 4 12.5 14t11.5 27q4 15 4 33q0 26 -8.5 46.5
t-20.5 28.5q-10 6 -20 -1q-6 -4 -12.5 -14t-11.5 -27q-4 -15 -4 -33q0 -26 8.5 -46.5t20.5 -28.5q10 -6 20 1zM433 -5q-29 17 -43 52t-14 73q0 25 6 48q13 52 49 76q20 14 44 14q21 0 41 -12q29 -17 43 -52t14 -73q0 -26 -6 -48q-12 -51 -49 -77q-20 -14 -43 -14t-42 13z
M485 46q6 5 12.5 15t11.5 27q4 15 4 33q0 26 -8.5 46t-20.5 28q-10 6 -20 0q-6 -5 -12.5 -15t-11.5 -27q-4 -15 -4 -33q0 -26 8.5 -46t20.5 -28q9 -6 20 0z" />
    <glyph glyph-name="period" unicode="." horiz-adv-x="252" 
d="M101 37l55 57l57 -57l-57 -55z" />
    <glyph glyph-name="perthousand" unicode="&#x2030;" 
d="M334 -51q0 22 15.5 34.5t30.5 23.5q-6 0 -17.5 1t-22.5 3t-21 6.5t-13 10.5q-2 4 -6.5 9.5t-9 11.5t-8 11.5t-3.5 9.5q0 6 4 10.5t9.5 8t11.5 7t10 7.5q-15 -4 -33 -4q-22 0 -45 11.5t-41.5 30t-30 41t-11.5 44.5q0 48 31 90t77 73t99 49t97 18q20 0 33.5 -2.5t24.5 -8.5
t20 -16t20 -25q16 26 31.5 54.5t23.5 57.5q-2 1 -2 4v5q0 7 4 13t12 6q19 0 31.5 -5t21.5 -13t17 -18.5t19 -21.5q10 17 20.5 33.5t17.5 35.5q2 4 6.5 6.5t8.5 2.5q11 0 28 -10.5t34 -24.5t31 -28.5t19 -22.5q2 -2 5.5 -8.5t5.5 -7.5q1 5 6 16.5t10 24t9 23t3 14.5l-2 3v3
q0 8 5.5 13.5t13.5 5.5q12 0 27.5 -10t30 -24.5t24.5 -30t12 -26.5q-2 -11 -7 -18.5t-10 -16.5q2 -2 4.5 -4t4.5 -5q3 6 6.5 10t11.5 4q14 0 30.5 -8.5t21.5 -21.5l19.5 19.5t20.5 17.5h1q2 4 4.5 10.5t6 12.5t8 10.5t10.5 4.5q23 0 34.5 -8t25.5 -25q10 13 25 17
q6 -1 12 -1.5t12 -2.5q3 5 11.5 11.5t13.5 6.5q26 0 36 -11.5t21 -31.5q7 7 11.5 16t9.5 16.5t12.5 11.5t21.5 1q-7 5 -10 13t-3 16q0 6 3 18.5t8 24.5t11 21.5t13 9.5q19 0 32.5 -16.5t22.5 -30.5q3 17 20 17q21 0 35.5 -16.5t25.5 -31.5q8 17 17 42t9 45q0 6 -2.5 10.5
t-2.5 10.5q0 8 5 13t13 5q12 0 29 -9.5t33 -23.5t27.5 -29t11.5 -25q0 -8 -4.5 -18.5t-8.5 -18.5q15 -6 26.5 -22t22.5 -27q4 4 10.5 11.5t14 15.5t15 14t12.5 6q3 0 10.5 -2.5t16 -6t16 -7t10.5 -4.5q7 7 18 7q6 0 13.5 -3.5t14 -9t11 -12.5t3.5 -14q3 3 9.5 11t14 16
t15 14.5t12.5 6.5q7 0 21.5 -4.5t19.5 -9.5q4 9 9.5 21.5t10 26.5t8 27t3.5 23q0 5 -2 7.5t-2 7.5q0 8 5 13.5t12 5.5q15 0 32.5 -9.5t32.5 -24t25 -31t10 -30.5q0 -8 -18.5 -39t-40.5 -73.5t-40.5 -90.5t-18.5 -90q0 -14 3 -23t6 -15t6 -10.5t3 -7.5q0 -7 -5 -13t-12 -6
q-11 0 -23 6t-24 15t-22.5 19t-17.5 18q-8 -8 -18 -17t-23 -7q7 -3 18.5 -5.5t23 -6t22.5 -7t19 -7.5l37 -46l1 -8l-3 -9q-7 -9 -17 -9t-20 -1l-3 1q-20 0 -40 -5t-40 -5q-66 0 -132.5 5.5t-132.5 5.5q-33 0 -79.5 -1t-95.5 -3t-94.5 -6t-75.5 -11h1q-4 -19 -27 -47t-53 -54
t-61 -44.5t-52 -18.5q-18 0 -39.5 8.5t-41 23t-32.5 32.5t-13 37q0 14 4 23q-86 -19 -171.5 -36.5t-169.5 -46.5q-29 -11 -61.5 -16.5t-64.5 -10.5q-10 -11 -22 -15t-25 -6t-26.5 -4t-25.5 -8q-4 -5 -7.5 -8.5t-10.5 -3.5q-8 0 -17 7t-16.5 17t-13 21t-5.5 18zM1158 329
q-11 -21 -23 -48.5t-12 -51.5q0 -8 6 -13.5t14.5 -9.5t17.5 -5.5l15 -2.5q18 9 36 29t33.5 44t28.5 49t21 43q13 0 23 4t18.5 11t16 15.5t16.5 16.5q-32 -65 -70 -127t-79 -122q-161 -16 -322 -44t-318 -67v-1q0 -21 12 -37q57 21 123.5 38.5t135.5 31.5t137 25.5t129 20.5
q-15 -5 -37.5 -15.5t-43.5 -25t-36 -32t-15 -37.5q0 -12 8.5 -20.5t21 -14.5t25.5 -8.5t22 -2.5q19 0 45 16.5t51.5 39.5t46.5 47.5t30 41.5q-14 0 -27 -2.5t-26 -5.5q-13 -14 -31.5 -32t-40.5 -34.5t-44.5 -27.5t-43.5 -11q-9 0 -13 2q-2 2 -2 8q0 10 6.5 19t13.5 15
q24 24 57 40.5t69.5 27.5t73.5 16.5t69 8.5q76 6 151 11t151 5q66 0 131 -3t131 -8l-3 7l-96 11l95 -4v6l-59 6h59l1 5l-96 6h97l1 5q-42 2 -82.5 3.5t-81.5 1.5q-109 0 -215.5 -7.5t-213.5 -19.5q5 9 19 34t31 57t36 67t35 64t27.5 47.5t14.5 19.5q-6 7 -14 11.5t-17 4.5
l-8 -1q-4 -8 -15 -23.5t-24.5 -31t-27 -27.5t-22.5 -12q8 17 15.5 39t7.5 40q0 5 -12.5 8.5t-15.5 4.5q-12 -7 -21 -21q-13 7 -30 7q-11 -8 -23.5 -24t-24.5 -34t-22 -35.5t-16 -29.5q-8 9 -8 25q0 7 4 23t10 32.5t13.5 30t15.5 15.5q-5 8 -14.5 11t-18.5 2l-16 -30
q-32 -26 -60.5 -57t-54.5 -64q12 20 23 40t24 39q-10 25 -39 28q6 -5 6 -13q0 -17 -12.5 -40.5t-28.5 -49t-29.5 -51t-14.5 -45.5q4 -11 14.5 -16t21.5 -7q-2 4 -2 8v8q0 24 15 50.5t37 52t45.5 48t40.5 36.5q-5 -9 -9.5 -19.5t-4.5 -21.5q0 -17 12 -28t29 -9zM1992 220
q-6 4 -9.5 11t-5.5 15.5t-2.5 16.5t-0.5 14q0 36 11.5 74.5t29 77t38.5 74t39 64.5q-3 21 -16.5 30.5t-33.5 12.5q3 -4 4 -8.5t1 -9.5q0 -13 -4.5 -29.5t-11 -33.5t-13.5 -33t-12 -27q-11 8 -23 13.5t-26 8.5q-19 -19 -41.5 -50.5t-46 -64t-46.5 -59t-42 -35.5q0 7 6.5 22
t16 34t21.5 39t24 38t22 30.5t16 16.5q-5 9 -10.5 13.5t-15.5 7.5l-11 -11l-57 23q-28 -27 -51 -57t-45 -61t-46 -60.5t-54 -54.5q1 16 14 45t31 60t37 58t31 38q-4 13 -12 24.5t-22 13.5q-51 -44 -95.5 -99t-82.5 -111q2 18 23 56t47.5 82.5t51.5 87.5t34 72
q-8 15 -21 22.5t-29 10.5q5 -8 5 -21q0 -21 -10.5 -51.5t-28 -65.5t-40 -71t-46.5 -67t-47 -53.5t-41 -31.5q1 21 12 45.5t25.5 50t30.5 48.5t28 41q-7 10 -18 12t-22 1v-3q0 -11 -12.5 -38.5t-29 -58.5t-33 -58t-24.5 -37q2 -17 13.5 -24.5t27.5 -9.5q26 20 49 46t44 51
q-11 -18 -21.5 -36t-21.5 -35q6 -14 16.5 -20.5t23.5 -11.5v5q0 11 11.5 31.5t30 45.5t40.5 52.5t43.5 52t39.5 43.5t28 29q-7 -17 -26.5 -50t-40.5 -67.5t-37.5 -63t-17.5 -36.5q5 -11 17 -18t23 -11q17 14 32.5 30.5t30.5 33.5l-11 -24q5 -11 14 -19t22 -8q16 9 32 26.5
t32 37.5t30.5 40t26.5 35q-11 -25 -27 -47.5t-28 -46.5q0 -17 12 -26t27 -11q16 12 29.5 29t25.5 33l-11 -30q1 -11 12 -23.5t23 -12.5q9 0 23.5 16.5t28.5 37.5t26 41.5t17 28.5l11 19l1 1q0 -2 -5.5 -17t-12.5 -36t-12.5 -43.5t-5.5 -39.5q0 -10 5.5 -17t13.5 -12.5
t17.5 -8.5t17.5 -4zM251 154q25 0 56 14.5t57 37.5t44 50.5t18 53.5q0 16 -7.5 30t-19.5 24q1 -4 1 -7.5v-6.5q0 -26 -14 -58t-36 -60t-50 -47t-55 -19q-20 0 -32 14t-12 34q0 35 28.5 72.5t69.5 68.5t85.5 51t77.5 20q23 0 40.5 -9t17.5 -35q0 -22 -11 -51.5t-29 -61
t-41.5 -63.5t-48 -59.5t-48.5 -48t-44 -28.5q13 -3 25.5 -5.5t26.5 -2.5q6 0 16 2t14 7l219 327q-26 -66 -60 -130.5t-69 -126.5q0 -5 5.5 -11t13 -11t14.5 -8.5t12 -3.5h2q3 14 18.5 43.5t38 66t49.5 76.5t52 76.5t46.5 65.5t32.5 43q-9 -16 -24 -41.5t-33 -56t-36.5 -63
t-34 -62.5t-25 -55t-9.5 -39q0 -18 10.5 -33.5t27.5 -22.5q-4 12 -4 29q0 30 14 68.5t34.5 78.5t44.5 78.5t44.5 70t34.5 53t14 26.5q0 6 -5 11.5t-12 10.5t-14.5 8.5t-12.5 5.5q-1 -7 -17 -33t-40 -62.5t-52.5 -78t-55 -79t-46.5 -66.5t-27 -39q23 78 66 153.5t85 145.5
q0 10 -5.5 17t-14 11.5t-18 7t-17.5 3.5q3 -1 3 -7q0 -13 -13.5 -42t-31.5 -60.5t-35.5 -60t-25.5 -40.5q5 14 8.5 29t3.5 31q0 38 -21.5 50.5t-56.5 12.5q-38 0 -87 -16.5t-93 -45t-74.5 -67t-30.5 -82.5q0 -35 23.5 -54t55.5 -19zM942 155q15 0 33 8.5t29 18.5
q-8 -3 -17 -3q-17 0 -33.5 9.5t-31 24t-26.5 30.5l-21 28q35 30 71.5 57.5t71.5 59.5v4q0 10 -8.5 22.5t-19.5 12.5q1 -2 1 -5q0 -9 -17 -28.5t-38.5 -41t-42.5 -40t-29 -26.5l-4 7q27 54 55.5 110t63.5 106q-2 14 -17.5 24.5t-27.5 13.5q2 -1 2 -6q0 -9 -5.5 -26.5
t-14.5 -39.5t-20 -45.5t-21.5 -44.5t-20 -38t-14.5 -24q-3 2 -9 2t-12.5 -3t-8.5 -9q12 -2 18 -8q-9 -13 -24 -31.5t-31.5 -37t-33.5 -33.5t-32 -22q2 23 15.5 50t31.5 54t36.5 51.5t32.5 44.5q-15 22 -41 22v-3q0 -7 -6.5 -23.5t-17 -36.5t-23.5 -42.5t-25.5 -42.5
t-23 -36.5t-16.5 -23.5q1 -18 12 -27t28 -11q29 24 54.5 51.5t48.5 56.5q-2 -4 -8 -14.5t-13 -22.5t-12 -22t-5 -13q0 -11 13.5 -19.5t20.5 -16.5v3q0 28 14.5 51.5t32.5 42.5q5 -10 14.5 -26.5t21.5 -32.5t25 -28t25 -12zM1279 367q-3 -6 -11 -20.5t-18.5 -32t-23 -36
t-24.5 -34t-23 -25.5t-18 -10q-3 0 -4 1q-1 2 -1 7q0 17 12 46t29 59.5t35.5 57t30.5 38.5q-1 -5 -1.5 -9.5t-0.5 -9.5q0 -13 3.5 -19.5t14.5 -12.5zM1143 171q-5 6 -11.5 13t-12.5 14.5t-10.5 15t-4.5 15.5q0 21 9.5 44.5t17.5 42.5h-1q-11 -10 -26.5 -26t-29 -34t-23 -37
t-9.5 -35q0 -5 1.5 -10t0.5 -10l-1 -2q4 -2 5 -4zM1843 463q-38 -48 -75.5 -96t-84.5 -89q5 24 19.5 51t33 53.5t39 50.5t36.5 42zM2001 461q-9 -14 -27.5 -42.5t-39.5 -58.5t-41.5 -55t-33.5 -31q3 19 16 48t31 58t37.5 54.5t34.5 38.5zM380 331q-12 -8 -33.5 -26t-42 -39
t-35.5 -42.5t-15 -36.5l1 -1q15 0 35 18t38.5 42t33 48t18.5 37zM461 6q-1 -5 1.5 -10t5.5 -10q29 6 57.5 10.5t57.5 11.5q-4 9 -7.5 18.5t-3.5 19.5l-7 -1q1 -8 3.5 -15.5t5.5 -15.5q-7 5 -11 13t-6 16q-24 -8 -48.5 -16.5t-47.5 -20.5zM450 21q5 4 16 8.5t23.5 9.5t24 9
t18.5 6q-5 2 -12.5 8t-15 13.5l-14.5 14.5t-11 12q-13 -19 -26.5 -42t-29.5 -39q8 2 13.5 1.5t13.5 -1.5zM492 371q-16 0 -31.5 -4t-30.5 -10q11 -14 25 -30.5t18 -33.5q8 14 17.5 37.5t9.5 40.5h-8zM352 -51q0 -4 2 -8q7 12 22 16t31.5 6t31.5 5.5t23 14.5h-1
q-12 -5 -29 -8.5t-30 -4.5q15 2 29 6t28 9l-2 3q-19 -2 -39 -7t-38 -11q4 3 14.5 6t21.5 6t22 5.5t17 3.5l-2 4q-14 -2 -32 -5t-31 -11q12 10 29.5 14.5t32.5 6.5v2q-5 1 -15 1t-24.5 -4t-28 -11t-23 -17t-9.5 -22zM1431 496q0 4 4 9.5t9.5 11t10 11.5t5.5 13q-9 24 -32 32
q-2 -14 -9 -27.5t-7 -27.5q0 -11 5.5 -15t13.5 -9v2zM811 430q10 -10 23 -10q4 0 9.5 5.5t9.5 13t7 15t3 11.5v2q-5 7 -11 13t-15 6h-6q0 -5 -1.5 -13.5t-4 -17t-6 -15.5t-8.5 -10zM1867 188q-1 -5 -1.5 -10.5t-0.5 -11.5q0 -11 3 -20l71 9v10zM1508 480q0 5 4 10t9 9.5
t9.5 10t4.5 11.5q-7 11 -13.5 15t-19.5 7q-2 -14 -9 -29.5t-7 -27.5q0 -7 8.5 -6.5t13.5 -0.5v1zM916 137q-9 11 -18.5 21.5t-17.5 21.5q-9 -10 -14.5 -25t-7.5 -28zM733 102q-13 3 -20.5 6.5t-12 8.5t-8 12.5t-9.5 16.5q-3 -11 -5.5 -22t-2.5 -23l1 -10q14 2 28.5 5t28.5 6
zM570 66q11 5 25 7.5t25 4.5q-7 10 -15.5 18.5t-15.5 19.5q-7 -12 -12.5 -24t-10.5 -24v-4q4 0 4 2zM812 118q-6 7 -11 11.5t-10 12.5l-37 -35q14 3 29 6t29 5zM1556 237q-5 -6 -9.5 -14t-7.5 -16q10 1 19 1.5t19 0.5zM1315 451q-5 -16 -11 -32t-14 -31q-1 3 -1 10
q0 13 6.5 30.5t19.5 22.5zM1793 210q-10 5 -16 10t-11 15q-11 -14 -24 -24zM1832 208q6 0 14 0.5t14 -1.5q1 0 2.5 -1t1.5 1q6 0 14 -3q-15 7 -26 24zM1377 196q-4 5 -6 10l-4 10q-3 -5 -6.5 -10.5t-5.5 -11.5zM1967 157v1l-21 6v-9zM1139 428h1l-1 -1v1z" />
    <glyph glyph-name="plus" unicode="+" horiz-adv-x="621" 
d="M269 190h-85v60h85v85h60v-85h86v-60h-86v-86h-60v86z" />
    <glyph glyph-name="q" unicode="q" horiz-adv-x="290" 
d="M342 60v-60h-123v-201h-60v208q-21 -9 -45 -9q-20 0 -37.5 7.5t-31.5 21.5t-22 34t-8 45v148q0 24 8 44t22 34t31.5 21.5t37.5 7.5q24 0 45 -9v9h60v-301h123zM75 106q0 -25 13 -36.5t27 -11.5q26 0 35 15.5t9 35.5v141q-2 23 -12 37t-31 14q-14 0 -27.5 -11t-13.5 -36
v-148z" />
    <glyph glyph-name="q.end" unicode="&#xe2b0;" horiz-adv-x="290" 
d="M159 -201v208q-21 -9 -45 -9q-20 0 -37.5 7.5t-31.5 21.5t-22 34t-8 45v148q0 24 8 44t22 34t31.5 21.5t37.5 7.5q24 0 45 -9v9h60v-562h-60zM75 106q0 -25 13 -36.5t27 -11.5q26 0 35 15.5t9 35.5v141q-2 23 -12 37t-31 14q-14 0 -27.5 -11t-13.5 -36v-148z" />
    <glyph glyph-name="question" unicode="?" horiz-adv-x="495" 
d="M150 148q7 27 20.5 50t30.5 43t35 38.5t35 37.5q33 37 55 79.5t18 102.5q-2 23 -13 43t-27.5 33.5t-37 20.5t-41.5 5q-32 -3 -55 -18.5t-36 -41.5q-17 -32 -17 -74q0 -31 10 -64l-57 -17q-6 22 -9.5 42t-3.5 40q0 39 11.5 72.5t32.5 59t51 41.5t68 20q33 3 64.5 -8
t57.5 -32t42.5 -51.5t19.5 -66.5q3 -39 -4 -71.5t-19.5 -60t-30 -50.5t-35.5 -44q-17 -19 -33.5 -36.5t-31.5 -35t-26 -35.5t-16 -37zM141 28l46 47l47 -47l-47 -46z" />
    <glyph glyph-name="quotedbl" unicode="&#x22;" horiz-adv-x="224" 
d="M188 654v-136h-60v136h60zM88 654v-136h-60v136h60z" />
    <glyph glyph-name="quotesingle" unicode="'" horiz-adv-x="144" 
d="M88 654v-136h-60v136h60z" />
    <glyph glyph-name="r" unicode="r" horiz-adv-x="250" 
d="M15 0v243q0 49 27.5 83.5t76.5 34.5h71l20 -60h-91q-13 0 -21.5 -5.5t-13.5 -14t-7 -19t-2 -20.5v-242h-60z" />
    <glyph glyph-name="r.1" unicode="&#xe00f;" horiz-adv-x="614" 
d="M231 136q0 -45 15.5 -75.5t40 -48t54.5 -24.5t59 -5q28 1 54 12t46 30.5t31.5 48t9.5 65.5q-2 27 -13 50t-28 39.5t-39 26t-46 9.5q-26 0 -47 -10l-17 55q17 8 33.5 11t33.5 3q35 0 67 -14t57.5 -38t41 -57.5t17.5 -72.5q2 -52 -14 -91.5t-44.5 -66.5t-65 -41.5
t-74.5 -17.5q-47 -3 -89 8.5t-74 38.5t-50.5 68t-18.5 97v64q-1 15 -5.5 29.5t-15 30t-29 33.5t-46.5 40v-333h-60v446h60v-32l2 -3q21 -22 46.5 -42t48.5 -42t39.5 -49t19.5 -63v-79z" />
    <glyph glyph-name="r.salt" unicode="&#xe4d1;" horiz-adv-x="308" 
d="M200 32q-14 16 -21 37.5t-8 47.5v83q-1 15 -5.5 25t-15 20t-29 23.5t-46.5 35.5v-304h-60v436h60v-51l2 -3q20 -22 46.5 -39.5t50.5 -36.5t40.5 -42t16.5 -55v-91q0 -23 10.5 -40.5t33.5 -17.5h77v-60h-77q-22 0 -41.5 7.5t-33.5 24.5z" />
    <glyph glyph-name="registered" unicode="&#xae;" 
d="M334 -51q0 22 15.5 34.5t30.5 23.5q-6 0 -17.5 1t-22.5 3t-21 6.5t-13 10.5q-2 4 -6.5 9.5t-9 11.5t-8 11.5t-3.5 9.5q0 6 4 10.5t9.5 8t11.5 7t10 7.5q-15 -4 -33 -4q-22 0 -45 11.5t-41.5 30t-30 41t-11.5 44.5q0 48 31 90t77 73t99 49t97 18q20 0 33.5 -2.5t24.5 -8.5
t20 -16t20 -25q16 26 31.5 54.5t23.5 57.5q-2 1 -2 4v5q0 7 4 13t12 6q19 0 31.5 -5t21.5 -13t17 -18.5t19 -21.5q10 17 20.5 33.5t17.5 35.5q2 4 6.5 6.5t8.5 2.5q11 0 28 -10.5t34 -24.5t31 -28.5t19 -22.5q2 -2 5.5 -8.5t5.5 -7.5q1 5 6 16.5t10 24t9 23t3 14.5l-2 3v3
q0 8 5.5 13.5t13.5 5.5q12 0 27.5 -10t30 -24.5t24.5 -30t12 -26.5q-2 -11 -7 -18.5t-10 -16.5q2 -2 4.5 -4t4.5 -5q3 6 6.5 10t11.5 4q14 0 30.5 -8.5t21.5 -21.5l19.5 19.5t20.5 17.5h1q2 4 4.5 10.5t6 12.5t8 10.5t10.5 4.5q23 0 34.5 -8t25.5 -25q10 13 25 17
q6 -1 12 -1.5t12 -2.5q3 5 11.5 11.5t13.5 6.5q26 0 36 -11.5t21 -31.5q7 7 11.5 16t9.5 16.5t12.5 11.5t21.5 1q-7 5 -10 13t-3 16q0 6 3 18.5t8 24.5t11 21.5t13 9.5q19 0 32.5 -16.5t22.5 -30.5q3 17 20 17q21 0 35.5 -16.5t25.5 -31.5q8 17 17 42t9 45q0 6 -2.5 10.5
t-2.5 10.5q0 8 5 13t13 5q12 0 29 -9.5t33 -23.5t27.5 -29t11.5 -25q0 -8 -4.5 -18.5t-8.5 -18.5q15 -6 26.5 -22t22.5 -27q4 4 10.5 11.5t14 15.5t15 14t12.5 6q3 0 10.5 -2.5t16 -6t16 -7t10.5 -4.5q7 7 18 7q6 0 13.5 -3.5t14 -9t11 -12.5t3.5 -14q3 3 9.5 11t14 16
t15 14.5t12.5 6.5q7 0 21.5 -4.5t19.5 -9.5q4 9 9.5 21.5t10 26.5t8 27t3.5 23q0 5 -2 7.5t-2 7.5q0 8 5 13.5t12 5.5q15 0 32.5 -9.5t32.5 -24t25 -31t10 -30.5q0 -8 -18.5 -39t-40.5 -73.5t-40.5 -90.5t-18.5 -90q0 -14 3 -23t6 -15t6 -10.5t3 -7.5q0 -7 -5 -13t-12 -6
q-11 0 -23 6t-24 15t-22.5 19t-17.5 18q-8 -8 -18 -17t-23 -7q7 -3 18.5 -5.5t23 -6t22.5 -7t19 -7.5l37 -46l1 -8l-3 -9q-7 -9 -17 -9t-20 -1l-3 1q-20 0 -40 -5t-40 -5q-66 0 -132.5 5.5t-132.5 5.5q-33 0 -79.5 -1t-95.5 -3t-94.5 -6t-75.5 -11h1q-4 -19 -27 -47t-53 -54
t-61 -44.5t-52 -18.5q-18 0 -39.5 8.5t-41 23t-32.5 32.5t-13 37q0 14 4 23q-86 -19 -171.5 -36.5t-169.5 -46.5q-29 -11 -61.5 -16.5t-64.5 -10.5q-10 -11 -22 -15t-25 -6t-26.5 -4t-25.5 -8q-4 -5 -7.5 -8.5t-10.5 -3.5q-8 0 -17 7t-16.5 17t-13 21t-5.5 18zM1158 329
q-11 -21 -23 -48.5t-12 -51.5q0 -8 6 -13.5t14.5 -9.5t17.5 -5.5l15 -2.5q18 9 36 29t33.5 44t28.5 49t21 43q13 0 23 4t18.5 11t16 15.5t16.5 16.5q-32 -65 -70 -127t-79 -122q-161 -16 -322 -44t-318 -67v-1q0 -21 12 -37q57 21 123.5 38.5t135.5 31.5t137 25.5t129 20.5
q-15 -5 -37.5 -15.5t-43.5 -25t-36 -32t-15 -37.5q0 -12 8.5 -20.5t21 -14.5t25.5 -8.5t22 -2.5q19 0 45 16.5t51.5 39.5t46.5 47.5t30 41.5q-14 0 -27 -2.5t-26 -5.5q-13 -14 -31.5 -32t-40.5 -34.5t-44.5 -27.5t-43.5 -11q-9 0 -13 2q-2 2 -2 8q0 10 6.5 19t13.5 15
q24 24 57 40.5t69.5 27.5t73.5 16.5t69 8.5q76 6 151 11t151 5q66 0 131 -3t131 -8l-3 7l-96 11l95 -4v6l-59 6h59l1 5l-96 6h97l1 5q-42 2 -82.5 3.5t-81.5 1.5q-109 0 -215.5 -7.5t-213.5 -19.5q5 9 19 34t31 57t36 67t35 64t27.5 47.5t14.5 19.5q-6 7 -14 11.5t-17 4.5
l-8 -1q-4 -8 -15 -23.5t-24.5 -31t-27 -27.5t-22.5 -12q8 17 15.5 39t7.5 40q0 5 -12.5 8.5t-15.5 4.5q-12 -7 -21 -21q-13 7 -30 7q-11 -8 -23.5 -24t-24.5 -34t-22 -35.5t-16 -29.5q-8 9 -8 25q0 7 4 23t10 32.5t13.5 30t15.5 15.5q-5 8 -14.5 11t-18.5 2l-16 -30
q-32 -26 -60.5 -57t-54.5 -64q12 20 23 40t24 39q-10 25 -39 28q6 -5 6 -13q0 -17 -12.5 -40.5t-28.5 -49t-29.5 -51t-14.5 -45.5q4 -11 14.5 -16t21.5 -7q-2 4 -2 8v8q0 24 15 50.5t37 52t45.5 48t40.5 36.5q-5 -9 -9.5 -19.5t-4.5 -21.5q0 -17 12 -28t29 -9zM1992 220
q-6 4 -9.5 11t-5.5 15.5t-2.5 16.5t-0.5 14q0 36 11.5 74.5t29 77t38.5 74t39 64.5q-3 21 -16.5 30.5t-33.5 12.5q3 -4 4 -8.5t1 -9.5q0 -13 -4.5 -29.5t-11 -33.5t-13.5 -33t-12 -27q-11 8 -23 13.5t-26 8.5q-19 -19 -41.5 -50.5t-46 -64t-46.5 -59t-42 -35.5q0 7 6.5 22
t16 34t21.5 39t24 38t22 30.5t16 16.5q-5 9 -10.5 13.5t-15.5 7.5l-11 -11l-57 23q-28 -27 -51 -57t-45 -61t-46 -60.5t-54 -54.5q1 16 14 45t31 60t37 58t31 38q-4 13 -12 24.5t-22 13.5q-51 -44 -95.5 -99t-82.5 -111q2 18 23 56t47.5 82.5t51.5 87.5t34 72
q-8 15 -21 22.5t-29 10.5q5 -8 5 -21q0 -21 -10.5 -51.5t-28 -65.5t-40 -71t-46.5 -67t-47 -53.5t-41 -31.5q1 21 12 45.5t25.5 50t30.5 48.5t28 41q-7 10 -18 12t-22 1v-3q0 -11 -12.5 -38.5t-29 -58.5t-33 -58t-24.5 -37q2 -17 13.5 -24.5t27.5 -9.5q26 20 49 46t44 51
q-11 -18 -21.5 -36t-21.5 -35q6 -14 16.5 -20.5t23.5 -11.5v5q0 11 11.5 31.5t30 45.5t40.5 52.5t43.5 52t39.5 43.5t28 29q-7 -17 -26.5 -50t-40.5 -67.5t-37.5 -63t-17.5 -36.5q5 -11 17 -18t23 -11q17 14 32.5 30.5t30.5 33.5l-11 -24q5 -11 14 -19t22 -8q16 9 32 26.5
t32 37.5t30.5 40t26.5 35q-11 -25 -27 -47.5t-28 -46.5q0 -17 12 -26t27 -11q16 12 29.5 29t25.5 33l-11 -30q1 -11 12 -23.5t23 -12.5q9 0 23.5 16.5t28.5 37.5t26 41.5t17 28.5l11 19l1 1q0 -2 -5.5 -17t-12.5 -36t-12.5 -43.5t-5.5 -39.5q0 -10 5.5 -17t13.5 -12.5
t17.5 -8.5t17.5 -4zM251 154q25 0 56 14.5t57 37.5t44 50.5t18 53.5q0 16 -7.5 30t-19.5 24q1 -4 1 -7.5v-6.5q0 -26 -14 -58t-36 -60t-50 -47t-55 -19q-20 0 -32 14t-12 34q0 35 28.5 72.5t69.5 68.5t85.5 51t77.5 20q23 0 40.5 -9t17.5 -35q0 -22 -11 -51.5t-29 -61
t-41.5 -63.5t-48 -59.5t-48.5 -48t-44 -28.5q13 -3 25.5 -5.5t26.5 -2.5q6 0 16 2t14 7l219 327q-26 -66 -60 -130.5t-69 -126.5q0 -5 5.5 -11t13 -11t14.5 -8.5t12 -3.5h2q3 14 18.5 43.5t38 66t49.5 76.5t52 76.5t46.5 65.5t32.5 43q-9 -16 -24 -41.5t-33 -56t-36.5 -63
t-34 -62.5t-25 -55t-9.5 -39q0 -18 10.5 -33.5t27.5 -22.5q-4 12 -4 29q0 30 14 68.5t34.5 78.5t44.5 78.5t44.5 70t34.5 53t14 26.5q0 6 -5 11.5t-12 10.5t-14.5 8.5t-12.5 5.5q-1 -7 -17 -33t-40 -62.5t-52.5 -78t-55 -79t-46.5 -66.5t-27 -39q23 78 66 153.5t85 145.5
q0 10 -5.5 17t-14 11.5t-18 7t-17.5 3.5q3 -1 3 -7q0 -13 -13.5 -42t-31.5 -60.5t-35.5 -60t-25.5 -40.5q5 14 8.5 29t3.5 31q0 38 -21.5 50.5t-56.5 12.5q-38 0 -87 -16.5t-93 -45t-74.5 -67t-30.5 -82.5q0 -35 23.5 -54t55.5 -19zM942 155q15 0 33 8.5t29 18.5
q-8 -3 -17 -3q-17 0 -33.5 9.5t-31 24t-26.5 30.5l-21 28q35 30 71.5 57.5t71.5 59.5v4q0 10 -8.5 22.5t-19.5 12.5q1 -2 1 -5q0 -9 -17 -28.5t-38.5 -41t-42.5 -40t-29 -26.5l-4 7q27 54 55.5 110t63.5 106q-2 14 -17.5 24.5t-27.5 13.5q2 -1 2 -6q0 -9 -5.5 -26.5
t-14.5 -39.5t-20 -45.5t-21.5 -44.5t-20 -38t-14.5 -24q-3 2 -9 2t-12.5 -3t-8.5 -9q12 -2 18 -8q-9 -13 -24 -31.5t-31.5 -37t-33.5 -33.5t-32 -22q2 23 15.5 50t31.5 54t36.5 51.5t32.5 44.5q-15 22 -41 22v-3q0 -7 -6.5 -23.5t-17 -36.5t-23.5 -42.5t-25.5 -42.5
t-23 -36.5t-16.5 -23.5q1 -18 12 -27t28 -11q29 24 54.5 51.5t48.5 56.5q-2 -4 -8 -14.5t-13 -22.5t-12 -22t-5 -13q0 -11 13.5 -19.5t20.5 -16.5v3q0 28 14.5 51.5t32.5 42.5q5 -10 14.5 -26.5t21.5 -32.5t25 -28t25 -12zM1279 367q-3 -6 -11 -20.5t-18.5 -32t-23 -36
t-24.5 -34t-23 -25.5t-18 -10q-3 0 -4 1q-1 2 -1 7q0 17 12 46t29 59.5t35.5 57t30.5 38.5q-1 -5 -1.5 -9.5t-0.5 -9.5q0 -13 3.5 -19.5t14.5 -12.5zM1143 171q-5 6 -11.5 13t-12.5 14.5t-10.5 15t-4.5 15.5q0 21 9.5 44.5t17.5 42.5h-1q-11 -10 -26.5 -26t-29 -34t-23 -37
t-9.5 -35q0 -5 1.5 -10t0.5 -10l-1 -2q4 -2 5 -4zM1843 463q-38 -48 -75.5 -96t-84.5 -89q5 24 19.5 51t33 53.5t39 50.5t36.5 42zM2001 461q-9 -14 -27.5 -42.5t-39.5 -58.5t-41.5 -55t-33.5 -31q3 19 16 48t31 58t37.5 54.5t34.5 38.5zM380 331q-12 -8 -33.5 -26t-42 -39
t-35.5 -42.5t-15 -36.5l1 -1q15 0 35 18t38.5 42t33 48t18.5 37zM461 6q-1 -5 1.5 -10t5.5 -10q29 6 57.5 10.5t57.5 11.5q-4 9 -7.5 18.5t-3.5 19.5l-7 -1q1 -8 3.5 -15.5t5.5 -15.5q-7 5 -11 13t-6 16q-24 -8 -48.5 -16.5t-47.5 -20.5zM450 21q5 4 16 8.5t23.5 9.5t24 9
t18.5 6q-5 2 -12.5 8t-15 13.5l-14.5 14.5t-11 12q-13 -19 -26.5 -42t-29.5 -39q8 2 13.5 1.5t13.5 -1.5zM492 371q-16 0 -31.5 -4t-30.5 -10q11 -14 25 -30.5t18 -33.5q8 14 17.5 37.5t9.5 40.5h-8zM352 -51q0 -4 2 -8q7 12 22 16t31.5 6t31.5 5.5t23 14.5h-1
q-12 -5 -29 -8.5t-30 -4.5q15 2 29 6t28 9l-2 3q-19 -2 -39 -7t-38 -11q4 3 14.5 6t21.5 6t22 5.5t17 3.5l-2 4q-14 -2 -32 -5t-31 -11q12 10 29.5 14.5t32.5 6.5v2q-5 1 -15 1t-24.5 -4t-28 -11t-23 -17t-9.5 -22zM1431 496q0 4 4 9.5t9.5 11t10 11.5t5.5 13q-9 24 -32 32
q-2 -14 -9 -27.5t-7 -27.5q0 -11 5.5 -15t13.5 -9v2zM811 430q10 -10 23 -10q4 0 9.5 5.5t9.5 13t7 15t3 11.5v2q-5 7 -11 13t-15 6h-6q0 -5 -1.5 -13.5t-4 -17t-6 -15.5t-8.5 -10zM1867 188q-1 -5 -1.5 -10.5t-0.5 -11.5q0 -11 3 -20l71 9v10zM1508 480q0 5 4 10t9 9.5
t9.5 10t4.5 11.5q-7 11 -13.5 15t-19.5 7q-2 -14 -9 -29.5t-7 -27.5q0 -7 8.5 -6.5t13.5 -0.5v1zM916 137q-9 11 -18.5 21.5t-17.5 21.5q-9 -10 -14.5 -25t-7.5 -28zM733 102q-13 3 -20.5 6.5t-12 8.5t-8 12.5t-9.5 16.5q-3 -11 -5.5 -22t-2.5 -23l1 -10q14 2 28.5 5t28.5 6
zM570 66q11 5 25 7.5t25 4.5q-7 10 -15.5 18.5t-15.5 19.5q-7 -12 -12.5 -24t-10.5 -24v-4q4 0 4 2zM812 118q-6 7 -11 11.5t-10 12.5l-37 -35q14 3 29 6t29 5zM1556 237q-5 -6 -9.5 -14t-7.5 -16q10 1 19 1.5t19 0.5zM1315 451q-5 -16 -11 -32t-14 -31q-1 3 -1 10
q0 13 6.5 30.5t19.5 22.5zM1793 210q-10 5 -16 10t-11 15q-11 -14 -24 -24zM1832 208q6 0 14 0.5t14 -1.5q1 0 2.5 -1t1.5 1q6 0 14 -3q-15 7 -26 24zM1377 196q-4 5 -6 10l-4 10q-3 -5 -6.5 -10.5t-5.5 -11.5zM1967 157v1l-21 6v-9zM1139 428h1l-1 -1v1z" />
    <glyph glyph-name="s" unicode="s" horiz-adv-x="298" 
d="M14 60h109q9 0 18.5 2.5t17.5 8t13.5 15t5.5 24.5q0 24 -14 36q-14 14 -41 14h-78q-13 0 -21.5 8.5t-8.5 21.5v63q0 50 27.5 79t76.5 29h91l-20 -60h-71q-26 0 -34.5 -16.5t-9.5 -36.5v-28h48q50 0 82.5 -30t32.5 -80q0 -27 -13 -50h136v-60h-377zM24 -82l46 47l45 -45
l45 45l47 -47l-47 -46l-45 45l-45 -45z" />
    <glyph glyph-name="s.1" unicode="&#xe010;" horiz-adv-x="358" 
d="M15 253q0 50 27.5 79t76.5 29h91l-20 -60h-71q-26 0 -34.5 -16.5t-9.5 -36.5v-68h50q55 0 96.5 -18.5t68.5 -50.5t38.5 -74t8.5 -89q-3 -38 -17.5 -74.5t-41.5 -65t-66.5 -44.5t-91.5 -14q-39 2 -72.5 17.5t-57.5 41t-38 57.5t-14 67q0 17 3 33.5t11 33.5l55 -17
q-10 -21 -10 -47q0 -24 9.5 -46t26 -39t39.5 -28.5t50 -12.5q37 -2 65.5 9.5t48 31.5t30 46t12.5 54q1 29 -5.5 59t-24 54.5t-48 40t-75.5 15.5h-80q-13 0 -21.5 8.5t-8.5 21.5v103z" />
    <glyph glyph-name="s.2" unicode="&#xe011;" horiz-adv-x="371" 
d="M-29 -130q20 -33 58.5 -54t92.5 -21q33 0 64 9.5t55.5 28.5t39.5 46.5t16 62.5q1 30 -8 58.5t-30 50.5t-56 35.5t-87 13.5h-71q-13 0 -21.5 8.5t-8.5 21.5v123q0 50 27.5 79t76.5 29h91l-20 -60h-71q-26 0 -34.5 -16.5t-9.5 -36.5v-88h41q71 0 118 -20.5t75 -52
t39.5 -70.5t10.5 -75q-1 -47 -19 -84t-49 -63.5t-72.5 -41.5t-89.5 -17q-70 -3 -124.5 23t-84.5 73zM39 -337l46 47l45 -45l45 45l47 -47l-47 -46l-45 45l-45 -45z" />
    <glyph glyph-name="s.end" unicode="&#xe2b2;" horiz-adv-x="308" 
d="M75 -51l41 -41l-41 -40l-40 40zM196 -92l-40 -40l-40 40l40 41zM-45 0v60h168q9 0 18.5 2.5t17.5 8t13.5 15t5.5 24.5q0 24 -14 36q-14 14 -41 14h-78q-13 0 -21.5 8.5t-8.5 21.5v63q0 50 27.5 79t76.5 29h91l-20 -60h-71q-26 0 -34.5 -16.5t-9.5 -36.5v-28h48
q50 0 82.5 -30t32.5 -80q0 -24 -9.5 -44.5t-25.5 -35t-37 -22.5t-43 -8h-168z" />
    <glyph glyph-name="s.salt" unicode="&#xe4d2;" horiz-adv-x="298" 
d="M14 60h109q9 0 18.5 2.5t17.5 8t13.5 15t5.5 24.5q0 24 -14 36q-14 14 -41 14h-78q-13 0 -21.5 8.5t-8.5 21.5v42q0 25 11 46.5t28 40.5t38 35t42 29l77 46l15 -58l-60 -39q-11 -7 -26.5 -17.5t-30 -24.5t-24.5 -30t-10 -33v-7h48q50 0 82.5 -30t32.5 -80q0 -27 -13 -50
h136v-60h-377zM24 -82l46 47l45 -45l45 45l47 -47l-47 -46l-45 45l-45 -45z" />
    <glyph glyph-name="semicolon" unicode=";" horiz-adv-x="295" 
d="M120 23q5 1 9 5q6 4 10 16q11 24 8 58l60 4q2 -20 -1 -42.5t-11 -42.5q-8 -22 -25 -38q-9 -8 -20 -13t-25 -7zM131 378l46 47l47 -47l-47 -46z" />
    <glyph glyph-name="seven" unicode="7" horiz-adv-x="386" 
d="M81 -16l-53 27l240 466h-275l30 60h294q17 0 25.5 -14t0.5 -29zM99 622l46 47l47 -47l-47 -46zM193 622l46 47l47 -47l-47 -46z" />
    <glyph glyph-name="six" unicode="6" horiz-adv-x="459" 
d="M132 -5q-48 21 -80.5 69t-36.5 124q-4 67 12 136.5t55 123.5q31 42 75.5 66t103.5 24q38 0 83 -12l-16 -58q-36 10 -67 10q-45 0 -76.5 -18.5t-54.5 -47.5q-20 -26 -32.5 -59.5t-18.5 -70.5l-3 -26l1 1q34 48 87 63q27 8 53 8q33 0 65 -12.5t56 -38.5q22 -24 34 -59
t11 -72q-1 -38 -16.5 -75t-52.5 -63q-43 -31 -101 -31q-42 0 -81 18zM279 57q23 16 33.5 40t10.5 50q1 27 -7.5 51t-21.5 38q-15 16 -36 24t-43 8q-15 0 -33 -5q-29 -9 -51 -34t-26 -69l-27 2l2 -12q10 -41 31 -65.5t46 -35.5q14 -6 27.5 -8.5t27.5 -2.5q38 0 67 19z
M96 -106l46 47l47 -47l-47 -46zM190 -106l46 47l47 -47l-47 -46z" />
    <glyph glyph-name="slash" unicode="/" horiz-adv-x="453" 
d="M130 -72l-53 28l415 779l53 -28z" />
    <glyph glyph-name="space" unicode=" " horiz-adv-x="148" 
 />
    <glyph glyph-name="sterling" unicode="&#xa3;" 
d="M334 -51q0 22 15.5 34.5t30.5 23.5q-6 0 -17.5 1t-22.5 3t-21 6.5t-13 10.5q-2 4 -6.5 9.5t-9 11.5t-8 11.5t-3.5 9.5q0 6 4 10.5t9.5 8t11.5 7t10 7.5q-15 -4 -33 -4q-22 0 -45 11.5t-41.5 30t-30 41t-11.5 44.5q0 48 31 90t77 73t99 49t97 18q20 0 33.5 -2.5t24.5 -8.5
t20 -16t20 -25q16 26 31.5 54.5t23.5 57.5q-2 1 -2 4v5q0 7 4 13t12 6q19 0 31.5 -5t21.5 -13t17 -18.5t19 -21.5q10 17 20.5 33.5t17.5 35.5q2 4 6.5 6.5t8.5 2.5q11 0 28 -10.5t34 -24.5t31 -28.5t19 -22.5q2 -2 5.5 -8.5t5.5 -7.5q1 5 6 16.5t10 24t9 23t3 14.5l-2 3v3
q0 8 5.5 13.5t13.5 5.5q12 0 27.5 -10t30 -24.5t24.5 -30t12 -26.5q-2 -11 -7 -18.5t-10 -16.5q2 -2 4.5 -4t4.5 -5q3 6 6.5 10t11.5 4q14 0 30.5 -8.5t21.5 -21.5l19.5 19.5t20.5 17.5h1q2 4 4.5 10.5t6 12.5t8 10.5t10.5 4.5q23 0 34.5 -8t25.5 -25q10 13 25 17
q6 -1 12 -1.5t12 -2.5q3 5 11.5 11.5t13.5 6.5q26 0 36 -11.5t21 -31.5q7 7 11.5 16t9.5 16.5t12.5 11.5t21.5 1q-7 5 -10 13t-3 16q0 6 3 18.5t8 24.5t11 21.5t13 9.5q19 0 32.5 -16.5t22.5 -30.5q3 17 20 17q21 0 35.5 -16.5t25.5 -31.5q8 17 17 42t9 45q0 6 -2.5 10.5
t-2.5 10.5q0 8 5 13t13 5q12 0 29 -9.5t33 -23.5t27.5 -29t11.5 -25q0 -8 -4.5 -18.5t-8.5 -18.5q15 -6 26.5 -22t22.5 -27q4 4 10.5 11.5t14 15.5t15 14t12.5 6q3 0 10.5 -2.5t16 -6t16 -7t10.5 -4.5q7 7 18 7q6 0 13.5 -3.5t14 -9t11 -12.5t3.5 -14q3 3 9.5 11t14 16
t15 14.5t12.5 6.5q7 0 21.5 -4.5t19.5 -9.5q4 9 9.5 21.5t10 26.5t8 27t3.5 23q0 5 -2 7.5t-2 7.5q0 8 5 13.5t12 5.5q15 0 32.5 -9.5t32.5 -24t25 -31t10 -30.5q0 -8 -18.5 -39t-40.5 -73.5t-40.5 -90.5t-18.5 -90q0 -14 3 -23t6 -15t6 -10.5t3 -7.5q0 -7 -5 -13t-12 -6
q-11 0 -23 6t-24 15t-22.5 19t-17.5 18q-8 -8 -18 -17t-23 -7q7 -3 18.5 -5.5t23 -6t22.5 -7t19 -7.5l37 -46l1 -8l-3 -9q-7 -9 -17 -9t-20 -1l-3 1q-20 0 -40 -5t-40 -5q-66 0 -132.5 5.5t-132.5 5.5q-33 0 -79.5 -1t-95.5 -3t-94.5 -6t-75.5 -11h1q-4 -19 -27 -47t-53 -54
t-61 -44.5t-52 -18.5q-18 0 -39.5 8.5t-41 23t-32.5 32.5t-13 37q0 14 4 23q-86 -19 -171.5 -36.5t-169.5 -46.5q-29 -11 -61.5 -16.5t-64.5 -10.5q-10 -11 -22 -15t-25 -6t-26.5 -4t-25.5 -8q-4 -5 -7.5 -8.5t-10.5 -3.5q-8 0 -17 7t-16.5 17t-13 21t-5.5 18zM1158 329
q-11 -21 -23 -48.5t-12 -51.5q0 -8 6 -13.5t14.5 -9.5t17.5 -5.5l15 -2.5q18 9 36 29t33.5 44t28.5 49t21 43q13 0 23 4t18.5 11t16 15.5t16.5 16.5q-32 -65 -70 -127t-79 -122q-161 -16 -322 -44t-318 -67v-1q0 -21 12 -37q57 21 123.5 38.5t135.5 31.5t137 25.5t129 20.5
q-15 -5 -37.5 -15.5t-43.5 -25t-36 -32t-15 -37.5q0 -12 8.5 -20.5t21 -14.5t25.5 -8.5t22 -2.5q19 0 45 16.5t51.5 39.5t46.5 47.5t30 41.5q-14 0 -27 -2.5t-26 -5.5q-13 -14 -31.5 -32t-40.5 -34.5t-44.5 -27.5t-43.5 -11q-9 0 -13 2q-2 2 -2 8q0 10 6.5 19t13.5 15
q24 24 57 40.5t69.5 27.5t73.5 16.5t69 8.5q76 6 151 11t151 5q66 0 131 -3t131 -8l-3 7l-96 11l95 -4v6l-59 6h59l1 5l-96 6h97l1 5q-42 2 -82.5 3.5t-81.5 1.5q-109 0 -215.5 -7.5t-213.5 -19.5q5 9 19 34t31 57t36 67t35 64t27.5 47.5t14.5 19.5q-6 7 -14 11.5t-17 4.5
l-8 -1q-4 -8 -15 -23.5t-24.5 -31t-27 -27.5t-22.5 -12q8 17 15.5 39t7.5 40q0 5 -12.5 8.5t-15.5 4.5q-12 -7 -21 -21q-13 7 -30 7q-11 -8 -23.5 -24t-24.5 -34t-22 -35.5t-16 -29.5q-8 9 -8 25q0 7 4 23t10 32.5t13.5 30t15.5 15.5q-5 8 -14.5 11t-18.5 2l-16 -30
q-32 -26 -60.5 -57t-54.5 -64q12 20 23 40t24 39q-10 25 -39 28q6 -5 6 -13q0 -17 -12.5 -40.5t-28.5 -49t-29.5 -51t-14.5 -45.5q4 -11 14.5 -16t21.5 -7q-2 4 -2 8v8q0 24 15 50.5t37 52t45.5 48t40.5 36.5q-5 -9 -9.5 -19.5t-4.5 -21.5q0 -17 12 -28t29 -9zM1992 220
q-6 4 -9.5 11t-5.5 15.5t-2.5 16.5t-0.5 14q0 36 11.5 74.5t29 77t38.5 74t39 64.5q-3 21 -16.5 30.5t-33.5 12.5q3 -4 4 -8.5t1 -9.5q0 -13 -4.5 -29.5t-11 -33.5t-13.5 -33t-12 -27q-11 8 -23 13.5t-26 8.5q-19 -19 -41.5 -50.5t-46 -64t-46.5 -59t-42 -35.5q0 7 6.5 22
t16 34t21.5 39t24 38t22 30.5t16 16.5q-5 9 -10.5 13.5t-15.5 7.5l-11 -11l-57 23q-28 -27 -51 -57t-45 -61t-46 -60.5t-54 -54.5q1 16 14 45t31 60t37 58t31 38q-4 13 -12 24.5t-22 13.5q-51 -44 -95.5 -99t-82.5 -111q2 18 23 56t47.5 82.5t51.5 87.5t34 72
q-8 15 -21 22.5t-29 10.5q5 -8 5 -21q0 -21 -10.5 -51.5t-28 -65.5t-40 -71t-46.5 -67t-47 -53.5t-41 -31.5q1 21 12 45.5t25.5 50t30.5 48.5t28 41q-7 10 -18 12t-22 1v-3q0 -11 -12.5 -38.5t-29 -58.5t-33 -58t-24.5 -37q2 -17 13.5 -24.5t27.5 -9.5q26 20 49 46t44 51
q-11 -18 -21.5 -36t-21.5 -35q6 -14 16.5 -20.5t23.5 -11.5v5q0 11 11.5 31.5t30 45.5t40.5 52.5t43.5 52t39.5 43.5t28 29q-7 -17 -26.5 -50t-40.5 -67.5t-37.5 -63t-17.5 -36.5q5 -11 17 -18t23 -11q17 14 32.5 30.5t30.5 33.5l-11 -24q5 -11 14 -19t22 -8q16 9 32 26.5
t32 37.5t30.5 40t26.5 35q-11 -25 -27 -47.5t-28 -46.5q0 -17 12 -26t27 -11q16 12 29.5 29t25.5 33l-11 -30q1 -11 12 -23.5t23 -12.5q9 0 23.5 16.5t28.5 37.5t26 41.5t17 28.5l11 19l1 1q0 -2 -5.5 -17t-12.5 -36t-12.5 -43.5t-5.5 -39.5q0 -10 5.5 -17t13.5 -12.5
t17.5 -8.5t17.5 -4zM251 154q25 0 56 14.5t57 37.5t44 50.5t18 53.5q0 16 -7.5 30t-19.5 24q1 -4 1 -7.5v-6.5q0 -26 -14 -58t-36 -60t-50 -47t-55 -19q-20 0 -32 14t-12 34q0 35 28.5 72.5t69.5 68.5t85.5 51t77.5 20q23 0 40.5 -9t17.5 -35q0 -22 -11 -51.5t-29 -61
t-41.5 -63.5t-48 -59.5t-48.5 -48t-44 -28.5q13 -3 25.5 -5.5t26.5 -2.5q6 0 16 2t14 7l219 327q-26 -66 -60 -130.5t-69 -126.5q0 -5 5.5 -11t13 -11t14.5 -8.5t12 -3.5h2q3 14 18.5 43.5t38 66t49.5 76.5t52 76.5t46.5 65.5t32.5 43q-9 -16 -24 -41.5t-33 -56t-36.5 -63
t-34 -62.5t-25 -55t-9.5 -39q0 -18 10.5 -33.5t27.5 -22.5q-4 12 -4 29q0 30 14 68.5t34.5 78.5t44.5 78.5t44.5 70t34.5 53t14 26.5q0 6 -5 11.5t-12 10.5t-14.5 8.5t-12.5 5.5q-1 -7 -17 -33t-40 -62.5t-52.5 -78t-55 -79t-46.5 -66.5t-27 -39q23 78 66 153.5t85 145.5
q0 10 -5.5 17t-14 11.5t-18 7t-17.5 3.5q3 -1 3 -7q0 -13 -13.5 -42t-31.5 -60.5t-35.5 -60t-25.5 -40.5q5 14 8.5 29t3.5 31q0 38 -21.5 50.5t-56.5 12.5q-38 0 -87 -16.5t-93 -45t-74.5 -67t-30.5 -82.5q0 -35 23.5 -54t55.5 -19zM942 155q15 0 33 8.5t29 18.5
q-8 -3 -17 -3q-17 0 -33.5 9.5t-31 24t-26.5 30.5l-21 28q35 30 71.5 57.5t71.5 59.5v4q0 10 -8.5 22.5t-19.5 12.5q1 -2 1 -5q0 -9 -17 -28.5t-38.5 -41t-42.5 -40t-29 -26.5l-4 7q27 54 55.5 110t63.5 106q-2 14 -17.5 24.5t-27.5 13.5q2 -1 2 -6q0 -9 -5.5 -26.5
t-14.5 -39.5t-20 -45.5t-21.5 -44.5t-20 -38t-14.5 -24q-3 2 -9 2t-12.5 -3t-8.5 -9q12 -2 18 -8q-9 -13 -24 -31.5t-31.5 -37t-33.5 -33.5t-32 -22q2 23 15.5 50t31.5 54t36.5 51.5t32.5 44.5q-15 22 -41 22v-3q0 -7 -6.5 -23.5t-17 -36.5t-23.5 -42.5t-25.5 -42.5
t-23 -36.5t-16.5 -23.5q1 -18 12 -27t28 -11q29 24 54.5 51.5t48.5 56.5q-2 -4 -8 -14.5t-13 -22.5t-12 -22t-5 -13q0 -11 13.5 -19.5t20.5 -16.5v3q0 28 14.5 51.5t32.5 42.5q5 -10 14.5 -26.5t21.5 -32.5t25 -28t25 -12zM1279 367q-3 -6 -11 -20.5t-18.5 -32t-23 -36
t-24.5 -34t-23 -25.5t-18 -10q-3 0 -4 1q-1 2 -1 7q0 17 12 46t29 59.5t35.5 57t30.5 38.5q-1 -5 -1.5 -9.5t-0.5 -9.5q0 -13 3.5 -19.5t14.5 -12.5zM1143 171q-5 6 -11.5 13t-12.5 14.5t-10.5 15t-4.5 15.5q0 21 9.5 44.5t17.5 42.5h-1q-11 -10 -26.5 -26t-29 -34t-23 -37
t-9.5 -35q0 -5 1.5 -10t0.5 -10l-1 -2q4 -2 5 -4zM1843 463q-38 -48 -75.5 -96t-84.5 -89q5 24 19.5 51t33 53.5t39 50.5t36.5 42zM2001 461q-9 -14 -27.5 -42.5t-39.5 -58.5t-41.5 -55t-33.5 -31q3 19 16 48t31 58t37.5 54.5t34.5 38.5zM380 331q-12 -8 -33.5 -26t-42 -39
t-35.5 -42.5t-15 -36.5l1 -1q15 0 35 18t38.5 42t33 48t18.5 37zM461 6q-1 -5 1.5 -10t5.5 -10q29 6 57.5 10.5t57.5 11.5q-4 9 -7.5 18.5t-3.5 19.5l-7 -1q1 -8 3.5 -15.5t5.5 -15.5q-7 5 -11 13t-6 16q-24 -8 -48.5 -16.5t-47.5 -20.5zM450 21q5 4 16 8.5t23.5 9.5t24 9
t18.5 6q-5 2 -12.5 8t-15 13.5l-14.5 14.5t-11 12q-13 -19 -26.5 -42t-29.5 -39q8 2 13.5 1.5t13.5 -1.5zM492 371q-16 0 -31.5 -4t-30.5 -10q11 -14 25 -30.5t18 -33.5q8 14 17.5 37.5t9.5 40.5h-8zM352 -51q0 -4 2 -8q7 12 22 16t31.5 6t31.5 5.5t23 14.5h-1
q-12 -5 -29 -8.5t-30 -4.5q15 2 29 6t28 9l-2 3q-19 -2 -39 -7t-38 -11q4 3 14.5 6t21.5 6t22 5.5t17 3.5l-2 4q-14 -2 -32 -5t-31 -11q12 10 29.5 14.5t32.5 6.5v2q-5 1 -15 1t-24.5 -4t-28 -11t-23 -17t-9.5 -22zM1431 496q0 4 4 9.5t9.5 11t10 11.5t5.5 13q-9 24 -32 32
q-2 -14 -9 -27.5t-7 -27.5q0 -11 5.5 -15t13.5 -9v2zM811 430q10 -10 23 -10q4 0 9.5 5.5t9.5 13t7 15t3 11.5v2q-5 7 -11 13t-15 6h-6q0 -5 -1.5 -13.5t-4 -17t-6 -15.5t-8.5 -10zM1867 188q-1 -5 -1.5 -10.5t-0.5 -11.5q0 -11 3 -20l71 9v10zM1508 480q0 5 4 10t9 9.5
t9.5 10t4.5 11.5q-7 11 -13.5 15t-19.5 7q-2 -14 -9 -29.5t-7 -27.5q0 -7 8.5 -6.5t13.5 -0.5v1zM916 137q-9 11 -18.5 21.5t-17.5 21.5q-9 -10 -14.5 -25t-7.5 -28zM733 102q-13 3 -20.5 6.5t-12 8.5t-8 12.5t-9.5 16.5q-3 -11 -5.5 -22t-2.5 -23l1 -10q14 2 28.5 5t28.5 6
zM570 66q11 5 25 7.5t25 4.5q-7 10 -15.5 18.5t-15.5 19.5q-7 -12 -12.5 -24t-10.5 -24v-4q4 0 4 2zM812 118q-6 7 -11 11.5t-10 12.5l-37 -35q14 3 29 6t29 5zM1556 237q-5 -6 -9.5 -14t-7.5 -16q10 1 19 1.5t19 0.5zM1315 451q-5 -16 -11 -32t-14 -31q-1 3 -1 10
q0 13 6.5 30.5t19.5 22.5zM1793 210q-10 5 -16 10t-11 15q-11 -14 -24 -24zM1832 208q6 0 14 0.5t14 -1.5q1 0 2.5 -1t1.5 1q6 0 14 -3q-15 7 -26 24zM1377 196q-4 5 -6 10l-4 10q-3 -5 -6.5 -10.5t-5.5 -11.5zM1967 157v1l-21 6v-9zM1139 428h1l-1 -1v1z" />
    <glyph glyph-name="t" unicode="t" horiz-adv-x="161" 
d="M15 301h-39v60h39v197h60v-197h81l-20 -60h-61v-182q0 -22 10 -40.5t34 -18.5h98v-60h-98q-26 0 -45 10t-32.5 26.5t-20 38t-6.5 43.5v183z" />
    <glyph glyph-name="t.1" unicode="&#xe001;" horiz-adv-x="458" 
d="M75 615v-139h201l-30 -60h-171v-280q0 -45 15.5 -75.5t40 -48t54.5 -24.5t59 -5q28 1 54 12t46 30.5t31.5 48t9.5 65.5q-2 27 -13 50t-28 39.5t-39 26t-46 9.5q-26 0 -47 -10l-17 55q17 8 33.5 11t33.5 3q35 0 67 -14t57.5 -38t41 -57.5t17.5 -72.5q2 -52 -14 -91.5
t-44.5 -66.5t-65 -41.5t-74.5 -17.5q-47 -3 -89 8.5t-74 38.5t-50.5 68t-18.5 97v280h-99v60h99v139h60z" />
    <glyph glyph-name="t.2" unicode="&#xe016;" horiz-adv-x="455" 
d="M-24 321v60h39v177h60v-177h271l-30 -60h-241v-189q0 -45 15.5 -75t40 -47t54.5 -23t59 -4q28 2 54 13t46 30.5t31.5 47.5t9.5 65l60 2q2 -52 -14 -91.5t-44.5 -66.5t-65 -41.5t-74.5 -17.5q-47 -3 -89 8t-74 37t-50.5 66.5t-18.5 96.5v189h-39z" />
    <glyph glyph-name="t.end" unicode="&#xe2b3;" horiz-adv-x="221" 
d="M15 301h-39v60h39v188h60v-188h81l-20 -60h-61v-182q0 -22 10 -40.5t34 -18.5h148l-30 -60h-118q-26 0 -45 10t-32.5 26.5t-20 38t-6.5 43.5v183z" />
    <glyph glyph-name="t.salt" unicode="&#xe4d3;" horiz-adv-x="161" 
d="M15 437h-139v60h139v137h60v-137h311l-20 -60h-291v-318q0 -22 10 -40.5t34 -18.5h98v-60h-98q-26 0 -45 10t-32.5 26.5t-20 38t-6.5 43.5v319z" />
    <glyph glyph-name="t.swsh" unicode="&#xe026;" horiz-adv-x="141" 
d="M-124 457v60h139v137h60v-137h311l-20 -60h-291v-422q0 -35 7 -57.5t22 -36t38 -18.5t56 -5h515q30 0 63 -6t68 -37l-41 -41q-21 20 -41.5 24t-48.5 4h-515q-91 0 -137 41t-46 132v422h-139z" />
    <glyph glyph-name="three" unicode="3" horiz-adv-x="436" 
d="M40 97q25 -27 57 -39t64 -12q24 0 47 6.5t41 18t30 28.5t15 38q4 27 -3 49t-23 37t-45 25t-77 6q-9 -1 -16.5 3.5t-11.5 12t-4 16t6 16.5l128 174h-184l-30 60h273q19 0 27 -16.5t-3 -30.5l-129 -176l15 -2q57 -11 93 -45q28 -27 38.5 -62.5t5.5 -73.5q-8 -58 -50 -93
t-95 -46q-25 -5 -47 -5q-45 0 -88 17t-78 54zM77 -94l46 47l47 -47l-47 -46zM171 -94l46 47l47 -47l-47 -46z" />
    <glyph glyph-name="trademark" unicode="&#x2122;" 
d="M334 -51q0 22 15.5 34.5t30.5 23.5q-6 0 -17.5 1t-22.5 3t-21 6.5t-13 10.5q-2 4 -6.5 9.5t-9 11.5t-8 11.5t-3.5 9.5q0 6 4 10.5t9.5 8t11.5 7t10 7.5q-15 -4 -33 -4q-22 0 -45 11.5t-41.5 30t-30 41t-11.5 44.5q0 48 31 90t77 73t99 49t97 18q20 0 33.5 -2.5t24.5 -8.5
t20 -16t20 -25q16 26 31.5 54.5t23.5 57.5q-2 1 -2 4v5q0 7 4 13t12 6q19 0 31.5 -5t21.5 -13t17 -18.5t19 -21.5q10 17 20.5 33.5t17.5 35.5q2 4 6.5 6.5t8.5 2.5q11 0 28 -10.5t34 -24.5t31 -28.5t19 -22.5q2 -2 5.5 -8.5t5.5 -7.5q1 5 6 16.5t10 24t9 23t3 14.5l-2 3v3
q0 8 5.5 13.5t13.5 5.5q12 0 27.5 -10t30 -24.5t24.5 -30t12 -26.5q-2 -11 -7 -18.5t-10 -16.5q2 -2 4.5 -4t4.5 -5q3 6 6.5 10t11.5 4q14 0 30.5 -8.5t21.5 -21.5l19.5 19.5t20.5 17.5h1q2 4 4.5 10.5t6 12.5t8 10.5t10.5 4.5q23 0 34.5 -8t25.5 -25q10 13 25 17
q6 -1 12 -1.5t12 -2.5q3 5 11.5 11.5t13.5 6.5q26 0 36 -11.5t21 -31.5q7 7 11.5 16t9.5 16.5t12.5 11.5t21.5 1q-7 5 -10 13t-3 16q0 6 3 18.5t8 24.5t11 21.5t13 9.5q19 0 32.5 -16.5t22.5 -30.5q3 17 20 17q21 0 35.5 -16.5t25.5 -31.5q8 17 17 42t9 45q0 6 -2.5 10.5
t-2.5 10.5q0 8 5 13t13 5q12 0 29 -9.5t33 -23.5t27.5 -29t11.5 -25q0 -8 -4.5 -18.5t-8.5 -18.5q15 -6 26.5 -22t22.5 -27q4 4 10.5 11.5t14 15.5t15 14t12.5 6q3 0 10.5 -2.5t16 -6t16 -7t10.5 -4.5q7 7 18 7q6 0 13.5 -3.5t14 -9t11 -12.5t3.5 -14q3 3 9.5 11t14 16
t15 14.5t12.5 6.5q7 0 21.5 -4.5t19.5 -9.5q4 9 9.5 21.5t10 26.5t8 27t3.5 23q0 5 -2 7.5t-2 7.5q0 8 5 13.5t12 5.5q15 0 32.5 -9.5t32.5 -24t25 -31t10 -30.5q0 -8 -18.5 -39t-40.5 -73.5t-40.5 -90.5t-18.5 -90q0 -14 3 -23t6 -15t6 -10.5t3 -7.5q0 -7 -5 -13t-12 -6
q-11 0 -23 6t-24 15t-22.5 19t-17.5 18q-8 -8 -18 -17t-23 -7q7 -3 18.5 -5.5t23 -6t22.5 -7t19 -7.5l37 -46l1 -8l-3 -9q-7 -9 -17 -9t-20 -1l-3 1q-20 0 -40 -5t-40 -5q-66 0 -132.5 5.5t-132.5 5.5q-33 0 -79.5 -1t-95.5 -3t-94.5 -6t-75.5 -11h1q-4 -19 -27 -47t-53 -54
t-61 -44.5t-52 -18.5q-18 0 -39.5 8.5t-41 23t-32.5 32.5t-13 37q0 14 4 23q-86 -19 -171.5 -36.5t-169.5 -46.5q-29 -11 -61.5 -16.5t-64.5 -10.5q-10 -11 -22 -15t-25 -6t-26.5 -4t-25.5 -8q-4 -5 -7.5 -8.5t-10.5 -3.5q-8 0 -17 7t-16.5 17t-13 21t-5.5 18zM1158 329
q-11 -21 -23 -48.5t-12 -51.5q0 -8 6 -13.5t14.5 -9.5t17.5 -5.5l15 -2.5q18 9 36 29t33.5 44t28.5 49t21 43q13 0 23 4t18.5 11t16 15.5t16.5 16.5q-32 -65 -70 -127t-79 -122q-161 -16 -322 -44t-318 -67v-1q0 -21 12 -37q57 21 123.5 38.5t135.5 31.5t137 25.5t129 20.5
q-15 -5 -37.5 -15.5t-43.5 -25t-36 -32t-15 -37.5q0 -12 8.5 -20.5t21 -14.5t25.5 -8.5t22 -2.5q19 0 45 16.5t51.5 39.5t46.5 47.5t30 41.5q-14 0 -27 -2.5t-26 -5.5q-13 -14 -31.5 -32t-40.5 -34.5t-44.5 -27.5t-43.5 -11q-9 0 -13 2q-2 2 -2 8q0 10 6.5 19t13.5 15
q24 24 57 40.5t69.5 27.5t73.5 16.5t69 8.5q76 6 151 11t151 5q66 0 131 -3t131 -8l-3 7l-96 11l95 -4v6l-59 6h59l1 5l-96 6h97l1 5q-42 2 -82.5 3.5t-81.5 1.5q-109 0 -215.5 -7.5t-213.5 -19.5q5 9 19 34t31 57t36 67t35 64t27.5 47.5t14.5 19.5q-6 7 -14 11.5t-17 4.5
l-8 -1q-4 -8 -15 -23.5t-24.5 -31t-27 -27.5t-22.5 -12q8 17 15.5 39t7.5 40q0 5 -12.5 8.5t-15.5 4.5q-12 -7 -21 -21q-13 7 -30 7q-11 -8 -23.5 -24t-24.5 -34t-22 -35.5t-16 -29.5q-8 9 -8 25q0 7 4 23t10 32.5t13.5 30t15.5 15.5q-5 8 -14.5 11t-18.5 2l-16 -30
q-32 -26 -60.5 -57t-54.5 -64q12 20 23 40t24 39q-10 25 -39 28q6 -5 6 -13q0 -17 -12.5 -40.5t-28.5 -49t-29.5 -51t-14.5 -45.5q4 -11 14.5 -16t21.5 -7q-2 4 -2 8v8q0 24 15 50.5t37 52t45.5 48t40.5 36.5q-5 -9 -9.5 -19.5t-4.5 -21.5q0 -17 12 -28t29 -9zM1992 220
q-6 4 -9.5 11t-5.5 15.5t-2.5 16.5t-0.5 14q0 36 11.5 74.5t29 77t38.5 74t39 64.5q-3 21 -16.5 30.5t-33.5 12.5q3 -4 4 -8.5t1 -9.5q0 -13 -4.5 -29.5t-11 -33.5t-13.5 -33t-12 -27q-11 8 -23 13.5t-26 8.5q-19 -19 -41.5 -50.5t-46 -64t-46.5 -59t-42 -35.5q0 7 6.5 22
t16 34t21.5 39t24 38t22 30.5t16 16.5q-5 9 -10.5 13.5t-15.5 7.5l-11 -11l-57 23q-28 -27 -51 -57t-45 -61t-46 -60.5t-54 -54.5q1 16 14 45t31 60t37 58t31 38q-4 13 -12 24.5t-22 13.5q-51 -44 -95.5 -99t-82.5 -111q2 18 23 56t47.5 82.5t51.5 87.5t34 72
q-8 15 -21 22.5t-29 10.5q5 -8 5 -21q0 -21 -10.5 -51.5t-28 -65.5t-40 -71t-46.5 -67t-47 -53.5t-41 -31.5q1 21 12 45.5t25.5 50t30.5 48.5t28 41q-7 10 -18 12t-22 1v-3q0 -11 -12.5 -38.5t-29 -58.5t-33 -58t-24.5 -37q2 -17 13.5 -24.5t27.5 -9.5q26 20 49 46t44 51
q-11 -18 -21.5 -36t-21.5 -35q6 -14 16.5 -20.5t23.5 -11.5v5q0 11 11.5 31.5t30 45.5t40.5 52.5t43.5 52t39.5 43.5t28 29q-7 -17 -26.5 -50t-40.5 -67.5t-37.5 -63t-17.5 -36.5q5 -11 17 -18t23 -11q17 14 32.5 30.5t30.5 33.5l-11 -24q5 -11 14 -19t22 -8q16 9 32 26.5
t32 37.5t30.5 40t26.5 35q-11 -25 -27 -47.5t-28 -46.5q0 -17 12 -26t27 -11q16 12 29.5 29t25.5 33l-11 -30q1 -11 12 -23.5t23 -12.5q9 0 23.5 16.5t28.5 37.5t26 41.5t17 28.5l11 19l1 1q0 -2 -5.5 -17t-12.5 -36t-12.5 -43.5t-5.5 -39.5q0 -10 5.5 -17t13.5 -12.5
t17.5 -8.5t17.5 -4zM251 154q25 0 56 14.5t57 37.5t44 50.5t18 53.5q0 16 -7.5 30t-19.5 24q1 -4 1 -7.5v-6.5q0 -26 -14 -58t-36 -60t-50 -47t-55 -19q-20 0 -32 14t-12 34q0 35 28.5 72.5t69.5 68.5t85.5 51t77.5 20q23 0 40.5 -9t17.5 -35q0 -22 -11 -51.5t-29 -61
t-41.5 -63.5t-48 -59.5t-48.5 -48t-44 -28.5q13 -3 25.5 -5.5t26.5 -2.5q6 0 16 2t14 7l219 327q-26 -66 -60 -130.5t-69 -126.5q0 -5 5.5 -11t13 -11t14.5 -8.5t12 -3.5h2q3 14 18.5 43.5t38 66t49.5 76.5t52 76.5t46.5 65.5t32.5 43q-9 -16 -24 -41.5t-33 -56t-36.5 -63
t-34 -62.5t-25 -55t-9.5 -39q0 -18 10.5 -33.5t27.5 -22.5q-4 12 -4 29q0 30 14 68.5t34.5 78.5t44.5 78.5t44.5 70t34.5 53t14 26.5q0 6 -5 11.5t-12 10.5t-14.5 8.5t-12.5 5.5q-1 -7 -17 -33t-40 -62.5t-52.5 -78t-55 -79t-46.5 -66.5t-27 -39q23 78 66 153.5t85 145.5
q0 10 -5.5 17t-14 11.5t-18 7t-17.5 3.5q3 -1 3 -7q0 -13 -13.5 -42t-31.5 -60.5t-35.5 -60t-25.5 -40.5q5 14 8.5 29t3.5 31q0 38 -21.5 50.5t-56.5 12.5q-38 0 -87 -16.5t-93 -45t-74.5 -67t-30.5 -82.5q0 -35 23.5 -54t55.5 -19zM942 155q15 0 33 8.5t29 18.5
q-8 -3 -17 -3q-17 0 -33.5 9.5t-31 24t-26.5 30.5l-21 28q35 30 71.5 57.5t71.5 59.5v4q0 10 -8.5 22.5t-19.5 12.5q1 -2 1 -5q0 -9 -17 -28.5t-38.5 -41t-42.5 -40t-29 -26.5l-4 7q27 54 55.5 110t63.5 106q-2 14 -17.5 24.5t-27.5 13.5q2 -1 2 -6q0 -9 -5.5 -26.5
t-14.5 -39.5t-20 -45.5t-21.5 -44.5t-20 -38t-14.5 -24q-3 2 -9 2t-12.5 -3t-8.5 -9q12 -2 18 -8q-9 -13 -24 -31.5t-31.5 -37t-33.5 -33.5t-32 -22q2 23 15.5 50t31.5 54t36.5 51.5t32.5 44.5q-15 22 -41 22v-3q0 -7 -6.5 -23.5t-17 -36.5t-23.5 -42.5t-25.5 -42.5
t-23 -36.5t-16.5 -23.5q1 -18 12 -27t28 -11q29 24 54.5 51.5t48.5 56.5q-2 -4 -8 -14.5t-13 -22.5t-12 -22t-5 -13q0 -11 13.5 -19.5t20.5 -16.5v3q0 28 14.5 51.5t32.5 42.5q5 -10 14.5 -26.5t21.5 -32.5t25 -28t25 -12zM1279 367q-3 -6 -11 -20.5t-18.5 -32t-23 -36
t-24.5 -34t-23 -25.5t-18 -10q-3 0 -4 1q-1 2 -1 7q0 17 12 46t29 59.5t35.5 57t30.5 38.5q-1 -5 -1.5 -9.5t-0.5 -9.5q0 -13 3.5 -19.5t14.5 -12.5zM1143 171q-5 6 -11.5 13t-12.5 14.5t-10.5 15t-4.5 15.5q0 21 9.5 44.5t17.5 42.5h-1q-11 -10 -26.5 -26t-29 -34t-23 -37
t-9.5 -35q0 -5 1.5 -10t0.5 -10l-1 -2q4 -2 5 -4zM1843 463q-38 -48 -75.5 -96t-84.5 -89q5 24 19.5 51t33 53.5t39 50.5t36.5 42zM2001 461q-9 -14 -27.5 -42.5t-39.5 -58.5t-41.5 -55t-33.5 -31q3 19 16 48t31 58t37.5 54.5t34.5 38.5zM380 331q-12 -8 -33.5 -26t-42 -39
t-35.5 -42.5t-15 -36.5l1 -1q15 0 35 18t38.5 42t33 48t18.5 37zM461 6q-1 -5 1.5 -10t5.5 -10q29 6 57.5 10.5t57.5 11.5q-4 9 -7.5 18.5t-3.5 19.5l-7 -1q1 -8 3.5 -15.5t5.5 -15.5q-7 5 -11 13t-6 16q-24 -8 -48.5 -16.5t-47.5 -20.5zM450 21q5 4 16 8.5t23.5 9.5t24 9
t18.5 6q-5 2 -12.5 8t-15 13.5l-14.5 14.5t-11 12q-13 -19 -26.5 -42t-29.5 -39q8 2 13.5 1.5t13.5 -1.5zM492 371q-16 0 -31.5 -4t-30.5 -10q11 -14 25 -30.5t18 -33.5q8 14 17.5 37.5t9.5 40.5h-8zM352 -51q0 -4 2 -8q7 12 22 16t31.5 6t31.5 5.5t23 14.5h-1
q-12 -5 -29 -8.5t-30 -4.5q15 2 29 6t28 9l-2 3q-19 -2 -39 -7t-38 -11q4 3 14.5 6t21.5 6t22 5.5t17 3.5l-2 4q-14 -2 -32 -5t-31 -11q12 10 29.5 14.5t32.5 6.5v2q-5 1 -15 1t-24.5 -4t-28 -11t-23 -17t-9.5 -22zM1431 496q0 4 4 9.5t9.5 11t10 11.5t5.5 13q-9 24 -32 32
q-2 -14 -9 -27.5t-7 -27.5q0 -11 5.5 -15t13.5 -9v2zM811 430q10 -10 23 -10q4 0 9.5 5.5t9.5 13t7 15t3 11.5v2q-5 7 -11 13t-15 6h-6q0 -5 -1.5 -13.5t-4 -17t-6 -15.5t-8.5 -10zM1867 188q-1 -5 -1.5 -10.5t-0.5 -11.5q0 -11 3 -20l71 9v10zM1508 480q0 5 4 10t9 9.5
t9.5 10t4.5 11.5q-7 11 -13.5 15t-19.5 7q-2 -14 -9 -29.5t-7 -27.5q0 -7 8.5 -6.5t13.5 -0.5v1zM916 137q-9 11 -18.5 21.5t-17.5 21.5q-9 -10 -14.5 -25t-7.5 -28zM733 102q-13 3 -20.5 6.5t-12 8.5t-8 12.5t-9.5 16.5q-3 -11 -5.5 -22t-2.5 -23l1 -10q14 2 28.5 5t28.5 6
zM570 66q11 5 25 7.5t25 4.5q-7 10 -15.5 18.5t-15.5 19.5q-7 -12 -12.5 -24t-10.5 -24v-4q4 0 4 2zM812 118q-6 7 -11 11.5t-10 12.5l-37 -35q14 3 29 6t29 5zM1556 237q-5 -6 -9.5 -14t-7.5 -16q10 1 19 1.5t19 0.5zM1315 451q-5 -16 -11 -32t-14 -31q-1 3 -1 10
q0 13 6.5 30.5t19.5 22.5zM1793 210q-10 5 -16 10t-11 15q-11 -14 -24 -24zM1832 208q6 0 14 0.5t14 -1.5q1 0 2.5 -1t1.5 1q6 0 14 -3q-15 7 -26 24zM1377 196q-4 5 -6 10l-4 10q-3 -5 -6.5 -10.5t-5.5 -11.5zM1967 157v1l-21 6v-9zM1139 428h1l-1 -1v1z" />
    <glyph glyph-name="two" unicode="2" horiz-adv-x="438" 
d="M21 54q51 40 104.5 82.5t98.5 88.5t67.5 90t16.5 86q-5 41 -31.5 60t-62.5 21q-39 2 -79 -15.5t-66 -50.5l-47 38q18 22 40.5 39t48 28t52.5 16.5t53 4.5q27 -1 52.5 -9.5t46 -25t34.5 -41t19 -57.5q4 -32 -2.5 -62t-20.5 -58.5t-34.5 -55t-43.5 -50.5q-29 -30 -63 -59
t-68 -56l-10 -8h242v-60h-328q-11 0 -18 6t-10 14.5t-1 17.5t10 16zM145 -85l46 47l47 -47l-47 -46z" />
    <glyph glyph-name="u" unicode="u" horiz-adv-x="297" 
d="M15 361h60v-254q0 -21 10.5 -37t33.5 -16t34.5 15t11.5 35v257h60v-242q0 -23 9.5 -41t34.5 -18h78v-60h-78q-41 0 -71 27q-13 -16 -35 -24.5t-44 -8.5q-25 0 -44 9.5t-32.5 25t-20.5 36t-7 42.5v254z" />
    <glyph glyph-name="u.1" unicode="&#xe012;" horiz-adv-x="612" 
d="M233 361v-234q1 -43 17.5 -71.5t40.5 -45t53.5 -23t57.5 -4.5q28 1 54 12t46 30.5t31.5 48t9.5 65.5q-2 27 -13 50t-28 39.5t-39 26t-46 9.5q-26 0 -47 -10l-17 55q17 8 33.5 11t33.5 3q35 0 67 -14t57.5 -38t41 -57.5t17.5 -72.5q2 -52 -14 -91.5t-44.5 -66.5t-65 -41.5
t-74.5 -17.5q-66 -5 -120.5 19.5t-84.5 77.5q-13 -14 -34.5 -20.5t-41.5 -6.5q-25 0 -45 9.5t-34.5 25t-22 36t-7.5 42.5v254h60v-254q0 -21 13 -37t36 -16t36 15t13 35v257h60z" />
    <glyph glyph-name="u.end" unicode="&#xe2b4;" horiz-adv-x="356" 
d="M15 361h60v-254q2 -21 13 -37t34 -16t35.5 16t12.5 36v255h60v-242q0 -23 9.5 -41t34.5 -18h128l-30 -60h-98q-41 0 -71 27q-13 -16 -36 -24.5t-45 -8.5q-25 0 -44.5 9.5t-33 25t-21 36t-8.5 42.5v254z" />
    <glyph glyph-name="u.salt" unicode="&#xe4d4;" horiz-adv-x="301" 
d="M15 361h60v-254q0 -21 10.5 -37t33.5 -16t33.5 15t10.5 35v257h60v-242q0 -23 9.5 -41t34.5 -18h78v-60h-78q-41 0 -71 27q-13 -16 -34 -24.5t-43 -8.5q-25 0 -44 9.5t-32.5 25t-20.5 36t-7 42.5v254zM77 -98l46 47l47 -47l-47 -46z" />
    <glyph glyph-name="u.swsh" unicode="&#xe027;" horiz-adv-x="287" 
d="M225 361v-326q0 -35 7 -57.5t22 -36t38 -18.5t56 -5h515q30 0 63 -6t68 -37l-41 -41q-21 20 -41.5 24t-48.5 4h-515q-83 0 -128.5 33.5t-53.5 107.5q-10 -4 -21.5 -6.5t-25.5 -2.5q-25 0 -44 9.5t-32.5 25t-20.5 36t-7 42.5v254h60v-254q0 -21 10.5 -37t33.5 -16
q22 0 33 13.5t13 32.5v261h60z" />
    <glyph glyph-name="underscore" unicode="_" horiz-adv-x="643" 
d="M184 -110v60h331v-60h-331z" />
    <glyph glyph-name="v" unicode="v" horiz-adv-x="265" 
d="M15 87v274h60v-246l43 -47l39 44v249h60v-277l-99 -107z" />
    <glyph glyph-name="w" unicode="w" horiz-adv-x="436" 
d="M44 25q-14 16 -21 37t-8 45v254h60v-254q0 -16 4 -26t9 -15q12 -12 31 -12q17 0 26 12q5 6 9 15.5t4 22.5v257h60v-257q0 -13 4 -22.5t9 -15.5q9 -12 26 -12q19 0 31 12q5 5 9 15t4 26v254h60v-242q0 -22 9.5 -40.5t34.5 -18.5h78v-60h-78q-41 0 -71 27l-2 -2
q-14 -16 -33.5 -23.5t-41.5 -7.5q-42 0 -69 29q-14 -14 -31.5 -21.5t-37.5 -7.5q-22 0 -41.5 7.5t-33.5 23.5z" />
    <glyph glyph-name="w.1" unicode="&#xe020;" horiz-adv-x="402" 
d="M361 103q0 -48 -28 -79t-71 -31q-44 0 -74 30q-13 -14 -30.5 -22.5t-38.5 -8.5q-45 0 -75 32q-14 16 -21 36.5t-8 44.5v256h60v-255q2 -22 11.5 -38t32.5 -16q20 0 28.5 16t10.5 32v261h60v-261q2 -21 12.5 -34t31.5 -13t30 16.5t9 33.5v241q0 55 18.5 96.5t50.5 68.5
t74 38.5t89 8.5q38 -3 74.5 -17.5t65 -41.5t44.5 -66.5t14 -91.5q-2 -39 -17.5 -72.5t-41 -57.5t-57.5 -38t-67 -14q-17 0 -33.5 3t-33.5 11l17 55q21 -10 47 -10q24 0 46 9.5t39 26t28 39.5t13 50q2 37 -9.5 65.5t-31.5 48t-46 30t-54 12.5q-29 1 -59 -5.5t-54.5 -24
t-40 -48t-15.5 -75.5v-241z" />
    <glyph glyph-name="w.end" unicode="&#xe2b6;" horiz-adv-x="398" 
d="M44 25q-14 16 -21 37t-8 45v254h60v-254q0 -16 4 -26t9 -15q12 -12 31 -12q17 0 26 12q5 6 9 15.5t4 22.5v257h60v-257q0 -13 4 -22.5t9 -15.5q9 -12 26 -12q19 0 31 12q5 5 9 15t4 26v254h60v-251q0 -21 -6 -42t-18.5 -37.5t-31.5 -26.5t-45 -10q-21 0 -40 7.5t-32 21.5
q-14 -14 -31.5 -21.5t-37.5 -7.5q-22 0 -41.5 7.5t-33.5 23.5z" />
    <glyph glyph-name="w.salt" unicode="&#xe4d6;" horiz-adv-x="436" 
d="M44 25q-14 16 -21 37t-8 45v254h60v-254q0 -16 4 -26t9 -15q12 -12 31 -12q17 0 26 12q5 6 9 15.5t4 22.5v257h60v-257q0 -13 4 -22.5t9 -15.5q9 -12 26 -12q19 0 31 12q5 5 9 15t4 26v254h60v-242q0 -22 9.5 -40.5t34.5 -18.5h78v-60h-78q-41 0 -71 27l-2 -2
q-14 -16 -33.5 -23.5t-41.5 -7.5q-42 0 -69 29q-14 -14 -31.5 -21.5t-37.5 -7.5q-22 0 -41.5 7.5t-33.5 23.5zM97 458l46 47l45 -46l45 46l47 -47l-47 -46l-45 44l-45 -44zM141 549l46 47l47 -47l-47 -46z" />
    <glyph glyph-name="x" unicode="x" horiz-adv-x="383" 
d="M179 301q18 28 46 44t65 16h41v-60h-41q-38 0 -62 -33q-11 -16 -17.5 -38t-7.5 -50q1 -27 7.5 -49t17.5 -37q23 -34 62 -34h153v-60h-153q-37 0 -65 16t-46 44l-6 9l-6 -9q-19 -28 -47 -44t-65 -16h-40v60h40q40 0 62 34q22 31 25 86q-3 55 -25 88t-62 33h-40v60h40
q37 0 65 -16t47 -44l6 -9zM128 -51l46 47l47 -47l-47 -46z" />
    <glyph glyph-name="x.end" unicode="&#xe2b7;" horiz-adv-x="383" 
d="M179 301q18 28 46 44t65 16h41v-60h-41q-38 0 -62 -33q-11 -16 -17.5 -38t-7.5 -50q1 -27 7.5 -49t17.5 -37q23 -34 62 -34h123l-30 -60h-93q-37 0 -65 16t-46 44l-6 9l-6 -9q-19 -28 -47 -44t-65 -16h-40v60h40q40 0 62 34q22 31 25 86q-3 55 -25 88t-62 33h-40v60h40
q37 0 65 -16t47 -44l6 -9zM128 -51l46 47l47 -47l-47 -46z" />
    <glyph glyph-name="y" unicode="y" horiz-adv-x="293" 
d="M27 -176q24 3 47.5 12t42 26t30 42t11.5 61v35h-39q-46 0 -75 32q-14 16 -21 37.5t-8 47.5v244h60v-243q1 -18 5 -29t9 -17q10 -12 30 -12h39v301h60v-301h122v-60h-122v-37q0 -48 -15.5 -84t-41.5 -60.5t-60 -38t-72 -16.5z" />
    <glyph glyph-name="y.1" unicode="&#xe029;" horiz-adv-x="293" 
d="M43 -192v60h71q20 0 29 12q5 6 9.5 17.5t5.5 29.5v73h-39q-46 0 -75 32q-14 16 -21 37.5t-8 47.5v244h60v-243q1 -18 5 -29t9 -17q10 -12 30 -12h39v301h60v-301h122v-60h-122v-74q-3 -55 -30 -86q-14 -17 -33.5 -24.5t-40.5 -7.5h-71z" />
    <glyph glyph-name="y.end" unicode="&#xe2b8;" horiz-adv-x="267" 
d="M-135 -168q17 -42 53 -64.5t78 -24.5q29 -2 59 8t54.5 31t40 54t15.5 78v86h-46q-46 0 -75 32q-14 16 -21 37.5t-8 47.5v244h60v-243q1 -18 5 -29t9 -17q10 -12 30 -12h46v301h60v-447q0 -56 -18.5 -100t-50.5 -74t-74 -44.5t-89 -11.5q-28 2 -55.5 10.5t-51.5 24
t-43.5 37t-31.5 50.5z" />
    <glyph glyph-name="y.salt" unicode="&#xe4d8;" horiz-adv-x="293" 
d="M-135 -168q17 -42 53 -64.5t78 -24.5q29 -2 59 8t54.5 31t40 54t15.5 78v86h-46q-46 0 -75 32q-14 16 -21 37.5t-8 47.5v244h60v-243q1 -18 5 -29t9 -17q10 -12 30 -12h46v301h60v-301h115v-60h-115v-86q0 -56 -18.5 -100t-50.5 -74t-74 -44.5t-89 -11.5
q-28 2 -55.5 10.5t-51.5 24t-43.5 37t-31.5 50.5z" />
    <glyph glyph-name="yen" unicode="&#xa5;" 
d="M334 -51q0 22 15.5 34.5t30.5 23.5q-6 0 -17.5 1t-22.5 3t-21 6.5t-13 10.5q-2 4 -6.5 9.5t-9 11.5t-8 11.5t-3.5 9.5q0 6 4 10.5t9.5 8t11.5 7t10 7.5q-15 -4 -33 -4q-22 0 -45 11.5t-41.5 30t-30 41t-11.5 44.5q0 48 31 90t77 73t99 49t97 18q20 0 33.5 -2.5t24.5 -8.5
t20 -16t20 -25q16 26 31.5 54.5t23.5 57.5q-2 1 -2 4v5q0 7 4 13t12 6q19 0 31.5 -5t21.5 -13t17 -18.5t19 -21.5q10 17 20.5 33.5t17.5 35.5q2 4 6.5 6.5t8.5 2.5q11 0 28 -10.5t34 -24.5t31 -28.5t19 -22.5q2 -2 5.5 -8.5t5.5 -7.5q1 5 6 16.5t10 24t9 23t3 14.5l-2 3v3
q0 8 5.5 13.5t13.5 5.5q12 0 27.5 -10t30 -24.5t24.5 -30t12 -26.5q-2 -11 -7 -18.5t-10 -16.5q2 -2 4.5 -4t4.5 -5q3 6 6.5 10t11.5 4q14 0 30.5 -8.5t21.5 -21.5l19.5 19.5t20.5 17.5h1q2 4 4.5 10.5t6 12.5t8 10.5t10.5 4.5q23 0 34.5 -8t25.5 -25q10 13 25 17
q6 -1 12 -1.5t12 -2.5q3 5 11.5 11.5t13.5 6.5q26 0 36 -11.5t21 -31.5q7 7 11.5 16t9.5 16.5t12.5 11.5t21.5 1q-7 5 -10 13t-3 16q0 6 3 18.5t8 24.5t11 21.5t13 9.5q19 0 32.5 -16.5t22.5 -30.5q3 17 20 17q21 0 35.5 -16.5t25.5 -31.5q8 17 17 42t9 45q0 6 -2.5 10.5
t-2.5 10.5q0 8 5 13t13 5q12 0 29 -9.5t33 -23.5t27.5 -29t11.5 -25q0 -8 -4.5 -18.5t-8.5 -18.5q15 -6 26.5 -22t22.5 -27q4 4 10.5 11.5t14 15.5t15 14t12.5 6q3 0 10.5 -2.5t16 -6t16 -7t10.5 -4.5q7 7 18 7q6 0 13.5 -3.5t14 -9t11 -12.5t3.5 -14q3 3 9.5 11t14 16
t15 14.5t12.5 6.5q7 0 21.5 -4.5t19.5 -9.5q4 9 9.5 21.5t10 26.5t8 27t3.5 23q0 5 -2 7.5t-2 7.5q0 8 5 13.5t12 5.5q15 0 32.5 -9.5t32.5 -24t25 -31t10 -30.5q0 -8 -18.5 -39t-40.5 -73.5t-40.5 -90.5t-18.5 -90q0 -14 3 -23t6 -15t6 -10.5t3 -7.5q0 -7 -5 -13t-12 -6
q-11 0 -23 6t-24 15t-22.5 19t-17.5 18q-8 -8 -18 -17t-23 -7q7 -3 18.5 -5.5t23 -6t22.5 -7t19 -7.5l37 -46l1 -8l-3 -9q-7 -9 -17 -9t-20 -1l-3 1q-20 0 -40 -5t-40 -5q-66 0 -132.5 5.5t-132.5 5.5q-33 0 -79.5 -1t-95.5 -3t-94.5 -6t-75.5 -11h1q-4 -19 -27 -47t-53 -54
t-61 -44.5t-52 -18.5q-18 0 -39.5 8.5t-41 23t-32.5 32.5t-13 37q0 14 4 23q-86 -19 -171.5 -36.5t-169.5 -46.5q-29 -11 -61.5 -16.5t-64.5 -10.5q-10 -11 -22 -15t-25 -6t-26.5 -4t-25.5 -8q-4 -5 -7.5 -8.5t-10.5 -3.5q-8 0 -17 7t-16.5 17t-13 21t-5.5 18zM1158 329
q-11 -21 -23 -48.5t-12 -51.5q0 -8 6 -13.5t14.5 -9.5t17.5 -5.5l15 -2.5q18 9 36 29t33.5 44t28.5 49t21 43q13 0 23 4t18.5 11t16 15.5t16.5 16.5q-32 -65 -70 -127t-79 -122q-161 -16 -322 -44t-318 -67v-1q0 -21 12 -37q57 21 123.5 38.5t135.5 31.5t137 25.5t129 20.5
q-15 -5 -37.5 -15.5t-43.5 -25t-36 -32t-15 -37.5q0 -12 8.5 -20.5t21 -14.5t25.5 -8.5t22 -2.5q19 0 45 16.5t51.5 39.5t46.5 47.5t30 41.5q-14 0 -27 -2.5t-26 -5.5q-13 -14 -31.5 -32t-40.5 -34.5t-44.5 -27.5t-43.5 -11q-9 0 -13 2q-2 2 -2 8q0 10 6.5 19t13.5 15
q24 24 57 40.5t69.5 27.5t73.5 16.5t69 8.5q76 6 151 11t151 5q66 0 131 -3t131 -8l-3 7l-96 11l95 -4v6l-59 6h59l1 5l-96 6h97l1 5q-42 2 -82.5 3.5t-81.5 1.5q-109 0 -215.5 -7.5t-213.5 -19.5q5 9 19 34t31 57t36 67t35 64t27.5 47.5t14.5 19.5q-6 7 -14 11.5t-17 4.5
l-8 -1q-4 -8 -15 -23.5t-24.5 -31t-27 -27.5t-22.5 -12q8 17 15.5 39t7.5 40q0 5 -12.5 8.5t-15.5 4.5q-12 -7 -21 -21q-13 7 -30 7q-11 -8 -23.5 -24t-24.5 -34t-22 -35.5t-16 -29.5q-8 9 -8 25q0 7 4 23t10 32.5t13.5 30t15.5 15.5q-5 8 -14.5 11t-18.5 2l-16 -30
q-32 -26 -60.5 -57t-54.5 -64q12 20 23 40t24 39q-10 25 -39 28q6 -5 6 -13q0 -17 -12.5 -40.5t-28.5 -49t-29.5 -51t-14.5 -45.5q4 -11 14.5 -16t21.5 -7q-2 4 -2 8v8q0 24 15 50.5t37 52t45.5 48t40.5 36.5q-5 -9 -9.5 -19.5t-4.5 -21.5q0 -17 12 -28t29 -9zM1992 220
q-6 4 -9.5 11t-5.5 15.5t-2.5 16.5t-0.5 14q0 36 11.5 74.5t29 77t38.5 74t39 64.5q-3 21 -16.5 30.5t-33.5 12.5q3 -4 4 -8.5t1 -9.5q0 -13 -4.5 -29.5t-11 -33.5t-13.5 -33t-12 -27q-11 8 -23 13.5t-26 8.5q-19 -19 -41.5 -50.5t-46 -64t-46.5 -59t-42 -35.5q0 7 6.5 22
t16 34t21.5 39t24 38t22 30.5t16 16.5q-5 9 -10.5 13.5t-15.5 7.5l-11 -11l-57 23q-28 -27 -51 -57t-45 -61t-46 -60.5t-54 -54.5q1 16 14 45t31 60t37 58t31 38q-4 13 -12 24.5t-22 13.5q-51 -44 -95.5 -99t-82.5 -111q2 18 23 56t47.5 82.5t51.5 87.5t34 72
q-8 15 -21 22.5t-29 10.5q5 -8 5 -21q0 -21 -10.5 -51.5t-28 -65.5t-40 -71t-46.5 -67t-47 -53.5t-41 -31.5q1 21 12 45.5t25.5 50t30.5 48.5t28 41q-7 10 -18 12t-22 1v-3q0 -11 -12.5 -38.5t-29 -58.5t-33 -58t-24.5 -37q2 -17 13.5 -24.5t27.5 -9.5q26 20 49 46t44 51
q-11 -18 -21.5 -36t-21.5 -35q6 -14 16.5 -20.5t23.5 -11.5v5q0 11 11.5 31.5t30 45.5t40.5 52.5t43.5 52t39.5 43.5t28 29q-7 -17 -26.5 -50t-40.5 -67.5t-37.5 -63t-17.5 -36.5q5 -11 17 -18t23 -11q17 14 32.5 30.5t30.5 33.5l-11 -24q5 -11 14 -19t22 -8q16 9 32 26.5
t32 37.5t30.5 40t26.5 35q-11 -25 -27 -47.5t-28 -46.5q0 -17 12 -26t27 -11q16 12 29.5 29t25.5 33l-11 -30q1 -11 12 -23.5t23 -12.5q9 0 23.5 16.5t28.5 37.5t26 41.5t17 28.5l11 19l1 1q0 -2 -5.5 -17t-12.5 -36t-12.5 -43.5t-5.5 -39.5q0 -10 5.5 -17t13.5 -12.5
t17.5 -8.5t17.5 -4zM251 154q25 0 56 14.5t57 37.5t44 50.5t18 53.5q0 16 -7.5 30t-19.5 24q1 -4 1 -7.5v-6.5q0 -26 -14 -58t-36 -60t-50 -47t-55 -19q-20 0 -32 14t-12 34q0 35 28.5 72.5t69.5 68.5t85.5 51t77.5 20q23 0 40.5 -9t17.5 -35q0 -22 -11 -51.5t-29 -61
t-41.5 -63.5t-48 -59.5t-48.5 -48t-44 -28.5q13 -3 25.5 -5.5t26.5 -2.5q6 0 16 2t14 7l219 327q-26 -66 -60 -130.5t-69 -126.5q0 -5 5.5 -11t13 -11t14.5 -8.5t12 -3.5h2q3 14 18.5 43.5t38 66t49.5 76.5t52 76.5t46.5 65.5t32.5 43q-9 -16 -24 -41.5t-33 -56t-36.5 -63
t-34 -62.5t-25 -55t-9.5 -39q0 -18 10.5 -33.5t27.5 -22.5q-4 12 -4 29q0 30 14 68.5t34.5 78.5t44.5 78.5t44.5 70t34.5 53t14 26.5q0 6 -5 11.5t-12 10.5t-14.5 8.5t-12.5 5.5q-1 -7 -17 -33t-40 -62.5t-52.5 -78t-55 -79t-46.5 -66.5t-27 -39q23 78 66 153.5t85 145.5
q0 10 -5.5 17t-14 11.5t-18 7t-17.5 3.5q3 -1 3 -7q0 -13 -13.5 -42t-31.5 -60.5t-35.5 -60t-25.5 -40.5q5 14 8.5 29t3.5 31q0 38 -21.5 50.5t-56.5 12.5q-38 0 -87 -16.5t-93 -45t-74.5 -67t-30.5 -82.5q0 -35 23.5 -54t55.5 -19zM942 155q15 0 33 8.5t29 18.5
q-8 -3 -17 -3q-17 0 -33.5 9.5t-31 24t-26.5 30.5l-21 28q35 30 71.5 57.5t71.5 59.5v4q0 10 -8.5 22.5t-19.5 12.5q1 -2 1 -5q0 -9 -17 -28.5t-38.5 -41t-42.5 -40t-29 -26.5l-4 7q27 54 55.5 110t63.5 106q-2 14 -17.5 24.5t-27.5 13.5q2 -1 2 -6q0 -9 -5.5 -26.5
t-14.5 -39.5t-20 -45.5t-21.5 -44.5t-20 -38t-14.5 -24q-3 2 -9 2t-12.5 -3t-8.5 -9q12 -2 18 -8q-9 -13 -24 -31.5t-31.5 -37t-33.5 -33.5t-32 -22q2 23 15.5 50t31.5 54t36.5 51.5t32.5 44.5q-15 22 -41 22v-3q0 -7 -6.5 -23.5t-17 -36.5t-23.5 -42.5t-25.5 -42.5
t-23 -36.5t-16.5 -23.5q1 -18 12 -27t28 -11q29 24 54.5 51.5t48.5 56.5q-2 -4 -8 -14.5t-13 -22.5t-12 -22t-5 -13q0 -11 13.5 -19.5t20.5 -16.5v3q0 28 14.5 51.5t32.5 42.5q5 -10 14.5 -26.5t21.5 -32.5t25 -28t25 -12zM1279 367q-3 -6 -11 -20.5t-18.5 -32t-23 -36
t-24.5 -34t-23 -25.5t-18 -10q-3 0 -4 1q-1 2 -1 7q0 17 12 46t29 59.5t35.5 57t30.5 38.5q-1 -5 -1.5 -9.5t-0.5 -9.5q0 -13 3.5 -19.5t14.5 -12.5zM1143 171q-5 6 -11.5 13t-12.5 14.5t-10.5 15t-4.5 15.5q0 21 9.5 44.5t17.5 42.5h-1q-11 -10 -26.5 -26t-29 -34t-23 -37
t-9.5 -35q0 -5 1.5 -10t0.5 -10l-1 -2q4 -2 5 -4zM1843 463q-38 -48 -75.5 -96t-84.5 -89q5 24 19.5 51t33 53.5t39 50.5t36.5 42zM2001 461q-9 -14 -27.5 -42.5t-39.5 -58.5t-41.5 -55t-33.5 -31q3 19 16 48t31 58t37.5 54.5t34.5 38.5zM380 331q-12 -8 -33.5 -26t-42 -39
t-35.5 -42.5t-15 -36.5l1 -1q15 0 35 18t38.5 42t33 48t18.5 37zM461 6q-1 -5 1.5 -10t5.5 -10q29 6 57.5 10.5t57.5 11.5q-4 9 -7.5 18.5t-3.5 19.5l-7 -1q1 -8 3.5 -15.5t5.5 -15.5q-7 5 -11 13t-6 16q-24 -8 -48.5 -16.5t-47.5 -20.5zM450 21q5 4 16 8.5t23.5 9.5t24 9
t18.5 6q-5 2 -12.5 8t-15 13.5l-14.5 14.5t-11 12q-13 -19 -26.5 -42t-29.5 -39q8 2 13.5 1.5t13.5 -1.5zM492 371q-16 0 -31.5 -4t-30.5 -10q11 -14 25 -30.5t18 -33.5q8 14 17.5 37.5t9.5 40.5h-8zM352 -51q0 -4 2 -8q7 12 22 16t31.5 6t31.5 5.5t23 14.5h-1
q-12 -5 -29 -8.5t-30 -4.5q15 2 29 6t28 9l-2 3q-19 -2 -39 -7t-38 -11q4 3 14.5 6t21.5 6t22 5.5t17 3.5l-2 4q-14 -2 -32 -5t-31 -11q12 10 29.5 14.5t32.5 6.5v2q-5 1 -15 1t-24.5 -4t-28 -11t-23 -17t-9.5 -22zM1431 496q0 4 4 9.5t9.5 11t10 11.5t5.5 13q-9 24 -32 32
q-2 -14 -9 -27.5t-7 -27.5q0 -11 5.5 -15t13.5 -9v2zM811 430q10 -10 23 -10q4 0 9.5 5.5t9.5 13t7 15t3 11.5v2q-5 7 -11 13t-15 6h-6q0 -5 -1.5 -13.5t-4 -17t-6 -15.5t-8.5 -10zM1867 188q-1 -5 -1.5 -10.5t-0.5 -11.5q0 -11 3 -20l71 9v10zM1508 480q0 5 4 10t9 9.5
t9.5 10t4.5 11.5q-7 11 -13.5 15t-19.5 7q-2 -14 -9 -29.5t-7 -27.5q0 -7 8.5 -6.5t13.5 -0.5v1zM916 137q-9 11 -18.5 21.5t-17.5 21.5q-9 -10 -14.5 -25t-7.5 -28zM733 102q-13 3 -20.5 6.5t-12 8.5t-8 12.5t-9.5 16.5q-3 -11 -5.5 -22t-2.5 -23l1 -10q14 2 28.5 5t28.5 6
zM570 66q11 5 25 7.5t25 4.5q-7 10 -15.5 18.5t-15.5 19.5q-7 -12 -12.5 -24t-10.5 -24v-4q4 0 4 2zM812 118q-6 7 -11 11.5t-10 12.5l-37 -35q14 3 29 6t29 5zM1556 237q-5 -6 -9.5 -14t-7.5 -16q10 1 19 1.5t19 0.5zM1315 451q-5 -16 -11 -32t-14 -31q-1 3 -1 10
q0 13 6.5 30.5t19.5 22.5zM1793 210q-10 5 -16 10t-11 15q-11 -14 -24 -24zM1832 208q6 0 14 0.5t14 -1.5q1 0 2.5 -1t1.5 1q6 0 14 -3q-15 7 -26 24zM1377 196q-4 5 -6 10l-4 10q-3 -5 -6.5 -10.5t-5.5 -11.5zM1967 157v1l-21 6v-9zM1139 428h1l-1 -1v1z" />
    <glyph glyph-name="z" unicode="z" horiz-adv-x="285" 
d="M12 110q0 51 32.5 80.5t82.5 29.5h48v22q-1 27 -3.5 43t-20.5 16h-123v60h123q27 0 44 -9.5t26 -25.5t11.5 -37.5t2.5 -45.5v-53q0 -13 -9 -21.5t-21 -8.5h-78q-28 0 -41.5 -13.5t-13.5 -36.5q0 -29 18 -39.5t37 -10.5h211v-60h-211q-22 0 -43 7t-37 21t-25.5 34.5
t-9.5 47.5zM105 472l40 -41l40 41l41 -41l-41 -40l-40 39l-40 -39l-40 40z" />
    <glyph glyph-name="z.end" unicode="&#xe2b9;" horiz-adv-x="307" 
d="M12 110q0 51 32.5 80.5t82.5 29.5h48v22q-1 27 -3.5 43t-20.5 16h-123v60h123q27 0 44 -9.5t26 -25.5t11.5 -37.5t2.5 -45.5v-53q0 -13 -9 -21.5t-21 -8.5h-78q-28 0 -41.5 -13.5t-13.5 -36.5q0 -29 18 -39.5t37 -10.5h231l-30 -60h-201q-22 0 -43 7t-37 21t-25.5 34.5
t-9.5 47.5zM105 472l40 -41l40 41l41 -41l-41 -40l-40 39l-40 -39l-40 40z" />
    <glyph glyph-name="zero" unicode="0" horiz-adv-x="440" 
d="M128 10q-27 17 -48.5 44t-36 61t-22 72.5t-7.5 78.5q0 26 3.5 51t9.5 50q14 51 38.5 90.5t58.5 62.5q38 26 79 26q38 0 76 -23q27 -17 48.5 -44t36 -61t22 -72.5t7.5 -78.5q0 -26 -3.5 -51t-9.5 -50q-14 -51 -38.5 -90.5t-58.5 -62.5q-38 -26 -79 -26q-38 0 -76 23z
M249 62q23 15 42.5 44.5t30.5 74.5q11 44 11 85q0 34 -6.5 66t-18 59t-27 48t-34.5 33q-20 13 -43 13t-46 -14q-23 -15 -42.5 -44.5t-30.5 -74.5q-11 -44 -11 -85q0 -34 6.5 -66t18 -59t27 -48t34.5 -33q20 -13 43 -13t46 14zM109 636l46 47l47 -47l-47 -46zM203 636l46 47
l47 -47l-47 -46z" />
    </font>
</defs>
</svg>
